<?xml version="1.0" standalone="no"?>
<!DOCTYPE svg PUBLIC "-//W3C//DTD SVG 20010904//EN"
 "http://www.w3.org/TR/2001/REC-SVG-20010904/DTD/svg10.dtd">
<svg version="1.0" xmlns="http://www.w3.org/2000/svg"
 width="2020.000000pt" height="479.000000pt" viewBox="0 0 2020.000000 479.000000"
 preserveAspectRatio="xMidYMid meet">

<g transform="translate(0.000000,479.000000) scale(0.100000,-0.100000)"
fill="#000000" stroke="none">
<path d="M783 4240 c-27 -11 -63 -66 -63 -96 0 -18 -8 -22 -56 -28 -56 -6
-109 -30 -118 -51 -6 -17 5 -65 15 -65 5 0 9 -9 9 -20 0 -11 6 -23 14 -26 13
-5 10 -41 -9 -86 -16 -39 61 -100 141 -112 21 -3 39 -5 39 -6 0 0 9 -16 19
-35 17 -32 33 -41 61 -35 5 1 23 3 40 5 52 5 82 25 98 65 12 31 19 37 40 35
34 -4 67 25 67 59 0 25 3 26 33 22 17 -3 54 -7 82 -8 45 -3 51 -1 63 25 7 15
19 27 27 27 18 0 30 -60 20 -108 -4 -20 -6 -47 -6 -60 1 -13 -4 -20 -9 -17 -6
3 -10 1 -10 -4 0 -6 -6 -11 -14 -11 -7 0 -19 -7 -26 -16 -18 -20 -14 -133 5
-163 3 -5 1 -21 -4 -34 -8 -20 -6 -31 9 -50 16 -21 28 -25 63 -23 23 1 48 5
54 9 7 4 27 10 45 13 18 3 47 7 63 10 45 7 204 7 252 -1 40 -6 42 -6 45 22 2
15 -2 42 -8 58 -6 17 -12 61 -13 100 -2 70 -18 105 -47 105 -16 0 -25 29 -28
91 -3 48 8 65 21 33 6 -16 51 -39 68 -34 6 1 27 3 48 5 28 2 46 11 73 39 34
35 76 47 89 26 3 -5 6 -38 6 -74 1 -88 -21 -131 -80 -159 -49 -24 -64 -51 -34
-61 11 -4 20 -17 21 -33 2 -16 4 -46 6 -67 5 -52 46 -91 85 -80 14 4 42 8 61
9 61 4 155 7 165 5 6 -1 13 -2 17 -1 4 0 22 -6 40 -13 18 -7 39 -11 46 -9 6 3
12 -1 12 -7 0 -7 6 -10 14 -7 8 3 24 -3 36 -13 25 -21 42 -21 80 0 15 9 54 14
100 15 71 0 75 1 87 27 26 53 -2 71 -88 57 -30 -5 -73 -6 -96 -3 -40 6 -41 7
-45 47 -3 23 -1 47 3 53 9 12 6 107 -5 139 -4 11 -16 39 -28 63 -17 35 -26 42
-49 42 -30 0 -79 -50 -89 -92 -7 -29 25 -129 47 -145 9 -7 14 -13 10 -13 -4 0
2 -9 14 -21 l21 -21 -26 -13 c-15 -8 -77 -16 -151 -20 -101 -4 -131 -3 -154
10 -50 26 -54 109 -5 121 13 3 24 12 24 20 0 8 4 14 10 14 15 0 24 68 23 184
-1 95 -3 111 -19 123 -11 8 -28 12 -39 9 -11 -3 -25 -2 -32 2 -25 15 -44 107
-26 125 3 4 12 -2 20 -13 16 -23 50 -26 78 -7 11 8 49 19 85 26 36 7 72 14 80
17 22 6 43 -55 39 -114 -2 -26 0 -57 5 -69 11 -33 49 -29 84 8 37 40 88 51
149 33 71 -21 94 -68 94 -189 0 -105 36 -200 69 -180 16 10 41 -34 49 -86 5
-30 7 -57 5 -61 -3 -4 0 -17 6 -28 10 -18 18 -19 134 -14 74 3 132 2 143 -4
12 -7 30 -6 56 3 45 16 44 15 49 40 2 16 -6 22 -43 31 -30 8 -62 9 -90 3 -62
-11 -182 0 -175 17 3 7 1 16 -4 19 -6 4 -10 22 -10 42 0 30 3 35 19 30 30 -7
81 41 91 87 16 72 -8 115 -65 120 -5 1 -11 27 -13 59 -2 46 0 57 13 58 8 1 20
3 25 4 6 1 19 3 30 4 11 0 20 8 20 17 0 12 5 14 18 9 9 -4 40 -13 67 -20 85
-22 102 -31 108 -62 3 -15 11 -52 17 -81 8 -39 8 -57 0 -67 -8 -10 -8 -15 0
-20 8 -5 8 -11 -1 -21 -6 -8 -8 -14 -3 -14 4 0 3 -5 -4 -12 -24 -24 -14 -56
23 -74 43 -20 50 -31 35 -49 -12 -14 -5 -55 9 -55 4 0 27 -18 51 -39 50 -44
79 -54 164 -52 33 0 64 -3 70 -8 6 -4 18 -8 26 -8 8 0 42 -6 75 -13 60 -13
135 -7 135 10 0 5 10 12 21 15 37 12 106 91 116 133 13 52 1 126 -26 163 -20
26 -20 29 -4 29 27 1 48 21 61 59 14 39 16 97 4 105 -4 2 -9 24 -10 47 -2 23
-11 52 -20 65 -14 20 -24 23 -61 20 -24 -3 -54 -1 -66 4 -12 5 -28 5 -35 0 -8
-5 -23 -2 -36 7 -16 10 -36 13 -61 9 -21 -3 -63 -8 -93 -12 -30 -3 -75 -15
-98 -26 -50 -22 -132 -94 -132 -115 0 -7 -7 -16 -16 -20 -8 -3 -13 -12 -10
-19 3 -7 1 -16 -4 -19 -18 -11 -5 -59 23 -89 24 -27 25 -31 10 -35 -10 -2 -24
-8 -30 -13 -9 -7 -13 -7 -13 2 0 7 -7 18 -14 24 -9 6 -17 37 -21 71 -11 109
-26 200 -35 209 -5 5 -6 15 -3 22 12 32 -8 102 -40 139 -29 34 -37 37 -93 41
-107 6 -163 -24 -184 -102 -10 -35 -10 -47 0 -59 11 -13 6 -15 -34 -15 -39 0
-46 -3 -50 -22 -11 -54 -13 -77 -5 -80 15 -5 25 -94 17 -157 -2 -21 5 -33 27
-43 24 -11 29 -36 7 -31 -6 2 -30 5 -54 8 -23 3 -46 9 -50 13 -4 4 -10 50 -13
102 -8 121 -31 177 -88 215 -52 35 -130 43 -202 21 -27 -8 -51 -13 -54 -11 -2
3 -5 37 -5 76 -2 88 -17 105 -75 84 -54 -19 -177 -36 -206 -29 -16 4 -34 0
-49 -10 -22 -14 -26 -14 -37 0 -8 10 -15 12 -23 4 -17 -17 -26 -11 -26 18 0
34 -31 66 -57 58 -28 -8 -75 -17 -113 -21 -19 -2 -62 -6 -95 -10 -33 -3 -114
-8 -180 -9 -66 -2 -127 -6 -135 -9 -25 -9 -92 -19 -148 -23 -61 -3 -77 -13
-87 -52 l-7 -27 -15 28 c-12 24 -20 28 -51 26 -20 -1 -45 -6 -54 -11 -14 -7
-21 0 -36 35 -32 73 -62 90 -119 67z m54 -95 c-4 -8 -2 -17 3 -20 6 -4 10 -22
10 -41 0 -19 -4 -33 -9 -30 -13 8 -21 -33 -11 -58 4 -13 20 -30 34 -39 49 -33
25 -64 -36 -46 -31 9 -35 7 -75 -37 l-41 -46 -21 21 c-12 12 -21 23 -21 27 0
3 25 16 56 30 54 24 55 25 52 62 l-3 37 -60 1 c-62 0 -85 7 -85 25 0 19 29 20
64 4 29 -14 39 -15 51 -5 12 10 18 10 31 -1 22 -18 35 5 21 41 -12 33 7 90 30
90 9 0 13 -6 10 -15z m971 -6 c16 -25 23 -51 26 -100 1 -19 6 -40 9 -46 4 -7
2 -15 -4 -18 -5 -4 -8 -13 -5 -20 2 -7 -7 -18 -20 -24 -20 -9 -30 -8 -49 6
-14 10 -25 23 -25 29 0 6 -8 19 -19 28 -25 22 -64 12 -94 -24 -22 -25 -24 -38
-25 -139 0 -61 -4 -116 -7 -122 -4 -6 2 -19 14 -30 12 -11 21 -24 21 -29 0 -5
12 -15 28 -22 22 -11 28 -21 30 -56 3 -43 -11 -55 -35 -31 -9 9 -22 8 -51 -4
-21 -8 -83 -21 -138 -27 -116 -13 -154 -5 -154 34 0 32 10 57 20 51 5 -3 11 4
15 15 3 11 9 20 13 20 4 0 8 12 9 28 15 176 15 194 -2 257 -10 36 -23 70 -30
75 -20 16 -131 18 -127 2 1 -8 -2 -11 -7 -8 -12 8 -34 -21 -26 -34 9 -15 -4
-12 -21 4 -17 18 -34 60 -34 87 0 11 13 25 33 34 17 9 50 26 72 38 34 18 64
22 230 29 104 4 197 10 205 12 8 2 42 4 75 5 51 1 62 -2 73 -20z m1194 -13
c18 -8 40 -27 48 -41 13 -25 13 -29 -9 -46 -13 -10 -33 -19 -45 -19 -34 0
-105 24 -122 42 -14 14 -13 18 18 47 37 34 59 38 110 17z m-1932 -131 c0 -8
-2 -15 -4 -15 -2 0 -6 7 -10 15 -3 8 -1 15 4 15 6 0 10 -7 10 -15z m2691 -73
c25 -32 20 -78 -12 -104 -29 -24 -55 -23 -81 5 -58 59 -119 74 -153 37 -21
-23 -22 -57 -4 -95 11 -22 22 -28 53 -31 21 -2 43 -7 50 -12 6 -5 23 -12 37
-15 75 -18 106 -93 63 -156 -13 -19 -24 -41 -24 -48 0 -7 -7 -13 -15 -13 -8 0
-15 -4 -15 -10 0 -5 -12 -13 -27 -16 -16 -4 -33 -11 -40 -16 -7 -6 -22 -4 -41
6 -16 8 -32 13 -34 10 -7 -6 -58 17 -58 26 0 4 -13 13 -28 19 -30 13 -82 1
-82 -19 0 -23 -39 -8 -64 24 -27 36 -33 56 -16 56 6 0 10 7 10 15 0 8 11 17
25 20 14 3 36 7 50 10 17 4 25 1 25 -8 0 -26 63 -73 95 -71 39 2 36 0 68 28
24 21 28 31 25 63 -2 22 -9 38 -16 38 -7 0 -17 7 -22 15 -5 8 -10 12 -10 7 0
-4 -11 -1 -24 8 -13 8 -29 13 -37 10 -8 -2 -45 6 -84 19 -72 24 -95 47 -95 92
0 27 73 103 106 111 5 1 27 9 49 16 31 11 130 16 130 7 0 -1 11 -3 24 -6 14
-2 30 -9 37 -15 18 -15 54 -1 54 21 0 17 4 18 30 8 17 -5 39 -22 51 -36z
m-2773 -12 c20 -18 21 -50 2 -50 -7 0 -21 23 -24 40 -1 3 -5 11 -9 18 -13 19
7 14 31 -8z m-110 -123 c2 -9 -4 -24 -12 -33 -23 -22 -29 -1 -17 54 3 11 27
-7 29 -21z"/>
<path d="M18140 4227 c-15 -6 -94 -12 -190 -13 -91 -2 -168 -3 -171 -3 -12 -2
-28 -77 -24 -115 3 -33 -2 -51 -23 -85 -1 -3 -13 6 -26 18 -23 22 -28 22 -98
12 -133 -19 -148 -19 -148 1 0 10 -12 24 -26 30 -21 10 -31 9 -59 -6 -25 -14
-44 -16 -77 -11 -80 13 -147 9 -183 -11 -35 -19 -40 -32 -26 -69 17 -43 -2
-44 -35 -1 -29 38 -43 47 -114 70 -45 14 -91 26 -103 26 -12 0 -40 7 -62 15
-51 18 -119 19 -176 1 -158 -49 -162 -51 -181 -81 -10 -16 -20 -34 -22 -40 -2
-5 -7 -7 -11 -2 -5 4 -4 28 2 54 6 25 9 52 6 59 -8 20 -42 27 -71 15 -27 -11
-271 -21 -270 -11 3 45 -23 54 -101 36 -70 -16 -128 -10 -141 15 -9 15 -15 16
-41 7 -17 -6 -33 -18 -37 -27 -12 -32 -49 -57 -92 -62 -43 -4 -214 13 -245 25
-44 17 -71 9 -85 -25 -7 -16 -15 -29 -19 -29 -4 0 -7 -47 -8 -104 l-2 -103 40
-12 c28 -8 43 -20 51 -39 7 -15 18 -34 25 -43 12 -14 12 -17 -2 -22 -24 -10
-18 -35 24 -122 22 -44 45 -99 51 -121 12 -50 38 -61 84 -37 44 23 252 28 284
7 24 -16 62 -15 83 3 16 12 79 28 94 24 6 -2 45 -6 89 -8 83 -4 106 5 128 52
5 11 15 31 24 45 8 14 12 35 9 48 -3 12 -1 22 5 22 5 0 10 15 11 33 0 28 15
80 19 67 1 -3 7 -25 13 -50 17 -63 98 -127 208 -164 45 -15 96 -30 113 -32 17
-2 68 -11 114 -19 70 -14 84 -14 96 -2 8 8 29 20 48 26 57 22 83 35 99 51 9 8
29 27 45 42 41 38 57 58 50 65 -3 3 1 21 9 40 8 20 15 46 15 58 0 27 22 48 47
43 20 -4 28 -28 19 -64 -6 -21 -9 -23 -26 -14 -16 9 -21 7 -26 -7 -3 -10 -8
-25 -11 -33 -2 -8 -6 -48 -9 -89 -5 -99 17 -122 96 -101 19 5 103 11 185 13
119 4 155 2 170 -9 50 -37 88 0 86 83 -1 32 4 70 10 85 15 37 4 78 -21 78 -23
0 -27 19 -5 21 21 2 26 4 60 20 67 32 95 74 99 151 1 10 6 18 11 18 24 1 29
-197 5 -225 -7 -8 -23 -15 -36 -15 -34 0 -41 -24 -39 -133 2 -104 7 -117 52
-117 12 0 23 5 25 11 2 6 53 16 115 22 114 11 117 11 185 -24 27 -14 42 -11
61 11 9 11 28 21 42 21 31 2 30 2 88 18 41 12 52 12 74 0 15 -8 51 -13 85 -12
32 1 58 -2 58 -6 0 -11 93 -11 106 0 17 14 27 78 15 93 -5 6 -8 25 -6 41 5 41
-12 80 -36 82 -28 2 -109 45 -109 57 0 6 -11 24 -25 40 -14 16 -25 30 -25 30
0 1 28 1 61 1 48 1 64 5 75 20 18 25 18 55 -2 94 -12 23 -14 45 -9 82 10 69
-7 87 -77 82 -30 -2 -59 -10 -70 -20 -10 -9 -29 -18 -41 -20 -44 -5 -117 -4
-128 3 -6 3 -10 31 -8 68 3 75 -5 102 -34 110 -27 7 -27 7 -57 -7z m-14 -94
c17 -12 16 -15 -18 -51 -44 -46 -50 -64 -32 -91 18 -25 21 -170 4 -181 -8 -5
-6 -17 5 -42 15 -30 21 -34 47 -30 16 3 40 15 53 28 13 13 28 24 34 24 15 0
27 65 22 121 -1 6 -7 9 -15 6 -16 -7 -30 44 -14 54 10 7 186 22 232 20 16 -1
33 -4 37 -7 12 -7 11 -65 0 -83 -11 -18 -88 -26 -105 -12 -8 7 -16 8 -18 4 -1
-4 -19 -16 -40 -27 -28 -14 -35 -23 -33 -41 2 -23 31 -60 46 -60 4 0 11 -3 15
-7 4 -5 16 -8 26 -8 10 0 18 -7 18 -15 0 -8 4 -15 10 -15 5 0 12 -23 16 -51 6
-47 33 -89 56 -89 4 0 8 -6 8 -14 0 -21 -47 -28 -86 -14 -26 9 -46 9 -86 1
-41 -9 -55 -8 -63 1 -5 6 -18 10 -27 8 -15 -3 -17 4 -14 55 2 47 -1 62 -17 81
-42 46 -98 17 -104 -55 -2 -18 1 -33 7 -33 7 0 7 -7 -1 -21 -8 -15 -8 -19 0
-15 6 4 11 4 11 -1 0 -4 -17 -16 -38 -25 -29 -14 -60 -17 -142 -15 -98 2 -105
3 -116 25 -15 30 -7 62 16 62 42 0 97 115 74 152 -5 7 -11 65 -14 128 -5 113
-5 115 -32 128 -30 14 -33 26 -19 65 20 53 34 58 161 56 80 -2 123 -6 136 -16z
m-1376 -113 c58 -10 122 -32 187 -62 12 -6 38 -28 59 -49 l38 -39 0 -88 c1
-85 0 -88 -38 -139 -21 -29 -45 -53 -53 -53 -8 0 -29 -10 -46 -22 -18 -13 -41
-23 -52 -23 -11 -1 -24 -3 -30 -7 -15 -9 -147 0 -179 11 -15 6 -38 11 -51 11
-42 0 -168 67 -198 105 -34 42 -41 107 -15 127 20 15 41 66 32 79 -3 5 -2 9 3
8 37 -6 51 3 56 39 4 20 13 47 22 59 19 27 144 65 185 57 8 -2 44 -8 80 -14z
m-447 -6 c12 -4 17 -16 17 -43 0 -72 -11 -103 -41 -114 -29 -11 -53 -48 -54
-82 -2 -47 -18 -107 -31 -112 -8 -3 -14 -9 -14 -14 0 -5 -8 -18 -17 -29 -10
-11 -18 -24 -18 -28 -1 -15 -27 -53 -32 -48 -4 3 -12 1 -20 -5 -14 -12 -88
-14 -137 -3 -31 7 -65 39 -66 62 0 12 -40 32 -63 32 -26 -1 -60 -41 -60 -70 0
-29 -13 -40 -57 -46 -115 -16 -128 -16 -162 0 -37 18 -78 89 -78 137 0 14 -5
30 -11 36 -8 8 -7 16 2 30 10 17 8 28 -9 65 -12 24 -22 50 -22 56 0 7 -17 20
-37 30 -47 21 -54 30 -47 62 14 66 19 69 113 64 225 -11 221 -10 221 -68 0
-20 -10 -38 -30 -56 -39 -35 -49 -81 -22 -106 11 -11 23 -37 27 -59 13 -69 60
-91 96 -46 10 13 19 36 19 52 0 16 7 46 16 67 21 47 24 62 13 62 -5 0 -8 3 -8
8 4 23 -3 44 -21 59 -22 19 -27 47 -8 41 7 -3 32 5 56 17 30 15 58 20 95 18
68 -3 95 -8 103 -16 4 -4 13 -2 21 5 17 13 21 10 24 -22 4 -44 -1 -71 -11 -65
-14 9 -78 -32 -82 -53 -5 -21 12 -63 32 -79 8 -6 15 -15 15 -20 0 -16 29 -78
39 -85 6 -4 21 -8 32 -8 22 0 34 23 34 67 0 12 7 29 16 37 8 9 12 21 9 26 -4
6 -1 18 6 26 14 17 6 118 -11 139 -37 44 85 104 163 79z m1046 -28 c7 -8 11
-20 10 -28 -2 -18 12 -78 20 -79 3 0 18 -3 34 -5 21 -4 29 0 37 18 19 48 44
66 103 75 64 11 107 7 107 -11 0 -6 12 -22 25 -35 29 -27 30 -32 10 -71 -14
-26 -61 -50 -101 -50 -14 0 -24 23 -24 58 0 15 -7 35 -14 45 -12 16 -16 16
-50 2 -20 -8 -37 -21 -38 -28 -1 -13 -5 -29 -8 -37 -1 -3 -2 -50 -3 -106 -2
-94 0 -102 20 -118 13 -9 35 -15 50 -14 29 3 40 -16 24 -41 -11 -17 -45 -20
-218 -23 -87 -1 -126 2 -137 12 -25 20 -19 39 18 54 41 17 46 39 39 156 -6
106 -16 130 -54 127 -16 -1 -29 -6 -29 -11 0 -20 -12 4 -15 31 -6 43 4 64 38
78 43 19 141 19 156 1z m240 -256 c11 0 11 -3 1 -14 -9 -12 -17 -13 -36 -4
-30 14 -32 32 -1 24 12 -3 28 -6 36 -6z"/>
<path d="M16685 3875 c-8 -14 -21 -36 -29 -49 -16 -25 -30 -94 -29 -141 0 -48
11 -79 35 -96 20 -15 24 -15 67 3 42 17 49 25 69 76 26 65 23 130 -10 195 -16
32 -23 37 -53 37 -26 0 -38 -6 -50 -25z"/>
<path d="M5478 4219 c-10 -5 -18 -8 -18 -5 0 7 -48 -33 -64 -53 -6 -7 -23 -25
-38 -39 -34 -32 -35 -45 -5 -65 l22 -16 -32 -7 c-47 -10 -53 -21 -40 -84 6
-30 11 -80 12 -110 1 -63 11 -86 46 -103 32 -17 35 -44 8 -73 -25 -26 -44 -32
-36 -10 8 19 -29 74 -58 88 -15 7 -25 20 -25 32 -1 47 -39 167 -66 204 -22 30
-42 45 -81 58 -60 20 -105 12 -183 -34 -42 -25 -97 -52 -106 -52 -2 0 -4 7 -4
15 0 8 -4 15 -8 15 -5 0 -14 10 -19 23 -7 14 -27 28 -51 36 -34 12 -47 11 -88
-3 -26 -9 -55 -16 -64 -16 -9 0 -34 -8 -56 -19 -52 -25 -88 -35 -81 -24 3 5 2
15 -3 23 -7 12 -39 15 -159 15 -132 0 -151 -2 -170 -19 -12 -11 -21 -25 -21
-32 0 -7 -6 -14 -12 -17 -10 -3 -9 -9 4 -23 12 -14 15 -31 11 -66 -5 -45 8
-84 26 -74 3 2 19 -4 36 -14 25 -14 30 -24 33 -62 3 -38 0 -48 -19 -62 -17
-12 -26 -13 -36 -4 -31 25 -49 -44 -20 -77 13 -14 20 -41 23 -84 2 -35 9 -70
15 -77 13 -16 66 -18 101 -5 13 5 76 11 142 15 65 3 122 9 127 12 5 3 9 1 9
-4 0 -15 440 2 471 19 11 5 32 8 47 5 15 -3 54 -2 87 2 44 6 75 3 116 -9 40
-11 62 -13 74 -6 14 7 16 7 10 -3 -6 -10 2 -11 41 -5 75 13 136 14 185 4 24
-5 79 -12 122 -15 61 -5 77 -3 77 8 0 10 2 10 9 -1 7 -10 2 -24 -14 -46 -17
-22 -22 -38 -18 -55 7 -27 30 -66 50 -88 7 -7 13 -17 13 -20 0 -4 8 -12 19
-17 10 -6 33 -18 50 -28 26 -15 65 -19 229 -23 272 -8 270 -8 325 26 27 17 53
30 58 30 12 0 60 47 88 87 18 26 21 41 16 78 -5 46 -36 118 -55 130 -6 4 -7
11 -4 17 4 7 2 8 -4 4 -7 -4 -12 -3 -12 2 0 6 -11 13 -25 16 -14 4 -25 11 -25
16 0 6 -6 10 -14 10 -7 0 -28 6 -46 14 l-33 13 29 14 c17 8 37 31 49 55 19 40
21 42 67 41 37 -1 53 5 73 23 25 23 26 27 19 102 -6 68 -4 78 11 84 26 10 32
-9 30 -94 -3 -79 -12 -132 -24 -130 -17 4 -60 -16 -67 -30 -11 -27 -10 -82 2
-82 20 0 43 -35 47 -73 2 -20 7 -40 10 -44 4 -3 7 -16 7 -28 0 -12 9 -30 20
-40 18 -17 21 -16 62 8 61 35 119 43 160 22 39 -20 226 -30 279 -15 19 6 52
10 74 10 95 -1 125 -4 125 -12 0 -22 38 -4 72 35 36 39 38 45 31 82 -4 22 -7
65 -8 95 -1 74 -11 100 -39 100 -18 0 -25 8 -34 38 -7 22 -10 58 -8 80 12 124
-44 176 -210 194 -79 8 -98 7 -125 -6 -18 -9 -36 -16 -40 -16 -4 0 -11 30 -15
67 -4 37 -13 73 -20 80 -15 15 -40 17 -49 3 -9 -14 -69 -12 -155 6 -123 25
-133 24 -145 -13 -8 -25 -14 -30 -23 -21 -8 8 -15 8 -27 -2 -19 -16 -19 -47 0
-84 9 -16 13 -31 11 -33 -7 -7 -77 -7 -121 1 -59 11 -77 17 -105 36 -14 10
-42 22 -62 28 -63 17 -228 -18 -341 -74 -18 -8 -58 -43 -89 -77 -31 -34 -60
-58 -65 -54 -4 5 -9 43 -11 85 -4 84 -19 110 -53 91 -17 -9 -19 -5 -19 40 0
46 -3 52 -42 86 -24 20 -55 39 -70 42 -16 3 -28 8 -28 12 0 11 -54 11 -72 0z
m56 -84 c8 -8 24 -15 35 -15 18 0 60 -45 50 -54 -24 -21 -70 -34 -100 -27 -79
18 -105 61 -56 94 28 20 52 21 71 2z m1322 -66 c47 -14 72 -87 53 -153 -9 -32
9 -55 44 -56 19 0 47 22 47 38 0 23 43 46 88 47 93 1 164 -26 186 -72 18 -38
21 -118 6 -157 -16 -44 -2 -83 39 -104 29 -16 36 -25 37 -51 1 -44 -17 -51
-146 -55 -89 -2 -108 0 -99 10 8 10 8 23 0 47 -7 19 -9 59 -6 90 8 88 -40 177
-96 177 -28 0 -78 -48 -74 -71 2 -11 -1 -31 -7 -45 -9 -18 -8 -31 2 -52 19
-37 51 -72 66 -72 19 0 37 -37 23 -45 -6 -4 -8 -17 -5 -30 8 -32 -1 -35 -46
-19 -30 10 -63 12 -127 7 -141 -10 -142 -10 -162 17 -29 40 -34 77 -12 84 44
15 64 41 70 94 3 33 1 52 -5 52 -6 0 -11 8 -11 18 -2 66 -15 190 -22 203 -5 9
-21 20 -36 24 -32 8 -52 32 -53 64 0 19 3 21 15 11 8 -6 20 -8 27 -4 34 21
139 23 204 3z m-556 -120 c15 -44 38 -53 80 -32 29 14 94 13 132 -2 20 -8 31
-63 22 -109 -6 -32 -8 -34 -28 -23 -11 7 -23 15 -26 19 -3 4 -23 3 -43 -3 -37
-10 -42 -18 -49 -78 -2 -13 -12 -29 -23 -35 -11 -6 -24 -16 -30 -22 -13 -14
-76 -31 -146 -39 -63 -8 -139 9 -139 30 0 11 -5 11 -31 -2 -37 -19 -44 -35
-32 -76 l9 -32 107 -2 c69 -1 121 -6 145 -16 20 -8 39 -15 42 -14 14 1 89 -28
113 -45 15 -11 27 -17 27 -13 0 3 14 -7 31 -23 21 -20 31 -39 31 -58 0 -16 5
-34 10 -41 6 -8 1 -16 -16 -27 -14 -9 -37 -23 -51 -31 -28 -17 -131 -34 -190
-30 -22 1 -44 0 -49 -3 -5 -3 -74 -5 -153 -5 l-144 0 -35 34 c-19 18 -34 36
-34 39 0 3 14 11 31 17 30 12 31 15 26 50 -4 21 -17 47 -32 60 -26 25 -32 47
-15 58 6 3 10 17 10 31 0 19 5 24 23 24 65 0 70 75 11 150 -21 26 -34 54 -34
72 0 74 89 166 186 193 30 8 33 9 94 20 19 4 40 10 45 15 39 32 107 4 125 -51z
m-730 5 c12 -10 26 -11 59 -3 24 5 48 6 52 2 7 -7 17 -103 23 -213 1 -25 -2
-57 -8 -72 -9 -24 -7 -31 14 -50 14 -13 25 -22 25 -21 0 4 45 -9 45 -13 0 -1
-9 -19 -21 -38 l-21 -36 -150 0 c-145 0 -232 12 -245 33 -3 6 -1 7 6 3 13 -9
41 16 41 37 0 8 14 20 30 27 40 16 50 38 56 110 4 62 -13 97 -43 86 -32 -13
-53 12 -53 62 0 26 3 57 6 69 5 18 10 20 31 12 25 -9 63 3 63 21 0 12 72 0 90
-16z m-868 7 c2 -5 10 -11 18 -13 19 -4 28 -25 29 -64 1 -40 41 -79 71 -69 11
4 28 24 38 46 11 26 25 42 40 46 13 3 35 16 48 28 19 17 37 23 81 24 49 1 61
-3 85 -26 15 -15 28 -35 28 -45 0 -10 4 -18 9 -18 13 0 23 -113 13 -141 -14
-37 4 -71 57 -106 43 -28 49 -36 47 -64 -2 -36 -4 -37 -109 -41 -51 -2 -70 1
-77 12 -5 8 -10 11 -10 6 0 -5 -9 -1 -20 9 -11 10 -20 14 -20 9 0 -5 -4 -3 -8
3 -5 7 -9 47 -11 90 -1 42 -5 81 -9 87 -3 6 -8 20 -9 31 -6 39 -13 45 -50 45
-40 0 -66 -11 -61 -26 1 -5 -3 -19 -10 -32 -10 -17 -10 -36 -2 -80 10 -59 31
-85 57 -75 13 5 14 0 8 -28 -4 -19 -11 -39 -16 -45 -5 -6 -7 -19 -3 -28 9 -25
-18 -29 -104 -17 -78 12 -130 27 -167 48 -18 10 -19 15 -8 43 6 17 10 37 8 43
-2 7 -7 32 -10 57 -8 69 -9 72 -29 117 -18 39 -57 65 -64 43 -2 -6 -9 -10 -16
-10 -6 0 -19 -15 -29 -33 -16 -29 -17 -41 -7 -99 9 -52 16 -67 32 -71 11 -3
17 -10 14 -15 -3 -5 3 -17 14 -27 11 -10 20 -27 20 -37 0 -33 -51 -44 -255
-55 l-101 -5 -12 26 c-20 45 -14 69 25 102 35 29 38 36 37 80 -1 65 -34 137
-73 160 -40 24 -41 61 -4 89 21 15 44 19 103 20 68 0 75 -2 76 -20 2 -55 15
-83 42 -88 31 -6 68 14 76 41 6 18 29 32 96 61 45 19 117 26 122 12z"/>
<path d="M6111 3859 c-38 -39 -48 -63 -41 -109 1 -8 6 -17 11 -18 5 -2 7 -8 3
-13 -3 -5 1 -9 10 -9 8 0 16 -5 18 -11 2 -5 21 -13 43 -16 49 -6 69 12 83 74
12 53 -14 118 -53 133 -15 6 -28 10 -29 10 -2 0 -22 -19 -45 -41z"/>
<path d="M6016 3406 c-30 -29 -32 -53 -8 -82 16 -19 27 -20 145 -18 83 1 133
6 142 14 18 15 20 54 3 47 -7 -2 -29 2 -48 10 -30 13 -54 18 -117 25 -7 1 -13
4 -13 8 0 4 -6 7 -12 7 -7 0 -25 4 -40 8 -21 5 -32 2 -52 -19z"/>
<path d="M13691 4213 c-19 -8 -69 -17 -110 -20 -98 -6 -143 -26 -141 -62 5
-77 3 -80 -42 -77 -80 5 -98 20 -98 82 0 23 -6 46 -12 51 -7 6 -51 13 -98 16
-106 8 -123 -2 -123 -68 0 -62 -31 -96 -79 -89 -24 4 -40 0 -59 -15 -25 -20
-27 -25 -23 -88 7 -120 35 -230 54 -218 4 2 7 -1 8 -8 4 -47 38 -174 49 -185
7 -8 20 -26 28 -42 15 -29 34 -41 74 -46 13 -2 27 -7 30 -12 3 -5 32 -14 64
-19 46 -8 60 -7 64 2 2 7 20 16 39 19 53 10 113 47 135 83 11 18 25 33 30 33
11 0 11 -31 0 -49 -10 -16 -3 -44 9 -36 5 3 6 -3 3 -14 -6 -25 19 -33 72 -21
38 8 377 6 593 -4 62 -3 64 -2 85 30 18 27 27 32 54 30 18 -1 34 2 36 8 3 6
14 2 28 -10 71 -64 212 -109 306 -98 90 9 166 28 181 43 9 9 30 23 45 31 16 8
40 33 53 56 29 48 43 114 25 114 -6 0 -11 -4 -11 -10 0 -5 -6 -10 -13 -10 -6
0 -25 -14 -41 -30 -33 -35 -86 -64 -136 -75 -19 -4 -39 -11 -45 -15 -5 -4 -57
-7 -115 -6 -137 1 -173 18 -212 96 -25 49 -27 64 -25 145 2 87 27 175 50 175
4 0 6 4 2 9 -3 5 9 20 27 32 18 13 35 26 38 30 9 11 55 33 64 31 5 -2 22 2 38
9 37 15 131 -4 159 -32 10 -10 22 -19 27 -20 19 -2 62 -35 73 -56 7 -13 16
-23 20 -23 14 0 35 -55 38 -102 l2 -48 -83 -1 c-46 -1 -122 -1 -170 0 -72 1
-88 -2 -88 -14 0 -8 -4 -15 -9 -15 -15 0 -22 -32 -10 -46 6 -8 8 -14 3 -14 -4
0 11 -14 35 -32 34 -24 53 -31 89 -31 41 0 49 4 83 42 l37 42 58 -6 c32 -4 66
-11 75 -15 12 -7 22 -3 36 13 30 33 34 54 18 100 -8 23 -17 62 -21 87 -7 48
-31 95 -73 140 -26 29 -96 80 -109 80 -4 0 -23 8 -42 18 -42 23 -97 35 -104
23 -3 -5 -27 -12 -53 -17 -27 -4 -50 -8 -53 -9 -22 -5 -110 -57 -110 -65 0 -6
-4 -10 -9 -10 -32 0 -104 -107 -103 -152 0 -14 -6 -29 -14 -32 -10 -4 -14 3
-15 22 -1 48 -9 73 -31 106 -65 92 -250 149 -340 104 -21 -10 -38 -15 -38 -11
0 4 -5 2 -12 -5 -7 -7 -18 -12 -25 -12 -20 0 -46 59 -39 90 7 38 -11 98 -34
110 -23 12 -27 12 -69 -7z m25 -98 c31 -41 41 -107 26 -172 -8 -35 -7 -43 4
-43 8 0 14 -4 14 -9 0 -11 49 -21 67 -14 7 3 13 9 13 14 0 6 5 15 10 22 6 7
16 20 23 30 12 17 49 30 120 44 33 6 142 -45 183 -86 26 -26 28 -55 10 -177
-8 -50 23 -99 55 -89 17 6 18 2 14 -27 -12 -90 -11 -89 -105 -92 -93 -4 -130
8 -130 45 0 11 -7 30 -15 43 -9 14 -16 48 -16 87 -2 118 -28 156 -104 150 -37
-3 -78 -39 -72 -63 3 -10 2 -18 -3 -18 -4 0 -6 -20 -5 -45 1 -34 8 -50 29 -70
27 -25 29 -25 53 -10 24 16 25 16 18 -6 -5 -13 -9 -42 -9 -64 -2 -40 -2 -40
-42 -41 -22 0 -45 -3 -50 -6 -5 -3 -58 -4 -117 -3 -122 3 -138 12 -135 75 1
19 -3 44 -9 54 -9 16 -3 30 34 80 39 53 44 65 38 96 -4 19 -6 63 -5 98 1 69
-10 92 -44 92 -31 0 -45 13 -52 47 -5 27 -2 33 30 53 20 12 50 23 66 24 16 1
33 5 36 9 17 16 45 5 70 -28z m-482 -2 c3 -10 5 -35 4 -55 -1 -20 6 -47 14
-60 14 -22 22 -24 71 -20 47 3 58 0 81 -21 27 -26 35 -65 14 -72 -34 -12 -67
-13 -65 -2 2 11 -14 12 -51 4 -29 -7 -37 -30 -39 -110 -1 -45 -4 -106 -7 -134
-2 -29 -3 -53 -3 -53 1 0 17 -4 35 -9 42 -12 63 9 81 81 17 68 19 71 37 53 10
-10 13 -22 8 -37 -5 -13 -7 -27 -5 -32 1 -6 -2 -20 -8 -33 -6 -13 -16 -34 -23
-48 -6 -14 -17 -25 -25 -25 -7 0 -13 -4 -13 -8 0 -16 -98 -34 -152 -27 -87 11
-135 72 -138 175 -2 40 2 59 14 79 25 40 12 127 -18 115 -7 -3 -20 2 -29 10
-9 9 -21 16 -27 16 -7 0 -10 13 -8 31 2 24 11 36 37 50 41 22 87 65 109 101
26 45 95 65 106 31z m301 -207 c15 -75 15 -96 -1 -130 -23 -48 -45 -56 -37
-13 3 18 10 34 15 35 11 5 10 49 -1 70 -4 9 -11 29 -15 44 -5 23 -3 25 14 21
11 -3 22 -15 25 -27z m765 -116 c0 -5 -2 -10 -4 -10 -3 0 -8 5 -11 10 -3 6 -1
10 4 10 6 0 11 -4 11 -10z"/>
<path d="M11192 4202 c-14 -14 -19 -28 -15 -44 5 -23 5 -23 -10 -3 -13 16 -19
18 -34 9 -15 -9 -18 -23 -16 -85 1 -41 2 -77 3 -80 0 -11 35 -44 48 -45 6 -1
24 -2 38 -2 26 -2 27 -4 22 -49 -3 -27 -2 -75 3 -108 13 -91 10 -218 -5 -227
-18 -10 -18 -124 0 -139 16 -13 38 -14 122 -2 35 5 65 6 67 3 3 -4 21 -6 42
-4 59 5 84 5 144 -2 45 -5 65 -2 110 17 30 13 63 33 74 44 49 48 105 129 105
150 0 13 5 27 10 30 6 4 10 -7 10 -24 0 -17 5 -31 10 -31 6 0 10 -7 10 -15 0
-22 122 -137 177 -166 53 -29 184 -55 211 -43 9 4 49 14 87 21 39 7 77 15 85
17 8 2 18 5 21 5 3 1 18 11 32 24 14 12 37 31 51 42 14 11 30 30 35 42 6 13
19 23 30 23 28 0 39 92 17 135 -9 17 -16 35 -16 41 0 6 -8 29 -17 50 -9 22
-24 60 -33 87 -21 65 -86 144 -130 158 -19 6 -42 18 -51 25 -8 8 -33 13 -55
13 -21 -1 -61 6 -88 15 -48 16 -86 15 -131 -4 -11 -4 -41 -15 -67 -25 -31 -11
-69 -37 -107 -75 -49 -48 -60 -66 -63 -96 l-3 -37 -46 84 c-71 131 -137 167
-257 136 -12 -3 -26 -9 -32 -12 -5 -3 -25 -8 -44 -10 -33 -5 -36 -3 -46 33 -5
20 -10 54 -10 74 0 20 -6 40 -12 45 -7 4 -44 8 -83 9 -38 0 -93 4 -122 8 -44
7 -54 5 -71 -12z m196 -63 c37 -13 55 -56 51 -127 -3 -53 14 -86 46 -89 17 -1
55 30 55 47 0 9 59 36 99 45 21 4 43 2 60 -6 31 -16 91 -69 91 -82 0 -5 10
-23 22 -40 29 -41 32 -50 32 -127 0 -50 -5 -75 -22 -103 -12 -21 -22 -44 -22
-51 0 -7 -13 -25 -30 -41 -16 -16 -30 -25 -30 -20 0 5 -10 -1 -22 -12 -28 -26
-99 -46 -133 -37 -14 3 -25 9 -25 13 0 3 -11 19 -25 35 -20 24 -29 27 -52 21
-15 -5 -31 -8 -35 -7 -5 1 -8 -5 -8 -13 0 -8 -4 -15 -8 -15 -5 0 -19 -9 -32
-20 -16 -14 -33 -19 -57 -16 -43 6 -49 11 -34 30 10 11 10 24 3 48 -6 18 -11
60 -11 94 0 33 -7 89 -15 123 -13 54 -13 70 0 117 25 99 18 113 -58 114 -31 0
-44 19 -50 69 -3 31 0 34 26 38 17 2 37 8 45 13 22 13 102 12 139 -1z m922
-132 c34 -8 118 -36 157 -53 59 -26 134 -184 101 -211 -7 -6 -83 -13 -178 -17
-151 -5 -166 -7 -182 -26 -13 -17 -15 -27 -6 -50 5 -17 14 -30 19 -30 5 0 26
-15 46 -33 22 -19 51 -34 68 -35 39 -3 90 29 116 73 21 34 22 35 87 35 71 0
111 -13 79 -26 -9 -3 -17 -11 -17 -18 -1 -17 -32 -49 -60 -63 -62 -29 -97 -43
-122 -47 -15 -3 -33 -8 -39 -12 -20 -12 -173 -13 -222 -1 -56 13 -132 81 -162
143 -23 50 -24 153 -1 222 14 43 30 62 84 108 l66 56 70 -5 c39 -3 82 -8 96
-10z"/>
<path d="M11532 3854 c-26 -18 -62 -92 -62 -129 0 -14 7 -41 14 -60 8 -19 13
-35 10 -35 -3 0 2 -10 10 -22 16 -23 59 -31 88 -16 45 22 77 148 53 206 -13
30 -59 72 -79 72 -6 0 -22 -7 -34 -16z"/>
<path d="M12237 3888 c-13 -7 -18 -19 -16 -42 2 -17 0 -36 -4 -43 -4 -7 5 -18
24 -27 80 -40 147 -1 132 77 -4 20 -11 27 -29 27 -12 0 -25 4 -28 8 -7 12 -58
12 -79 0z"/>
<path d="M7741 4188 c-45 -20 -74 -21 -178 -2 -29 6 -34 3 -43 -22 -7 -18 -8
-37 -1 -56 15 -41 -28 -87 -85 -92 -55 -4 -89 -28 -76 -53 5 -10 10 -34 10
-54 1 -20 6 -48 12 -63 5 -15 10 -38 10 -51 0 -15 11 -33 29 -46 29 -22 40
-52 46 -131 4 -50 29 -91 93 -155 53 -52 72 -64 72 -42 0 8 5 7 16 -2 17 -14
72 -14 166 1 60 9 138 59 138 87 0 7 3 13 8 13 4 0 15 18 25 41 14 32 16 50 9
89 -5 27 -5 53 -1 57 5 5 5 24 -1 41 -5 18 -6 40 -3 49 5 11 3 14 -6 8 -10 -6
-11 -3 -2 14 14 26 -1 132 -24 167 -8 13 -33 28 -56 34 -72 20 -79 28 -79 93
0 55 -12 97 -28 97 -4 -1 -27 -10 -51 -22z m14 -100 c7 -15 7 -34 2 -54 -11
-37 9 -89 35 -89 9 0 20 -3 23 -7 4 -4 18 -3 31 2 17 7 27 5 39 -6 37 -38 5
-77 -64 -79 -45 -1 -56 -6 -84 -34 -18 -19 -26 -30 -18 -26 10 6 13 4 8 -7 -3
-9 1 -24 8 -35 8 -12 12 -43 11 -83 -2 -56 1 -68 21 -87 25 -26 38 -28 72 -9
25 14 30 30 31 98 1 34 3 36 23 29 23 -9 33 -41 21 -69 -4 -9 -9 -26 -11 -36
-4 -25 -60 -75 -93 -83 -28 -8 -146 -9 -171 -2 -30 9 -69 47 -84 83 -18 43
-21 96 -7 154 10 41 8 46 -16 71 -21 21 -33 26 -52 21 -26 -7 -50 4 -50 23 0
31 36 87 63 98 17 7 43 34 62 64 42 65 52 73 100 78 86 8 90 8 100 -15z"/>
<path d="M9077 4192 c-21 -2 -53 -12 -70 -22 -31 -19 -31 -21 -33 -102 -1 -90
11 -118 50 -118 49 -1 55 -19 56 -188 1 -93 -4 -118 -27 -126 -24 -10 -27 -1
-16 54 10 48 9 52 -13 67 -13 8 -31 13 -39 9 -8 -3 -15 -2 -15 3 0 4 -11 13
-25 19 -18 9 -25 19 -23 34 2 13 -3 53 -11 90 -18 91 -54 120 -197 157 -52 14
-277 -6 -322 -28 -66 -32 -80 -45 -114 -103 -32 -55 -37 -71 -37 -130 -1 -46
4 -71 14 -82 8 -8 15 -17 15 -21 0 -4 7 -13 14 -21 12 -11 25 -12 58 -5 24 5
63 9 88 10 70 2 137 28 164 64 29 39 40 73 29 89 -4 7 -8 26 -8 43 0 25 -7 33
-39 48 -33 16 -40 16 -55 4 -9 -8 -28 -17 -43 -21 -15 -3 -32 -15 -37 -25 -14
-25 8 -71 34 -71 43 -1 48 -16 13 -41 -24 -18 -46 -24 -81 -23 -71 1 -90 29
-73 109 3 11 5 23 5 27 3 23 63 67 100 73 22 4 43 10 46 15 8 12 190 12 237
-1 24 -6 43 -10 43 -8 1 8 52 -47 67 -71 20 -33 34 -146 20 -163 -6 -7 -11
-28 -12 -47 -1 -19 -2 -47 -2 -63 -1 -34 27 -67 57 -67 16 0 28 11 41 38 l19
37 3 -33 c4 -43 -18 -92 -41 -92 -10 0 -20 -6 -23 -14 -5 -14 -62 -15 -99 -2
-58 21 -84 37 -89 54 -7 22 -43 36 -52 21 -3 -5 -9 -7 -14 -4 -5 3 -18 -3 -30
-15 -11 -11 -17 -20 -13 -20 4 0 -1 -6 -12 -14 -11 -7 -43 -16 -72 -20 -59 -7
-127 14 -144 45 -5 11 -14 17 -19 14 -4 -3 -10 1 -13 7 -2 7 13 29 34 48 29
26 37 39 30 49 -8 12 -18 10 -64 -13 -57 -27 -79 -52 -91 -98 -5 -21 -3 -28 8
-28 8 0 18 -9 21 -20 3 -11 15 -20 26 -20 10 0 28 -9 39 -20 11 -11 22 -20 25
-20 3 0 22 -7 43 -16 27 -11 55 -14 106 -9 39 3 75 9 80 14 23 17 60 19 88 5
16 -8 53 -17 83 -19 30 -2 63 -9 75 -15 13 -7 26 -8 33 -2 10 7 39 18 77 27
17 4 50 32 50 42 0 19 9 16 29 -8 14 -18 30 -21 141 -25 69 -2 137 -6 151 -9
14 -3 46 1 70 9 55 19 59 20 59 1 0 -8 5 -16 10 -16 13 -2 21 -4 40 -12 8 -3
38 -8 65 -12 28 -3 63 -8 79 -10 16 -3 34 -1 40 4 21 16 64 21 69 8 2 -8 33
-12 108 -12 95 0 107 2 141 26 66 45 111 137 101 206 -3 25 -2 24 18 -12 31
-56 97 -124 139 -142 35 -15 218 -43 255 -39 33 4 68 18 108 43 20 13 37 21
37 18 0 -10 67 36 101 70 21 20 57 94 65 130 9 45 6 157 -5 168 -6 6 -11 18
-11 26 0 42 -216 192 -255 177 -8 -3 -17 -1 -19 3 -3 5 -27 11 -54 15 -50 6
-84 -1 -159 -35 -24 -10 -50 -19 -58 -19 -8 0 -15 -5 -15 -10 0 -6 -10 -15
-22 -21 -13 -5 -34 -27 -48 -47 -39 -58 -69 -112 -63 -112 3 0 -1 -8 -10 -18
-9 -10 -20 -33 -23 -52 l-7 -33 -19 22 c-17 22 -17 24 1 46 28 37 28 157 0
210 -27 51 -29 51 -86 48 -65 -3 -106 -3 -180 2 -35 2 -63 0 -63 -3 0 -4 -15
-8 -32 -9 -18 -2 -44 -7 -58 -12 -14 -6 -45 -12 -70 -15 -49 -7 -77 -32 -110
-101 -23 -48 -25 -77 -6 -138 8 -26 11 -47 7 -47 -4 0 -17 -10 -30 -21 -21
-20 -24 -20 -38 -6 -12 12 -18 50 -24 154 -11 193 -20 306 -25 321 -3 10 -21
13 -72 9 -37 -3 -87 -2 -112 1 -25 4 -62 6 -83 4z m191 -80 c2 -7 10 -19 18
-27 10 -10 15 -35 15 -77 -1 -115 9 -369 15 -379 3 -5 21 -16 40 -24 34 -14
35 -17 32 -56 -3 -40 -4 -41 -48 -47 -101 -13 -173 -7 -224 18 -34 16 -51 20
-54 12 -4 -13 -32 -17 -32 -4 1 17 21 37 52 51 29 14 81 86 73 101 -2 3 -6 68
-10 145 -3 77 -9 148 -11 158 -3 10 -23 25 -45 34 -36 14 -40 19 -37 47 3 26
10 33 48 48 51 19 161 19 168 0z m1325 -135 c48 -26 107 -71 107 -82 0 -3 9
-16 21 -28 11 -12 27 -35 36 -51 13 -25 13 -33 -2 -78 -9 -28 -23 -57 -31 -65
-8 -8 -14 -24 -14 -35 0 -28 -67 -96 -117 -119 -50 -23 -77 -23 -163 -3 -36 9
-78 18 -95 21 -16 3 -40 12 -51 20 -12 8 -27 12 -34 11 -7 -2 -28 23 -47 55
-32 53 -33 59 -19 79 18 25 21 58 6 58 -18 0 -10 67 13 111 25 49 97 106 145
115 18 3 34 10 37 14 2 4 40 6 83 4 60 -2 88 -8 125 -27z m-787 -12 c4 -8 14
-15 25 -15 10 0 30 -5 44 -12 24 -11 29 -9 44 11 14 18 23 21 45 15 41 -10 59
-43 45 -82 -14 -39 -45 -42 -98 -9 -37 23 -97 47 -118 47 -23 0 -54 -43 -47
-64 9 -28 23 -35 61 -34 25 1 39 -6 61 -32 20 -22 41 -35 67 -39 50 -8 74 -42
82 -114 4 -44 1 -65 -15 -100 -23 -49 -37 -58 -97 -63 -102 -8 -129 -4 -150
21 -12 14 -35 29 -53 34 -29 9 -34 7 -65 -30 -31 -36 -35 -38 -60 -26 -15 6
-27 17 -27 24 0 6 -9 14 -19 18 -22 7 -34 44 -25 79 4 16 15 26 35 30 31 6
139 -22 139 -37 0 -24 108 -42 111 -18 1 8 6 32 13 61 10 40 -7 53 -70 57 -32
2 -65 10 -73 17 -9 8 -36 20 -61 27 -62 17 -84 39 -82 85 1 21 6 42 12 48 5 5
10 18 10 27 0 10 10 21 23 25 12 3 30 13 39 22 41 35 193 56 204 27z"/>
<path d="M10460 3869 c0 -5 -4 -8 -9 -5 -22 14 -80 -94 -84 -156 -2 -24 0 -55
5 -70 16 -47 109 -68 147 -34 64 58 31 276 -41 276 -10 0 -18 -5 -18 -11z"/>
<path d="M14637 3883 c-21 -13 -35 -28 -32 -33 3 -5 1 -11 -3 -14 -10 -6 -4
-56 7 -57 3 0 15 -3 26 -5 68 -16 116 9 120 63 2 22 -4 32 -23 41 -14 7 -31
12 -38 12 -7 0 -14 4 -16 9 -1 5 -20 -2 -41 -16z"/>
<path d="M8553 3672 c-4 -9 -13 -23 -20 -30 -19 -20 -17 -69 5 -75 9 -2 24 -8
33 -11 19 -8 74 34 82 64 11 44 -84 95 -100 52z"/>
<path d="M1566 2804 c-41 -9 -87 -27 -112 -45 -23 -16 -46 -29 -50 -29 -21 0
-74 -55 -85 -87 -16 -49 -14 -72 7 -88 16 -11 15 -12 -10 -12 -35 0 -58 -30
-43 -58 7 -14 0 -11 -25 11 -46 40 -144 62 -184 41 -25 -13 -29 -12 -54 16
-22 25 -34 30 -65 29 -21 -1 -45 -8 -54 -16 -9 -7 -61 -30 -116 -50 -55 -20
-114 -49 -132 -64 -85 -75 -107 -190 -58 -307 28 -67 145 -202 165 -190 6 3
10 2 10 -4 0 -5 26 -15 58 -21 31 -6 76 -16 99 -21 23 -5 80 -9 126 -9 69 0
87 3 104 20 12 11 40 27 62 37 26 11 47 30 61 55 12 21 26 36 31 32 5 -3 7 -9
4 -14 -3 -5 -8 -24 -10 -43 -3 -25 2 -39 20 -59 24 -26 27 -26 156 -27 72 -1
135 -3 138 -5 3 -2 29 -6 56 -9 28 -3 63 -11 78 -16 24 -10 33 -7 63 15 40 31
54 74 55 171 1 95 -7 122 -40 129 -54 12 -59 15 -71 45 -7 16 -11 32 -8 34 3
3 28 11 57 18 33 7 53 18 57 29 3 10 9 18 13 18 4 0 5 21 1 48 -5 26 -6 50 -3
54 2 4 6 24 8 43 3 20 14 46 26 58 30 32 20 71 -44 170 -54 82 -56 84 -114
100 -70 20 -86 20 -177 1z m144 -81 c22 -10 40 -21 40 -25 0 -5 6 -8 14 -8 13
0 35 -42 25 -47 -2 -2 6 -10 19 -18 29 -21 28 -49 -4 -74 -30 -24 -46 -26 -76
-10 -16 9 -18 13 -7 19 10 7 6 16 -19 40 -43 41 -71 37 -98 -15 -20 -37 -20
-43 -7 -75 8 -19 16 -40 17 -47 4 -23 39 -53 63 -53 13 0 40 7 60 15 45 19 43
19 43 -10 0 -27 -25 -45 -62 -45 -13 0 -33 -8 -46 -18 -25 -19 -26 -25 -20
-165 3 -70 6 -80 28 -97 26 -20 60 -26 60 -11 0 10 40 3 41 -8 0 -3 2 -25 5
-48 l5 -43 -43 -2 c-24 0 -56 0 -73 1 -16 1 -73 4 -125 7 -110 6 -162 25 -155
58 2 12 4 24 4 29 1 4 7 7 14 7 13 0 39 26 55 57 6 10 9 39 8 63 -1 25 2 60 8
79 9 28 7 35 -9 47 -10 8 -32 14 -48 14 -51 0 -66 15 -65 65 0 37 4 45 19 45
11 0 19 5 19 10 0 6 7 10 15 10 23 0 19 63 -5 85 -13 12 -20 30 -20 54 1 32 6
39 45 64 49 31 110 51 125 42 6 -3 10 -2 10 4 0 23 89 26 140 4z m-666 -238
c5 -20 13 -25 37 -25 38 0 97 -24 128 -53 34 -32 65 -105 67 -161 2 -55 -12
-116 -26 -116 -6 0 -10 -9 -10 -20 0 -10 -6 -24 -12 -29 -7 -6 -32 -27 -56
-47 -27 -23 -58 -39 -85 -44 -50 -10 -188 -4 -196 7 -9 13 -60 33 -82 33 -11
0 -32 8 -47 19 -15 10 -39 26 -54 35 -63 38 -99 187 -64 264 37 81 201 155
357 161 31 1 38 -3 43 -24z m350 -253 c4 -7 -27 -42 -38 -42 -2 0 -3 11 -2 25
1 24 28 36 40 17z"/>
<path d="M904 2342 c-16 -11 -44 -73 -38 -84 3 -5 0 -15 -6 -23 -9 -11 -9 -15
-1 -15 6 0 11 -13 11 -29 0 -36 18 -91 39 -114 12 -14 25 -18 53 -14 21 3 40
1 43 -3 3 -5 19 -4 35 2 79 27 53 237 -35 273 -37 16 -83 19 -101 7z"/>
<path d="M10012 2775 c-19 -8 -46 -29 -60 -46 -15 -17 -42 -46 -59 -64 -18
-17 -34 -44 -35 -58 -1 -15 -8 -27 -15 -27 -7 0 -13 -5 -13 -10 0 -6 -10 -8
-23 -5 -13 4 -61 7 -106 9 -65 2 -86 6 -96 19 -16 22 -44 22 -60 0 -11 -14
-37 -17 -198 -18 -169 -1 -188 -3 -208 -21 -19 -17 -37 -19 -189 -19 -213 -1
-241 -13 -219 -97 4 -16 4 -41 -1 -56 -10 -38 11 -86 46 -104 20 -9 33 -29 49
-73 11 -33 29 -77 39 -97 11 -24 16 -47 12 -63 -11 -45 3 -75 34 -75 24 0 29
-5 32 -27 3 -28 4 -28 78 -30 109 -3 152 -8 178 -22 19 -10 27 -9 52 9 17 12
30 28 30 36 0 23 17 16 24 -11 8 -31 33 -38 122 -31 38 2 86 0 106 -6 29 -9
41 -8 54 3 21 18 36 57 29 80 -8 25 -55 39 -80 23 -11 -7 -42 -16 -70 -19 -62
-8 -83 6 -89 57 -6 42 -22 78 -36 78 -29 0 -62 -23 -72 -50 -9 -28 -31 -47
-68 -59 -29 -9 -164 -1 -171 10 -4 7 -20 10 -37 7 -29 -4 -30 -3 -46 58 -8 35
-26 87 -39 116 -14 29 -30 79 -38 112 -11 50 -17 60 -41 68 -21 7 -28 16 -28
36 0 14 3 22 7 19 3 -4 15 1 25 10 16 14 36 17 106 15 188 -4 215 -23 173
-115 -23 -49 -25 -63 -13 -69 11 -5 51 -91 58 -126 6 -28 11 -32 39 -32 41 0
56 17 58 72 1 23 7 48 13 53 23 20 23 55 0 78 -31 31 -54 63 -38 53 17 -10 15
9 -3 24 -19 16 -19 59 0 87 13 19 23 21 98 19 64 -1 90 -6 112 -21 17 -11 39
-25 50 -31 29 -16 30 -49 1 -87 -29 -38 -33 -69 -11 -87 8 -7 13 -16 10 -20
-6 -10 24 -42 33 -36 4 2 5 -16 4 -40 -4 -49 13 -76 45 -68 26 7 41 37 48 99
10 78 8 93 -12 130 -19 35 -25 108 -10 135 11 20 20 25 48 22 47 -3 89 -22 89
-38 0 -8 9 -14 19 -14 34 0 33 -31 -3 -89 -19 -31 -37 -74 -41 -96 -8 -50 -42
-125 -55 -125 -6 0 -10 -9 -10 -19 0 -11 -4 -22 -9 -25 -16 -10 -22 -59 -11
-86 9 -22 16 -26 38 -22 30 6 58 35 67 71 3 12 14 35 23 49 9 14 18 35 19 47
2 36 31 100 46 103 18 4 47 -24 47 -44 0 -13 -5 -16 -39 -18 -8 -1 -18 -8 -24
-17 -8 -12 -2 -27 25 -63 32 -41 35 -52 31 -89 -7 -61 -5 -90 10 -99 17 -11
60 -10 90 1 46 18 185 21 223 5 25 -11 34 -11 34 -2 0 9 3 9 12 0 7 -7 29 -12
50 -12 29 0 45 7 63 26 14 15 25 33 25 40 0 16 16 19 25 5 3 -5 29 -17 58 -27
28 -9 58 -21 65 -27 6 -5 12 -6 12 -2 0 4 7 2 15 -5 23 -19 197 -12 218 9 8 8
16 6 30 -7 16 -14 38 -17 146 -15 293 4 386 10 424 27 20 9 37 20 37 24 0 4 8
8 18 9 9 1 49 3 87 6 54 4 74 2 88 -11 9 -8 17 -20 17 -26 0 -7 17 -10 45 -8
36 3 46 8 50 26 8 31 8 77 1 109 -14 61 -15 81 -5 130 12 66 -6 98 -53 95 -31
-3 -31 -3 -44 65 -21 109 -44 146 -120 191 l-65 39 -105 -6 c-62 -4 -103 -3
-99 2 3 5 0 11 -5 13 -6 2 -13 35 -16 73 -3 39 -7 76 -9 83 -6 17 -50 15 -88
-4 -41 -22 -206 -14 -261 13 -34 16 -40 16 -64 2 -17 -9 -29 -26 -32 -44 -5
-24 -8 -27 -15 -15 -8 11 -31 15 -95 16 -47 0 -102 4 -123 8 -31 7 -40 6 -53
-10 -26 -33 -35 -65 -24 -79 8 -9 8 -15 0 -20 -6 -3 -8 -10 -5 -14 4 -7 -26
-19 -95 -37 -14 -3 -40 -23 -57 -43 l-33 -36 0 28 c0 17 -5 27 -15 27 -11 0
-15 12 -16 48 0 26 -6 69 -12 97 -10 40 -19 54 -52 77 -45 31 -75 34 -123 13z
m92 -142 c21 -61 20 -83 -2 -83 -35 0 -85 20 -109 44 -35 35 -26 69 24 89 49
19 67 9 87 -50z m652 0 c10 -21 19 -41 21 -45 2 -5 -6 -8 -19 -8 -20 0 -23 5
-26 45 -1 25 0 45 2 45 3 0 13 -17 22 -37z m260 23 c45 -2 86 -6 92 -10 16
-10 24 -79 13 -109 -8 -19 -7 -38 2 -64 10 -32 17 -38 43 -41 24 -2 38 4 60
26 23 23 41 30 89 35 51 5 65 3 90 -14 17 -11 40 -24 53 -29 12 -5 22 -16 22
-24 0 -8 7 -19 15 -23 23 -13 51 -140 37 -164 -19 -30 20 -101 46 -85 5 3 14
-6 21 -20 8 -18 8 -23 0 -18 -8 4 -9 0 -4 -15 10 -31 -5 -46 -50 -48 -22 -1
-57 -5 -77 -9 -21 -3 -46 -3 -55 1 -10 5 -26 7 -35 6 -11 -1 -19 5 -20 16 -2
30 3 67 11 78 9 12 8 56 -3 73 -4 7 -4 16 -1 22 6 9 -8 42 -27 64 -5 6 -14 19
-21 29 -17 25 -79 29 -120 7 -17 -10 -32 -22 -32 -28 0 -6 -3 -13 -6 -17 -9
-9 1 -45 13 -45 5 0 6 -4 3 -10 -3 -5 -1 -10 5 -10 8 0 7 -6 -1 -21 -9 -17 -8
-23 2 -30 8 -5 13 -21 11 -38 -3 -30 13 -42 63 -46 17 -1 19 -8 17 -36 -2 -19
-7 -38 -12 -43 -11 -11 -130 -20 -264 -19 -82 1 -112 4 -123 16 -10 9 -12 20
-7 29 5 7 9 20 9 28 2 48 18 90 35 90 25 0 31 34 25 139 -4 59 -1 108 7 143
18 72 13 94 -24 107 -17 6 -39 11 -48 11 -18 0 -30 27 -30 71 0 36 8 41 54 34
23 -3 78 -7 122 -9z m-377 -30 c6 -4 10 -31 10 -60 -1 -49 12 -94 25 -88 3 1
19 2 34 2 22 0 32 -7 41 -27 9 -19 9 -29 2 -31 -6 -2 -8 -9 -5 -14 4 -6 3 -8
-3 -5 -14 8 -96 -21 -110 -40 -8 -10 -10 -37 -6 -82 3 -36 6 -77 7 -91 1 -14
6 -40 10 -57 7 -29 11 -33 43 -33 35 0 69 22 58 39 -3 5 -1 12 5 16 6 4 8 10
5 15 -8 12 5 40 19 40 22 0 7 -121 -18 -148 -29 -31 -85 -58 -118 -57 -16 0
-28 -2 -28 -6 0 -9 -41 1 -56 13 -7 5 -16 7 -21 6 -4 -2 -27 5 -49 15 -69 31
-84 88 -48 180 17 45 10 102 -14 113 -10 3 -34 7 -55 9 -20 1 -39 4 -41 6 -4
4 -9 69 -7 106 1 16 18 31 64 57 34 20 82 54 106 76 25 23 50 44 57 48 16 9
78 7 93 -2z m-653 -147 c15 7 30 8 33 3 10 -15 48 -32 70 -32 12 0 21 -4 21
-10 0 -5 13 -10 29 -10 l29 0 4 -82 c2 -46 -1 -111 -6 -145 -8 -54 -7 -66 8
-82 23 -25 53 -32 67 -15 17 21 26 17 31 -15 3 -17 -2 -38 -11 -50 -14 -17
-26 -19 -91 -17 -41 2 -86 -1 -100 -7 -26 -10 -103 -11 -131 -2 -26 9 -30 44
-8 66 10 10 19 24 19 29 0 6 5 10 11 10 6 0 9 6 6 14 -3 8 -3 16 0 19 4 5 11
59 14 117 2 34 -6 60 -18 61 -7 1 -18 2 -24 3 -16 1 -35 62 -35 106 1 27 5 35
19 34 9 -1 17 3 17 10 0 6 4 5 9 -3 8 -12 14 -13 37 -2z m268 -61 c10 -93 26
-161 45 -181 15 -18 14 -19 -14 -15 -26 3 -31 8 -38 43 -14 66 -20 215 -9 215
6 0 13 -28 16 -62z m619 -85 c-3 -9 -9 -11 -15 -5 -5 5 -6 17 -2 26 5 13 9 14
14 5 5 -7 6 -19 3 -26z"/>
<path d="M17008 2723 c-40 -29 -45 -42 -47 -117 -1 -70 15 -136 33 -136 26 0
45 -57 52 -155 6 -88 -7 -111 -59 -101 -51 10 -61 26 -42 71 12 30 13 46 5 77
-6 21 -17 41 -25 44 -7 3 -16 17 -20 31 -3 14 -28 47 -56 73 -48 46 -51 47
-143 59 -84 11 -117 10 -191 -6 -11 -2 -33 -7 -50 -9 -37 -7 -85 -55 -112
-114 -45 -97 -65 -149 -59 -159 4 -5 2 -12 -3 -16 -5 -3 -8 -14 -6 -25 5 -25
-3 -25 -33 0 -21 18 -23 28 -28 181 -6 172 -11 189 -54 181 -28 -5 -116 -7
-175 -5 -79 4 -170 -3 -191 -15 -12 -6 -46 -11 -75 -9 -30 1 -83 -2 -119 -6
-40 -5 -76 -4 -92 2 -24 9 -30 6 -52 -20 -29 -34 -28 -32 -26 -109 1 -30 -3
-66 -8 -80 l-10 -25 -9 30 c-11 41 -68 149 -85 162 -7 6 -35 15 -63 21 -74 16
-212 -14 -236 -50 -3 -5 -9 3 -12 19 -3 15 -18 43 -34 61 -24 27 -36 33 -80
36 -51 3 -197 -14 -257 -29 -19 -5 -31 -4 -36 6 -7 11 -29 11 -127 0 -65 -7
-142 -14 -171 -15 -32 -1 -57 -7 -61 -15 -5 -8 -8 -60 -6 -116 2 -88 5 -108
24 -134 13 -17 27 -29 32 -26 5 4 9 2 9 -3 0 -5 9 -12 20 -15 17 -4 20 -14 20
-66 0 -56 -2 -62 -25 -71 -15 -6 -25 -17 -25 -30 0 -11 -7 -20 -15 -20 -8 0
-15 5 -15 10 0 18 -18 11 -25 -10 -8 -27 11 -60 36 -60 16 0 20 -6 18 -27 -3
-40 10 -71 33 -79 33 -10 723 -5 723 5 0 1 42 3 93 5 51 2 99 9 106 15 8 7 53
11 114 10 109 -2 140 10 129 51 -3 12 -1 18 5 14 6 -4 8 1 3 15 -3 12 -8 53
-9 92 -3 72 -11 89 -47 89 -11 0 -18 11 -21 30 -3 17 -3 30 -2 30 2 0 15 -5
30 -10 18 -7 29 -7 33 -1 4 6 12 6 21 1 10 -6 13 -23 11 -57 -8 -123 -9 -118
25 -116 29 3 32 0 38 -31 5 -27 14 -37 39 -47 18 -6 36 -12 40 -13 4 -1 11 -5
15 -11 4 -5 14 -11 22 -12 27 -3 75 -14 105 -23 17 -5 65 -8 107 -7 63 2 80
-1 89 -15 7 -9 16 -15 20 -12 4 2 10 0 14 -5 6 -11 55 6 55 19 0 10 25 13 137
14 56 0 104 4 108 8 4 4 10 22 14 40 l7 33 18 -33 c9 -18 22 -32 29 -30 7 1
30 -2 52 -7 22 -4 44 -7 49 -6 4 1 13 -2 20 -6 13 -10 26 -9 82 1 25 4 59 3
83 -4 32 -8 51 -8 89 3 79 24 122 45 122 60 0 8 7 17 15 21 8 3 15 12 15 21 0
8 5 15 10 15 7 0 8 -13 4 -35 -5 -28 -1 -40 18 -63 l24 -29 46 18 c25 10 58
16 74 14 81 -9 412 -24 537 -24 21 0 50 5 65 10 15 6 44 11 64 11 29 -1 43 6
62 29 22 25 24 33 13 49 -6 11 -15 20 -19 20 -4 0 -5 35 -3 78 5 85 -8 113
-55 125 -27 7 -50 59 -50 114 -1 41 -35 132 -58 155 -19 19 -47 24 -112 19
-14 -1 -44 0 -67 3 -30 4 -46 1 -57 -9 -20 -21 -31 -19 -46 9 -10 19 -10 32
-2 53 20 54 22 80 7 93 -17 14 -119 17 -182 6 -34 -5 -55 -2 -103 17 l-60 24
-32 -24z m162 -89 c41 -3 83 -6 93 -5 9 0 17 -5 17 -10 0 -6 4 -8 9 -4 16 9
17 -35 4 -115 -11 -74 -11 -75 13 -97 14 -13 29 -23 33 -23 4 0 22 16 40 35
17 19 37 35 44 36 6 0 21 2 32 4 113 19 121 18 148 -9 25 -25 58 -79 57 -91
-1 -3 2 -25 5 -49 4 -26 2 -52 -4 -65 -15 -28 11 -81 39 -81 34 0 57 -57 51
-127 -1 -17 -60 -16 -91 2 -14 8 -43 14 -66 15 -22 0 -44 3 -48 8 -4 4 -13 7
-19 7 -18 0 -30 82 -20 140 12 67 -6 107 -65 140 -41 23 -43 23 -72 7 -17 -9
-28 -22 -26 -29 3 -6 -1 -13 -7 -16 -19 -7 -12 -144 8 -163 17 -17 63 -12 78
9 5 7 6 -6 2 -28 -3 -22 -6 -48 -7 -57 -1 -9 -6 -15 -9 -12 -4 2 -10 0 -13 -4
-3 -5 -34 -10 -68 -11 -138 -6 -217 0 -271 20 -31 11 -37 17 -33 34 3 11 6 28
6 37 0 10 15 24 35 34 51 24 59 45 50 128 -5 39 -9 108 -9 154 -1 69 -4 85
-19 94 -10 5 -24 7 -32 4 -21 -8 -38 20 -30 51 9 39 23 52 48 47 12 -2 56 -6
97 -10z m-2275 -108 c11 -3 23 -5 28 -5 4 -1 7 -7 7 -15 0 -7 7 -26 15 -42 10
-20 11 -30 3 -35 -7 -5 -5 -17 8 -38 29 -48 85 -41 95 13 8 39 54 60 132 61
88 0 113 -15 153 -94 29 -57 35 -131 13 -158 -6 -7 -8 -13 -3 -13 4 0 3 -5 -3
-11 -15 -15 -5 -46 23 -64 13 -8 24 -12 25 -8 1 5 4 -3 8 -17 10 -33 4 -47
-27 -63 -41 -19 -118 -5 -154 30 -26 24 -28 32 -22 63 9 40 8 63 -1 135 -5 44
-11 54 -38 70 -88 53 -146 13 -145 -97 0 -41 24 -98 40 -98 4 0 8 -6 8 -14 0
-8 7 -17 16 -20 9 -4 12 -11 8 -18 -5 -7 -7 -25 -6 -39 3 -25 0 -27 -55 -35
-32 -5 -101 -9 -153 -9 l-95 0 3 34 c2 19 -2 44 -9 57 -10 19 -9 31 4 66 20
54 13 156 -12 175 -32 24 -61 24 -89 2 -25 -20 -27 -26 -27 -104 0 -46 3 -81
7 -79 4 2 9 -5 13 -16 3 -11 12 -20 20 -20 10 0 13 -13 12 -45 -1 -31 3 -49
13 -55 29 -18 -4 -24 -138 -25 -169 -2 -194 3 -206 37 -7 21 -4 31 17 54 33
36 41 74 35 171 -4 59 -9 79 -24 90 -10 7 -24 11 -30 9 -29 -11 -73 71 -60
112 8 25 126 62 197 62 36 0 36 -1 42 -46 5 -51 19 -66 57 -62 19 2 26 11 33
38 10 43 30 57 94 66 26 3 49 7 50 8 3 2 98 -4 118 -8z m1183 -8 c41 -1 53 -5
58 -20 3 -10 9 -18 13 -18 15 0 24 -205 12 -243 -9 -25 -9 -42 -1 -63 13 -34
26 -44 61 -44 39 0 56 -64 24 -90 -18 -15 -87 -23 -131 -15 -27 5 -32 11 -38
44 -3 21 -13 41 -21 45 -27 10 -73 -5 -78 -26 -3 -11 -10 -17 -15 -14 -6 3
-16 -7 -23 -22 -11 -25 -17 -28 -53 -26 -23 1 -53 6 -67 12 -15 6 -30 8 -33 5
-3 -4 -6 1 -6 11 0 9 -6 16 -12 15 -25 -5 -118 13 -125 23 -3 6 -6 23 -7 37
-1 32 -27 35 -41 4 -11 -27 -30 -31 -20 -5 13 34 21 108 14 141 -4 21 -22 47
-48 70 -38 34 -41 39 -38 86 1 28 7 50 12 50 6 0 16 4 23 8 7 5 52 13 101 20
98 12 110 8 136 -42 17 -35 45 -200 45 -272 0 -49 3 -59 25 -73 47 -31 105 16
127 103 21 83 20 90 -6 115 -14 13 -26 28 -26 33 0 13 -49 23 -56 12 -3 -5
-10 -9 -16 -9 -17 0 -2 80 19 95 10 7 18 21 18 31 0 22 37 34 85 28 20 -3 59
-6 88 -6z m669 -54 c12 -13 29 -24 38 -24 9 0 26 -10 39 -23 67 -67 62 -137
-8 -137 -42 0 -56 16 -56 61 0 21 -5 41 -10 44 -6 4 -8 15 -5 26 4 13 2 19 -9
19 -9 0 -15 3 -15 8 4 23 -2 34 -13 26 -7 -5 -22 -9 -33 -9 -21 1 -45 -17 -45
-32 0 -5 -8 -18 -18 -29 -24 -26 -44 -101 -38 -144 3 -19 5 -47 5 -61 1 -15
16 -42 39 -67 35 -38 41 -40 86 -37 42 2 53 8 82 40 27 31 35 35 40 22 4 -11
18 -17 37 -17 30 0 30 0 11 -21 -18 -20 -57 -42 -79 -44 -5 -1 -26 -6 -45 -12
-19 -6 -57 -14 -85 -18 -27 -4 -61 -8 -75 -10 -41 -7 -130 7 -145 21 -7 8 -18
14 -24 14 -15 0 -39 40 -48 80 -18 82 4 215 42 256 5 6 17 21 25 34 24 34 69
53 145 59 98 8 136 2 162 -25z m-44 -204 c21 -57 21 -66 0 -74 -28 -11 -55 29
-56 83 -1 90 21 86 56 -9z"/>
<path d="M7660 2732 c0 -5 -70 -9 -156 -10 -86 -1 -160 -5 -165 -8 -5 -3 -9 0
-9 6 0 23 -39 -11 -50 -44 -9 -29 -8 -40 15 -81 14 -27 25 -49 25 -50 0 -5
-56 8 -65 15 -9 6 -34 6 -95 -1 -8 -1 -19 -5 -25 -9 -5 -4 -25 -11 -43 -15
-46 -10 -92 -51 -92 -83 -1 -15 -6 -37 -13 -50 -12 -22 -14 -21 -31 27 -13 38
-30 59 -77 96 -32 25 -59 44 -59 40 0 -3 -13 1 -30 10 -16 9 -30 14 -30 11 0
-2 -26 2 -57 9 -53 12 -67 11 -178 -12 -66 -14 -127 -32 -136 -39 -8 -8 -21
-14 -27 -14 -7 0 -12 -6 -12 -14 0 -8 -13 -23 -29 -32 -16 -9 -40 -34 -52 -55
-13 -21 -27 -39 -31 -39 -3 0 -9 -13 -13 -30 -9 -41 -21 -45 -28 -10 -8 40
-101 136 -146 152 -48 16 -41 15 -125 17 l-75 1 -7 48 c-3 26 -12 62 -20 80
-11 28 -18 32 -49 32 -124 0 -265 9 -283 19 -53 28 -92 -1 -94 -70 -1 -24 2
-57 6 -72 6 -27 -11 -97 -24 -97 -3 0 -29 23 -58 50 -42 40 -64 53 -105 61
-29 6 -60 16 -70 21 -10 5 -47 12 -83 15 -121 11 -226 -40 -304 -147 -14 -18
-35 -45 -46 -59 -23 -28 -32 -62 -36 -128 -1 -24 -5 -43 -9 -43 -7 0 -13 30
-24 120 -3 25 -8 57 -11 71 -6 32 -52 75 -102 97 -50 21 -185 21 -234 -1 -36
-15 -39 -15 -84 9 -50 27 -68 29 -154 19 -63 -7 -107 -22 -132 -43 -20 -16
-38 -8 -38 17 0 38 -24 44 -102 26 -40 -9 -104 -19 -143 -21 -51 -4 -74 -10
-87 -24 -10 -10 -25 -23 -34 -28 -9 -5 -18 -21 -19 -36 -2 -15 -7 -31 -11 -34
-4 -4 -4 1 -1 11 5 12 1 17 -13 17 -11 0 -20 6 -20 13 0 21 -47 57 -119 89
-55 25 -80 30 -151 31 -156 3 -219 -7 -289 -44 -35 -18 -65 -39 -68 -45 -3 -7
-11 -10 -19 -7 -9 3 -14 0 -12 -7 2 -7 -3 -15 -9 -17 -12 -4 -18 24 -16 75 1
6 -2 12 -7 12 -4 0 -12 11 -18 24 -14 31 -45 41 -74 25 -13 -7 -27 -14 -33
-15 -5 0 -14 -2 -20 -4 -26 -6 -42 -5 -62 7 -11 7 -30 10 -41 8 -11 -2 -46 -5
-78 -6 -92 -4 -173 -41 -248 -112 -42 -39 -46 -47 -48 -92 0 -28 2 -61 6 -75
5 -20 0 -31 -27 -57 -42 -41 -45 -80 -12 -140 14 -23 27 -64 29 -90 2 -27 8
-56 11 -66 11 -26 60 -48 101 -45 20 1 39 -3 43 -10 8 -13 88 -29 126 -26 105
8 200 39 240 79 44 44 105 136 105 160 0 8 5 15 10 15 10 0 14 -13 11 -37 -1
-6 3 -14 9 -18 5 -3 8 -16 4 -29 -7 -29 23 -66 56 -70 14 -1 41 -12 60 -24 19
-12 43 -23 53 -23 20 -2 16 -1 86 -18 65 -16 255 -10 292 9 13 7 31 21 40 32
9 10 21 18 26 18 15 0 63 76 63 99 0 29 17 35 24 8 3 -12 6 -49 6 -83 l0 -61
42 -12 c23 -7 105 -15 182 -17 78 -2 173 -6 211 -8 140 -9 289 -6 418 8 59 7
124 28 164 54 38 24 109 26 132 5 29 -27 99 -19 113 13 12 26 28 32 28 12 0
-16 59 -57 90 -63 12 -2 27 -8 34 -13 17 -13 176 -34 216 -29 19 3 57 15 83
26 26 12 59 23 72 24 38 3 97 74 122 148 19 54 21 79 17 158 -2 52 -11 116
-19 143 -11 37 -11 48 -2 44 7 -3 20 -9 29 -12 43 -15 73 -229 47 -340 -13
-59 -6 -113 19 -143 15 -18 22 -20 51 -12 55 17 157 23 194 13 31 -9 38 -7 58
14 27 29 39 30 89 4 22 -11 51 -20 65 -20 14 0 42 9 62 20 21 11 45 20 54 20
37 0 106 97 124 174 l6 29 20 -32 c10 -17 19 -42 19 -56 0 -32 103 -135 135
-135 8 0 15 -4 15 -10 0 -5 6 -10 13 -10 8 0 28 -7 46 -16 25 -13 48 -15 104
-10 40 4 94 7 120 6 32 0 67 8 100 23 29 14 68 30 87 36 31 10 75 58 111 121
8 15 19 10 23 -12 13 -62 123 -214 149 -205 7 2 26 -6 42 -18 36 -27 85 -25
154 7 25 11 60 22 77 23 18 2 42 9 54 15 12 6 24 9 27 7 2 -3 19 1 37 8 21 9
51 12 85 8 44 -5 58 -2 83 17 l30 22 -7 -22 c-4 -13 -9 -45 -10 -73 -3 -45 1
-57 35 -107 29 -42 53 -64 97 -87 62 -33 160 -50 192 -34 9 5 35 12 57 14 55
6 86 21 108 52 11 15 32 33 47 40 18 10 29 25 33 49 4 19 15 45 25 57 29 39
52 91 62 142 5 27 17 61 27 75 11 15 24 43 31 62 18 54 37 77 86 101 l45 23
-1 80 c-1 45 1 104 6 133 11 75 -5 88 -125 98 -113 11 -144 11 -167 1 -15 -6
-27 -5 -37 3 -8 7 -24 10 -35 6 -10 -3 -22 -1 -26 5 -4 7 -23 8 -53 3 -26 -4
-116 -6 -199 -4 -133 2 -154 1 -159 -13 -8 -21 -19 -20 -21 2 -6 68 -33 158
-53 174 -24 19 -40 23 -40 10z m-40 -102 c0 -5 3 -9 8 -9 19 3 33 -2 27 -11
-3 -5 -2 -10 4 -10 12 0 -5 -45 -27 -71 -11 -14 -11 -25 2 -70 18 -64 30 -235
18 -243 -19 -11 3 -71 31 -84 15 -7 32 -22 38 -34 13 -24 3 -88 -14 -89 -13
-1 -19 -2 -89 -18 -49 -11 -89 -3 -104 20 -5 8 -3 10 6 4 24 -15 5 18 -22 38
-23 17 -30 18 -55 7 -33 -15 -76 -65 -78 -91 -2 -25 -9 -31 -58 -50 -37 -14
-45 -15 -77 -2 -53 23 -148 126 -160 176 -6 23 -15 50 -20 59 -6 10 -8 47 -4
85 3 37 7 86 8 108 6 78 54 116 122 94 14 -5 26 -1 37 12 19 22 39 23 122 8
115 -21 113 -21 126 21 14 46 7 70 -21 70 -20 0 -70 37 -70 51 0 4 7 15 16 23
12 13 39 16 125 16 66 0 109 -4 109 -10z m-1903 -36 c28 -8 54 -21 56 -28 3
-8 4 -40 2 -72 -2 -42 2 -64 13 -76 18 -21 68 -24 75 -4 9 23 110 19 163 -5
24 -12 44 -25 44 -29 0 -4 9 -10 20 -13 11 -3 20 -13 20 -24 0 -10 6 -26 14
-35 21 -28 19 -117 -4 -191 -18 -60 -26 -70 -54 -82 -18 -8 -38 -21 -46 -29
-7 -9 -19 -16 -27 -16 -15 0 -129 54 -149 71 -25 21 -75 17 -100 -8 -13 -13
-24 -27 -24 -31 0 -17 -44 -32 -90 -31 -74 3 -79 13 -67 133 16 158 -24 367
-72 374 -22 4 -27 30 -15 90 l6 30 92 -5 c50 -2 114 -11 143 -19z m-575 -90
c7 -5 18 -9 23 -9 22 -2 65 -25 65 -35 0 -5 8 -10 18 -10 16 0 62 -59 62 -80
0 -5 3 -10 8 -10 12 0 32 -52 32 -84 0 -35 -8 -49 -30 -55 -44 -11 -217 -3
-267 13 -17 5 -27 -1 -49 -30 l-28 -36 22 -42 c24 -45 96 -96 137 -96 28 0
105 64 105 87 0 11 10 13 48 8 56 -7 82 -14 82 -23 0 -4 -17 -26 -38 -48 -44
-49 -106 -83 -165 -90 -70 -9 -138 -10 -143 -2 -3 4 -16 8 -30 8 -13 0 -24 5
-24 10 0 6 -11 10 -23 10 -25 0 -88 41 -123 81 -36 41 -59 117 -59 197 0 60 3
75 18 83 9 6 17 16 17 23 0 23 104 121 141 133 37 12 180 10 201 -3z m1575 5
c27 -7 57 -16 69 -21 30 -14 74 -53 74 -67 0 -6 3 -11 8 -11 4 0 13 -15 20
-32 7 -18 18 -42 24 -53 7 -11 14 -57 16 -102 4 -70 1 -88 -18 -127 -12 -25
-26 -46 -32 -46 -6 0 -20 -10 -32 -22 -12 -13 -33 -29 -48 -37 -15 -8 -37 -23
-49 -34 -16 -15 -23 -17 -29 -7 -6 9 -31 12 -85 11 -58 -2 -86 3 -118 18 -23
10 -68 31 -101 45 -72 33 -80 41 -112 111 -19 41 -24 65 -20 88 4 18 9 50 11
72 3 22 7 49 10 61 6 27 99 119 133 132 87 32 198 40 279 21z m-4179 -27 c7
-1 10 -6 7 -12 -3 -5 1 -10 9 -10 9 0 16 -6 16 -14 0 -16 39 -29 54 -17 21 16
56 20 56 6 0 -8 7 -20 15 -29 10 -9 13 -24 10 -39 -6 -21 -12 -24 -48 -23 -26
1 -41 5 -40 13 3 12 -64 42 -110 50 -40 6 -77 -20 -77 -55 0 -39 16 -53 47
-41 21 8 29 5 49 -18 13 -16 24 -31 24 -35 0 -5 16 -8 37 -8 57 0 120 -78 102
-127 -15 -41 -99 -133 -121 -133 -8 0 -23 -8 -34 -17 -12 -12 -40 -19 -77 -21
-56 -4 -58 -3 -68 27 -6 17 -19 35 -28 40 -18 10 -70 3 -89 -12 -9 -7 -18 -2
-35 19 -28 36 -39 72 -24 81 33 20 137 0 137 -26 0 -6 6 -11 13 -11 7 0 17 -8
24 -19 16 -25 56 -31 80 -12 75 62 55 156 -37 181 -25 7 -56 18 -70 25 -14 7
-41 19 -60 26 -77 28 -91 78 -37 132 19 18 49 39 68 46 19 7 44 18 56 23 12 6
28 8 35 6 7 -3 21 -2 31 1 16 6 49 7 85 3z m687 -7 c73 -16 205 -108 205 -143
0 -6 4 -12 9 -12 5 0 11 -18 13 -40 2 -22 0 -40 -3 -40 -4 0 -10 -21 -13 -47
-10 -87 -12 -98 -23 -118 -11 -20 -58 -65 -69 -65 -3 0 -12 -7 -20 -15 -9 -8
-27 -16 -42 -16 -15 -1 -36 -3 -47 -5 -49 -7 -192 -12 -217 -7 -25 5 -88 58
-131 109 -12 15 -23 58 -33 132 -14 108 -14 112 7 149 29 53 45 69 87 89 79
38 188 49 277 29z m4518 -52 c-1 -38 -2 -75 -3 -82 0 -10 -3 -12 -10 -5 -16
16 -15 135 1 145 8 5 14 9 14 9 0 0 -1 -30 -2 -67z m304 53 c90 -4 118 -20
121 -70 2 -20 -1 -36 -6 -36 -21 0 -68 -56 -66 -79 1 -25 40 -65 54 -56 4 2
13 -15 20 -38 23 -79 28 -87 55 -87 36 0 53 20 71 82 29 97 29 124 2 150 -26
24 -51 84 -42 99 20 33 100 46 144 24 27 -14 70 -60 70 -74 0 -5 6 -11 14 -14
11 -4 13 -14 7 -33 -7 -29 -9 -30 -78 -62 -23 -10 -40 -22 -36 -26 3 -3 1 -6
-6 -6 -7 0 -9 -4 -6 -10 3 -5 2 -10 -3 -10 -5 0 -8 -19 -7 -42 1 -24 -2 -49
-7 -55 -6 -7 -11 -28 -12 -46 -2 -18 -15 -59 -29 -91 -15 -32 -27 -67 -27 -77
0 -11 -4 -19 -9 -19 -5 0 -12 -13 -16 -28 -3 -15 -17 -36 -30 -46 -14 -10 -25
-24 -25 -30 -1 -28 -48 -64 -106 -79 -63 -18 -164 -16 -187 3 -7 5 -26 21 -43
35 -44 34 -59 75 -48 128 9 41 9 42 57 45 51 4 87 -15 87 -45 0 -8 4 -11 10
-8 5 3 7 0 4 -8 -3 -8 -1 -18 4 -21 5 -3 8 -17 7 -30 -5 -43 81 -62 99 -21 14
32 15 47 4 68 -7 15 -7 18 2 12 9 -6 9 -3 1 13 -6 11 -11 32 -11 46 0 14 -5
26 -11 26 -6 0 -9 7 -5 15 3 8 0 18 -7 22 -13 9 -49 69 -46 78 2 11 -63 165
-71 165 -4 0 -15 27 -25 60 -20 68 -27 74 -70 75 -29 0 -30 2 -30 43 -1 28 4
42 12 42 7 0 13 4 13 9 0 14 29 19 85 14 28 -3 82 -6 122 -7z m-4245 -33 c10
-9 18 -26 18 -38 0 -13 8 -33 18 -45 15 -18 21 -20 45 -11 15 6 31 21 36 35
17 43 61 65 137 67 73 3 117 -12 108 -35 -9 -23 25 -66 52 -66 24 0 64 31 64
51 0 5 4 8 8 5 5 -3 16 3 25 14 23 28 101 37 143 16 19 -9 43 -16 53 -16 34 0
64 -57 64 -122 0 -16 4 -28 10 -28 7 0 7 -4 -1 -12 -13 -13 -16 -87 -4 -103
17 -24 58 -43 74 -34 19 11 31 -3 33 -39 1 -25 -11 -39 -35 -39 -8 -1 -47 -3
-87 -7 -40 -3 -84 -1 -98 4 -25 9 -25 11 -25 124 0 70 -4 117 -11 121 -5 4 -8
12 -6 18 5 15 -29 41 -68 54 -22 7 -37 6 -55 -4 -14 -7 -21 -13 -16 -13 5 0 2
-8 -7 -18 -9 -10 -20 -43 -25 -73 -6 -44 -5 -60 10 -86 10 -18 14 -33 10 -33
-4 0 -1 -4 7 -9 8 -5 16 -22 18 -37 2 -15 11 -36 19 -48 8 -11 14 -28 14 -38
0 -19 -1 -19 -120 -23 -27 0 -52 -3 -55 -6 -8 -8 -119 1 -128 10 -5 5 -5 17 0
27 5 11 7 35 6 54 -2 28 -7 126 -12 238 -1 6 -7 12 -15 12 -7 0 -19 6 -25 14
-7 8 -23 13 -37 12 -30 -3 -76 -45 -70 -63 3 -7 2 -13 -2 -13 -4 0 -6 -19 -4
-42 4 -43 43 -97 70 -98 15 0 16 -46 2 -55 -8 -5 -8 -11 0 -20 8 -10 8 -21 -3
-41 -14 -26 -16 -27 -98 -25 -225 6 -209 4 -235 34 -15 18 -24 41 -24 63 0 30
4 35 28 40 37 8 54 53 46 120 -8 59 -28 94 -54 94 -15 0 -20 7 -20 29 0 16 -3
36 -6 44 -4 10 8 18 43 28 117 32 159 35 185 12z m4008 -176 c17 0 62 -32 54
-39 -5 -5 9 -35 37 -78 9 -14 19 -42 22 -62 6 -40 1 -44 -57 -47 -16 0 -36 -7
-44 -14 -13 -10 -15 -9 -9 5 3 9 -1 22 -9 29 -9 7 -12 19 -8 28 3 9 7 26 8 38
1 12 5 25 8 28 4 4 5 12 3 18 -2 7 -6 24 -9 40 -4 17 -13 27 -24 27 -19 0 -42
18 -42 33 0 5 12 6 28 2 15 -4 34 -8 42 -8z m-4240 -50 c0 -27 -19 -57 -35
-57 -11 0 -15 13 -15 49 0 49 0 49 25 38 14 -7 25 -20 25 -30z"/>
<path d="M7313 2346 c-13 -6 -23 -13 -23 -17 0 -3 -9 -17 -21 -30 -18 -20 -20
-32 -15 -79 9 -85 24 -130 44 -130 10 0 23 -5 29 -11 15 -15 48 3 70 39 10 15
23 33 30 39 6 7 15 39 19 70 6 50 4 59 -13 73 -11 9 -23 25 -27 36 -7 22 -57
28 -93 10z"/>
<path d="M5838 2328 c-33 -11 -58 -78 -58 -153 0 -66 17 -89 67 -91 54 -2 67
2 85 34 32 54 28 138 -9 179 -34 37 -50 43 -85 31z"/>
<path d="M5089 2406 c-13 -6 -33 -19 -44 -29 -21 -19 -30 -63 -14 -72 5 -4 7
-11 4 -16 -4 -5 6 -14 20 -19 33 -13 48 -13 40 0 -4 7 2 7 18 1 29 -11 51 1
70 39 26 51 -40 119 -94 96z"/>
<path d="M6563 2376 c-13 -6 -24 -18 -24 -26 -1 -16 -4 -32 -8 -40 -1 -3 -4
-36 -7 -74 -3 -52 0 -78 13 -107 20 -41 37 -50 80 -40 66 15 95 58 89 137 -6
80 -32 130 -79 149 -20 8 -38 14 -40 14 -1 -1 -12 -6 -24 -13z"/>
<path d="M3104 2392 c-24 -15 -35 -56 -39 -134 -5 -109 10 -184 39 -192 56
-15 91 -2 117 44 14 27 20 215 7 249 -8 24 -45 36 -62 22 -10 -9 -15 -8 -20 4
-6 16 -24 19 -42 7z"/>
<path d="M12115 2714 c-10 -7 -21 -15 -25 -16 -19 -8 -19 -46 0 -68 24 -27 25
-34 6 -49 -22 -19 -99 -57 -128 -65 -21 -5 -28 -12 -28 -31 0 -14 5 -25 12
-25 7 0 5 -7 -4 -17 -27 -30 -43 -99 -30 -128 6 -14 18 -25 27 -25 8 0 15 -4
15 -10 0 -6 5 -9 12 -8 13 3 48 -89 41 -108 -6 -16 15 -105 35 -143 9 -19 27
-44 40 -57 12 -13 22 -30 22 -38 0 -9 21 -25 46 -36 40 -19 50 -20 82 -8 20 7
55 11 77 10 25 -2 55 5 80 18 21 11 45 20 52 20 15 0 59 58 55 73 -3 11 17 -3
63 -44 36 -32 100 -49 235 -64 62 -7 183 15 240 43 51 25 148 110 151 132 1 6
2 13 3 18 1 4 6 27 10 51 l8 44 23 -47 c65 -136 122 -186 214 -191 32 -2 68
-8 79 -14 34 -18 165 4 241 41 26 12 51 23 56 23 20 0 43 21 76 70 53 76 62
105 57 187 -4 83 -27 139 -84 206 -69 80 -120 109 -234 133 -96 19 -106 20
-131 5 -15 -9 -47 -17 -73 -17 -33 -2 -51 -8 -68 -26 -12 -12 -26 -23 -32 -24
-20 -1 -59 -60 -68 -105 -7 -33 -17 -48 -34 -56 -13 -6 -26 -20 -30 -30 -6
-19 -7 -19 -25 -2 -10 9 -19 28 -19 41 0 50 -83 165 -108 149 -5 -3 -26 7 -46
23 -29 23 -52 31 -102 36 -76 9 -107 5 -226 -28 -48 -14 -89 -23 -92 -20 -2 2
-17 -2 -34 -11 -17 -9 -33 -11 -38 -6 -5 5 -40 10 -79 12 l-70 3 -3 73 c-2 41
-8 79 -14 85 -6 8 -36 11 -78 9 -43 -2 -79 2 -102 11 -29 12 -37 12 -53 1z
m163 -97 c10 -11 14 -33 13 -73 -1 -73 18 -108 52 -93 16 7 34 6 62 -3 33 -11
41 -18 43 -41 2 -16 -1 -34 -7 -40 -10 -13 -55 -21 -101 -19 -14 1 -34 2 -44
2 -45 2 -57 -62 -27 -154 11 -36 21 -81 21 -100 0 -51 25 -61 70 -29 67 49 81
80 64 148 -6 27 -5 29 9 17 21 -18 20 -183 -1 -190 -7 -2 -21 -12 -30 -22 -29
-29 -54 -36 -132 -36 -53 1 -74 5 -73 13 2 7 -4 10 -12 7 -9 -4 -22 6 -35 28
-11 18 -20 29 -20 23 -1 -5 -9 7 -20 28 -25 50 -33 130 -18 178 16 54 0 89
-41 89 -39 0 -62 36 -54 84 4 24 11 36 22 36 9 0 31 14 50 30 18 17 38 30 42
30 5 0 25 25 46 56 34 52 39 55 71 51 19 -3 41 -12 50 -20z m1362 -102 c17 -9
30 -13 30 -10 0 7 72 -36 101 -60 34 -28 79 -91 79 -109 0 -9 4 -16 8 -16 16
0 32 -50 26 -82 -11 -69 -29 -114 -53 -136 -26 -22 -79 -51 -103 -56 -7 -2
-21 -6 -30 -11 -10 -4 -24 -5 -32 -2 -7 3 -18 1 -23 -4 -24 -24 -237 -10 -280
18 -23 15 -89 102 -81 107 1 1 16 7 31 14 15 7 26 15 24 20 -3 4 -1 16 3 27 4
12 0 31 -12 50 -10 16 -18 40 -18 53 0 22 36 112 49 122 3 3 11 14 17 25 6 11
32 27 57 36 26 8 50 19 54 22 12 13 124 7 153 -8z m-657 -42 c52 -29 71 -47
84 -75 9 -21 20 -38 25 -38 4 0 15 -17 24 -37 21 -50 15 -197 -11 -239 -28
-47 -111 -92 -185 -99 -174 -18 -235 -15 -243 14 -2 9 -25 27 -50 40 -26 13
-47 30 -47 38 0 10 -6 12 -20 8 -16 -5 -22 0 -31 22 -14 35 -6 167 10 187 7 8
14 30 16 48 10 76 16 102 27 116 29 34 146 60 253 57 72 -3 87 -7 148 -42z
m232 -273 c3 -5 1 -10 -4 -10 -6 0 -11 5 -11 10 0 6 2 10 4 10 3 0 8 -4 11
-10z m-855 -26 c0 -8 -4 -14 -10 -14 -5 0 -10 9 -10 21 0 11 5 17 10 14 6 -3
10 -13 10 -21z"/>
<path d="M13509 2370 c-13 -10 -20 -19 -15 -20 5 0 3 -6 -3 -14 -27 -33 29
-218 69 -231 56 -18 117 42 127 124 5 41 1 56 -23 97 -15 27 -33 52 -39 56
-21 16 -93 8 -116 -12z"/>
<path d="M12800 2392 c-29 -24 -43 -102 -25 -152 7 -19 15 -61 19 -93 7 -50
11 -59 37 -72 27 -15 31 -14 59 6 43 33 65 151 39 216 -6 15 -16 39 -21 53 -6
14 -14 32 -18 40 -11 23 -63 24 -90 2z"/>
<path d="M11150 1260 c-8 -5 -53 -10 -100 -9 -47 0 -92 -2 -101 -6 -10 -3 -20
-2 -24 4 -3 6 -15 11 -25 11 -37 0 -67 -99 -38 -128 14 -14 16 -13 -54 -14
-64 -1 -144 -37 -160 -73 -6 -14 -16 -25 -22 -25 -20 0 -55 -68 -58 -110 -1
-23 -5 -43 -8 -45 -3 -2 -7 -25 -9 -52 -1 -26 -6 -52 -12 -58 -9 -9 -10 -9
-14 35 -4 33 -33 137 -45 160 -11 21 -43 60 -90 111 l-36 38 -44 -20 c-25 -12
-62 -22 -82 -24 -21 -3 -50 -10 -65 -18 -16 -7 -44 -14 -63 -15 -30 -2 -37 2
-50 31 -12 25 -20 31 -40 30 -14 -2 -69 -3 -123 -4 -53 -1 -100 -6 -103 -10
-3 -5 -13 -9 -23 -9 -10 0 -26 -9 -35 -19 -16 -17 -16 -26 -6 -76 8 -38 9 -60
2 -67 -7 -7 -5 -21 4 -44 8 -18 10 -35 6 -38 -13 -8 -63 6 -68 19 -3 7 -13 11
-22 9 -24 -6 -42 8 -47 37 -3 13 -9 48 -15 76 -11 64 -43 110 -90 129 -22 10
-83 17 -160 20 l-125 5 -65 -35 c-85 -45 -121 -99 -123 -184 -1 -52 2 -63 31
-99 l32 -41 -41 -51 c-22 -28 -42 -51 -43 -51 -1 0 -2 18 -3 41 -2 52 -19 72
-55 67 -33 -5 -32 -7 -53 131 -19 125 -35 156 -99 187 -69 34 -120 31 -217
-10 -23 -10 -28 17 -18 89 9 69 2 79 -51 70 -53 -9 -207 -11 -275 -3 -71 9
-95 -3 -94 -48 1 -16 2 -67 3 -114 1 -47 5 -91 9 -97 4 -6 21 -14 37 -18 l31
-7 -2 -88 c-1 -88 -2 -89 -28 -92 -39 -5 -51 -48 -26 -95 16 -29 20 -56 20
-132 0 -53 4 -102 8 -108 11 -17 52 -17 69 0 16 14 29 18 83 24 22 2 56 9 75
14 19 5 52 9 72 9 20 0 44 7 53 16 12 12 19 13 29 5 19 -16 55 -8 83 19 27 26
54 28 133 11 30 -7 66 -14 80 -16 14 -2 42 -11 62 -19 40 -17 63 -13 73 12 6
16 8 15 20 -2 24 -32 178 -58 288 -47 138 13 168 13 218 0 39 -10 57 -9 115 6
38 10 77 22 88 28 12 6 21 6 25 0 12 -18 78 -21 147 -6 118 25 152 27 180 8
14 -9 35 -14 46 -12 10 3 35 -1 54 -9 19 -8 39 -12 43 -10 4 3 38 8 74 10 37
3 86 13 109 24 48 20 117 15 144 -13 35 -35 82 -5 85 53 0 14 2 13 11 -4 5
-12 20 -27 32 -33 11 -6 28 -15 36 -21 29 -19 75 -33 105 -31 38 3 125 31 146
48 19 16 39 17 39 3 0 -6 6 -10 13 -9 6 1 33 -1 58 -5 45 -8 76 0 143 36 10 5
35 7 55 3 31 -5 40 -2 64 23 15 16 27 33 26 38 -3 18 1 47 6 42 3 -3 7 -18 10
-34 11 -83 25 -129 41 -141 20 -15 72 -9 117 12 15 8 27 10 27 6 0 -9 213 -6
259 4 19 4 46 18 60 31 14 13 30 24 35 24 5 0 22 13 38 30 15 16 30 30 32 30
3 0 7 -13 11 -30 10 -44 42 -78 86 -91 21 -7 39 -16 39 -21 0 -4 19 -8 43 -8
48 0 100 27 118 62 7 13 15 25 19 28 12 8 14 50 6 122 -6 53 -12 68 -26 73
-10 3 -27 18 -37 33 -10 15 -25 27 -33 28 -8 1 -29 4 -46 8 -25 5 -38 1 -73
-26 -24 -18 -51 -37 -60 -43 -9 -5 -31 -20 -48 -33 -27 -19 -33 -20 -33 -7 0
8 -9 23 -19 32 -18 15 -19 49 -1 38 5 -3 27 4 50 16 l42 22 -6 58 c-4 34 -2
76 4 100 9 32 9 44 0 49 -7 4 -8 9 -2 11 5 2 7 23 3 49 -3 25 -10 44 -14 42
-5 -2 -14 3 -20 11 -18 23 -61 28 -103 14 -26 -9 -51 -11 -74 -6 -72 17 -222
9 -235 -11 -3 -5 -14 -6 -25 -3 -21 6 -131 -43 -166 -74 -12 -10 -25 -33 -28
-50 -4 -18 -11 -35 -16 -38 -4 -2 -2 -30 6 -61 10 -47 11 -61 0 -76 -7 -10
-16 -15 -19 -11 -4 3 -7 0 -7 -7 0 -10 -3 -11 -11 -3 -7 7 -13 68 -15 165 -3
147 -9 202 -24 223 -3 6 -8 28 -9 50 -1 21 -4 41 -6 43 -10 10 -91 12 -105 2z
m-7 -90 c10 0 17 -8 17 -19 0 -10 10 -26 23 -35 12 -10 24 -29 25 -42 1 -14 6
-33 12 -44 15 -28 10 -247 -7 -304 -14 -44 -14 -52 1 -84 9 -19 16 -35 14 -36
-20 -14 -123 -43 -138 -39 -20 5 -35 36 -26 51 3 5 -10 15 -29 24 -30 13 -37
14 -55 1 -12 -8 -25 -26 -30 -39 -5 -13 -30 -34 -57 -47 -44 -23 -52 -24 -103
-13 -31 6 -67 22 -82 35 -44 38 -71 122 -72 221 -1 76 2 90 27 133 15 26 34
47 42 47 8 0 15 4 15 8 0 5 16 17 35 28 35 19 35 19 80 -5 25 -13 42 -27 39
-32 -3 -5 2 -9 10 -9 9 0 16 -6 16 -14 0 -43 71 -62 91 -24 6 12 20 31 31 42
31 34 6 99 -39 101 -14 0 -63 63 -63 81 0 19 27 23 120 19 47 -3 93 -5 103 -5z
m-2661 -58 c1 -20 2 -59 3 -87 2 -72 2 -73 35 -80 26 -6 34 -2 51 19 41 52
107 64 182 34 26 -10 56 -58 63 -98 13 -78 19 -152 12 -156 -4 -3 -8 -18 -8
-34 0 -37 35 -71 69 -68 31 4 39 -22 16 -46 -13 -13 -35 -15 -132 -11 -64 3
-118 7 -121 10 -3 2 -4 42 -3 88 2 70 -1 88 -16 103 -18 17 -19 21 -22 47 -2
20 -39 38 -66 31 -23 -6 -41 -36 -37 -60 1 -7 -4 -14 -12 -17 -22 -9 -12 -62
18 -98 14 -17 26 -35 26 -40 0 -5 6 -9 14 -9 7 0 19 -6 25 -13 14 -17 -15 -47
-51 -52 -12 -2 -49 -13 -81 -24 -32 -12 -86 -24 -120 -26 -73 -6 -82 2 -93 85
-6 47 -5 52 15 57 14 3 24 17 30 42 9 36 10 296 1 304 -3 3 -19 12 -36 20 -23
12 -33 25 -36 48 -9 57 11 66 150 67 l122 1 2 -37z m3271 -87 c11 -1 30 -16
44 -33 27 -35 49 -40 78 -18 17 12 21 10 45 -23 30 -41 29 -77 -4 -88 -31 -10
-61 -8 -59 5 2 6 -13 20 -32 32 -19 12 -35 26 -35 31 0 5 -7 9 -15 9 -8 0 -15
5 -15 10 0 17 -56 11 -78 -9 -26 -22 -29 -63 -6 -85 15 -15 20 -17 54 -20 8
-1 14 -7 13 -14 -2 -7 2 -12 8 -12 6 0 9 -9 6 -19 -3 -14 11 -36 50 -76 42
-45 54 -65 56 -92 2 -31 -3 -38 -32 -55 -26 -15 -83 -27 -141 -30 -26 -1 -40
6 -55 28 -19 29 -13 43 9 25 24 -20 64 29 61 73 -5 52 -19 71 -52 70 -16 0
-34 -4 -40 -7 -6 -4 -28 11 -49 33 -22 22 -47 40 -57 40 -10 0 -15 5 -12 10 3
6 -1 10 -10 10 -10 0 -13 5 -9 12 4 6 3 8 -2 5 -14 -8 -27 4 -42 36 -10 24 -9
30 8 47 11 11 20 26 20 34 0 9 7 12 18 10 9 -3 32 7 51 21 19 14 45 25 58 25
13 0 23 4 23 8 0 5 10 8 22 7 12 -1 36 1 53 5 16 4 34 4 40 1 5 -3 18 -6 28
-6z m-2307 -15 c13 -5 24 -14 24 -19 0 -5 8 -11 19 -14 22 -5 49 -111 50 -197
1 -30 2 -77 4 -105 5 -121 126 -138 127 -17 1 44 2 45 14 24 13 -24 13 -36 1
-89 -7 -32 -25 -42 -85 -51 -66 -9 -153 14 -148 39 2 6 -9 15 -24 19 -21 6
-31 3 -50 -17 -22 -24 -61 -45 -106 -58 -25 -7 -121 10 -169 31 -28 13 -32 19
-29 49 2 32 21 63 55 93 8 6 34 12 57 12 31 0 55 9 95 36 81 55 116 104 101
143 -9 24 -91 88 -119 93 -44 7 -82 -62 -52 -95 7 -7 28 -11 50 -9 45 5 49 -6
16 -42 -50 -54 -122 -59 -167 -13 -62 63 -22 153 85 191 43 16 206 13 251 -4z
m529 -14 c16 -6 20 -16 20 -53 -1 -60 23 -86 66 -71 16 5 29 14 29 18 0 5 10
12 23 16 12 4 36 17 52 29 34 26 53 32 113 39 44 5 112 -18 112 -37 0 -5 8
-17 18 -26 28 -26 42 -67 43 -134 1 -34 0 -66 -2 -72 -1 -5 1 -22 5 -37 7 -23
15 -28 51 -34 24 -3 46 -12 49 -20 3 -8 1 -14 -4 -14 -6 0 -10 -6 -10 -13 0
-9 -11 -12 -36 -9 -19 2 -55 -1 -79 -8 -34 -10 -51 -9 -81 1 -22 7 -43 16 -48
21 -5 4 -18 2 -28 -3 -25 -13 -32 -6 -19 19 25 48 2 205 -39 253 -21 25 -30
29 -52 24 -16 -4 -28 -13 -28 -21 0 -8 -3 -14 -8 -14 -18 0 -34 -63 -28 -118
3 -31 5 -60 5 -63 1 -11 51 -29 65 -23 11 4 12 -2 7 -28 -7 -32 -9 -33 -51
-30 -23 1 -80 -4 -125 -13 -45 -8 -97 -17 -116 -19 -40 -5 -86 16 -91 41 -6
28 3 55 17 49 35 -13 66 61 58 140 -3 28 -13 48 -38 73 -28 26 -35 41 -35 71
0 37 0 37 63 55 91 26 79 25 122 11z m-188 -203 c-4 -3 -2 -12 4 -20 9 -10 8
-13 -4 -13 -9 0 -14 7 -12 18 5 23 4 22 12 22 3 0 3 -3 0 -7z m2379 -134 c19
-11 34 -17 34 -12 0 4 6 -3 13 -17 14 -26 9 -44 -22 -82 -10 -13 -18 -15 -32
-8 -10 6 -26 10 -36 10 -54 0 -77 77 -33 112 28 23 35 23 76 -3z m-665 -15 c8
-5 25 -10 39 -12 43 -6 47 -20 15 -50 -17 -16 -34 -29 -40 -29 -16 -2 -45 17
-45 28 0 6 -9 22 -20 36 -11 14 -18 29 -15 33 6 10 47 6 66 -6z"/>
<path d="M10870 873 c-14 -7 -29 -14 -33 -16 -4 -1 -9 -9 -10 -17 -2 -8 -6
-20 -10 -27 -4 -6 -1 -18 7 -25 7 -8 17 -24 20 -36 4 -12 11 -22 14 -22 4 0 9
-12 10 -27 5 -68 52 -103 84 -63 10 12 15 26 12 32 -3 5 3 19 14 31 53 59 56
111 10 153 -36 31 -78 38 -118 17z"/>
<path d="M9273 694 c-38 -29 -43 -62 -13 -89 18 -16 24 -17 60 -5 46 15 65 53
46 91 -16 34 -54 35 -93 3z"/>
<path d="M1270 1251 c-8 -5 -28 -14 -45 -21 -64 -27 -73 -33 -84 -57 -16 -35
-14 -51 10 -63 22 -12 59 -47 59 -55 0 -3 -17 -4 -39 -1 -21 2 -44 0 -51 -4
-12 -7 -70 18 -94 41 -5 4 -10 30 -10 56 l-1 48 -127 0 c-69 0 -130 3 -134 8
-13 13 -48 7 -71 -12 -24 -20 -25 -51 -3 -91 8 -14 13 -31 11 -39 -1 -7 2 -10
7 -7 6 3 8 -2 5 -13 -6 -24 -54 -42 -91 -35 -38 8 -70 -26 -55 -59 9 -19 6
-27 -19 -52 -27 -27 -29 -35 -24 -73 7 -53 29 -76 73 -79 33 -2 68 -25 56 -37
-4 -3 -1 -6 4 -6 6 0 14 -19 18 -42 11 -68 44 -157 65 -178 59 -59 273 -71
329 -19 26 24 35 24 53 -3 15 -22 15 -22 60 -5 46 18 137 25 157 12 6 -3 55
-8 109 -9 74 -1 103 -6 125 -20 29 -20 26 -20 300 -17 87 1 167 -1 178 -4 11
-4 35 0 52 8 26 13 47 14 117 6 128 -15 220 -13 251 7 8 5 49 9 91 10 69 2 81
0 123 -27 59 -38 112 -40 121 -5 3 14 4 28 1 33 -2 4 2 24 9 43 12 32 13 33
20 12 3 -12 12 -22 19 -22 7 0 15 -3 17 -7 2 -5 17 -21 34 -36 25 -23 47 -31
105 -39 105 -15 196 -10 257 13 29 10 61 19 72 19 42 0 130 126 130 188 0 34
-18 27 -69 -27 -25 -26 -57 -54 -70 -61 -89 -47 -286 -71 -345 -42 -46 22
-118 96 -155 157 -28 46 -33 65 -37 137 l-5 84 40 37 c44 39 138 88 216 110
52 15 131 10 189 -13 34 -12 123 -126 136 -173 11 -39 6 -92 -10 -102 -4 -3
-56 -7 -114 -9 -83 -3 -109 -1 -120 10 -17 16 -36 19 -36 4 0 -6 -9 -6 -22 -1
-43 15 -81 -13 -76 -56 2 -23 14 -34 68 -61 35 -17 76 -32 91 -32 33 0 91 24
109 44 15 19 110 22 127 5 8 -8 16 -7 30 1 33 21 39 49 26 135 -17 118 -19
124 -26 131 -4 4 -7 14 -7 21 0 8 -6 21 -12 28 -29 33 -38 45 -38 53 0 27
-100 88 -160 98 -86 13 -209 -1 -277 -31 -70 -32 -103 -50 -103 -57 0 -5 -6
-8 -12 -8 -13 -1 -22 -12 -73 -85 -25 -38 -27 -44 -20 -117 3 -43 3 -83 -1
-89 -12 -20 -33 47 -39 124 -8 100 -29 158 -68 188 -17 13 -36 25 -42 25 -5 1
-12 3 -15 4 -67 25 -187 13 -198 -20 -2 -6 -8 -10 -13 -10 -6 0 -20 -9 -32
-21 -40 -38 -58 -39 -100 -5 -33 26 -47 31 -103 32 -35 2 -73 6 -84 9 -11 4
-20 2 -20 -4 0 -6 -6 -11 -14 -11 -7 0 -27 -7 -42 -15 -27 -14 -30 -14 -43 5
-16 24 -75 27 -97 6 -9 -10 -28 -13 -56 -10 -79 9 -108 15 -108 22 0 19 -40 8
-65 -18 -25 -27 -27 -32 -16 -59 7 -16 14 -49 16 -73 1 -23 3 -48 4 -55 0 -6
21 -21 46 -33 48 -23 52 -31 33 -73 -15 -32 -20 -33 -55 -10 -14 10 -32 18
-40 19 -30 5 -50 36 -57 87 -4 29 -9 59 -10 67 -1 9 -5 20 -8 25 -7 12 -3 74
7 104 4 14 -1 33 -14 55 -12 18 -21 45 -21 60 0 82 -115 162 -180 127z m87
-76 c47 -33 30 -81 -31 -91 -33 -5 -41 -2 -72 31 -19 20 -31 41 -28 47 17 28
98 36 131 13z m-425 -51 c4 -3 2 -20 -6 -37 -17 -42 -5 -75 34 -88 16 -6 30
-15 30 -19 0 -5 15 -13 34 -20 29 -9 35 -16 38 -46 2 -19 -1 -38 -6 -42 -6 -3
-37 -8 -70 -9 -105 -6 -115 -30 -76 -183 31 -122 49 -148 86 -122 11 8 39 56
48 84 3 9 13 16 24 15 16 -1 18 -6 11 -40 -7 -39 -52 -90 -74 -83 -5 1 -28 -7
-50 -18 -32 -17 -49 -20 -83 -14 -107 18 -137 63 -138 213 0 55 -1 105 -2 112
-1 8 -21 11 -64 8 -71 -4 -88 1 -88 24 0 30 30 60 72 73 23 7 59 29 81 49 33
32 38 43 37 76 -3 59 -2 63 23 73 21 9 122 4 139 -6z m455 -151 c11 -10 23
-36 28 -58 7 -37 10 -161 5 -220 -3 -34 36 -66 73 -59 23 4 27 1 27 -21 0 -14
-4 -25 -8 -25 -4 0 -13 -13 -19 -29 l-11 -30 -113 3 c-159 5 -159 5 -159 17 0
6 20 29 44 50 54 47 66 88 39 126 -38 54 -62 105 -56 119 3 8 0 14 -6 14 -6 0
-11 7 -11 16 0 14 -7 16 -43 11 -43 -6 -43 -6 -45 27 -3 44 14 56 95 65 112
13 138 12 160 -6z m1092 0 c36 -5 86 -45 109 -88 9 -18 17 -86 26 -214 2 -36
7 -46 27 -54 13 -6 31 -9 40 -8 22 3 31 -25 13 -39 -8 -7 -14 -23 -14 -37 0
-23 -2 -24 -42 -17 -24 4 -52 7 -63 6 -40 -1 -85 9 -80 19 4 5 -1 9 -9 9 -27
0 -39 39 -32 99 8 62 8 58 5 121 -2 50 -33 84 -81 86 -69 4 -126 -96 -97 -168
12 -28 75 -68 97 -61 12 5 11 -33 -4 -106 l-5 -24 -127 8 c-70 4 -137 8 -149
7 -17 0 -22 6 -22 22 1 11 1 53 1 91 -1 39 -1 88 -1 110 1 79 -3 95 -22 109
-11 7 -30 12 -42 11 -12 -1 -27 -3 -33 -4 -22 -2 -51 -74 -50 -123 1 -25 4
-50 9 -54 4 -4 7 -15 7 -25 0 -10 11 -26 25 -37 26 -21 28 -42 8 -77 -10 -16
-24 -21 -80 -23 -37 -2 -84 -5 -103 -6 -108 -11 -150 -9 -150 5 0 6 -7 26 -16
45 -20 41 -13 64 19 64 33 0 74 41 82 81 3 19 5 61 3 94 l-3 60 -38 6 c-48 8
-61 21 -53 54 6 25 8 26 69 20 82 -8 100 -19 127 -72 20 -40 25 -44 49 -38 14
4 29 12 33 18 7 11 8 17 12 49 2 21 68 47 118 48 51 0 133 -41 141 -71 7 -24
49 -49 73 -43 11 3 27 20 36 37 37 76 44 87 56 87 6 0 12 4 12 9 0 10 62 30
74 23 4 -2 25 -7 45 -9z m-1430 -172 c9 -6 10 -11 2 -15 -6 -4 -16 -4 -21 -1
-6 3 -24 -4 -41 -16 l-31 -22 11 22 c7 12 22 26 34 31 28 11 29 11 46 1z m138
-39 c13 -8 33 -55 33 -76 0 -7 -12 -13 -30 -13 -26 0 -30 4 -30 26 0 14 -4 33
-9 41 -17 25 8 40 36 22z"/>
<path d="M5640 1210 c-12 -12 -18 -25 -15 -30 3 -4 0 -10 -7 -12 -8 -3 -2 -15
17 -34 28 -27 30 -34 31 -113 2 -93 12 -108 68 -102 l28 3 -4 -84 c-4 -59 -11
-92 -25 -116 -26 -42 -20 -80 14 -88 16 -4 30 -1 40 9 30 30 49 182 28 218 -3
4 2 23 10 43 19 45 19 77 1 102 -13 16 -18 17 -35 6 -32 -19 -59 3 -67 55 -8
55 -1 71 33 75 52 6 192 -7 204 -19 13 -13 29 -89 21 -98 -12 -12 -4 -88 11
-102 22 -23 76 0 89 38 10 29 22 34 103 44 94 13 122 -38 128 -235 2 -59 27
-110 56 -110 29 -1 51 -26 51 -58 0 -36 -13 -42 -97 -43 -99 -2 -132 27 -131
116 0 33 -3 71 -6 85 -4 14 -9 41 -11 60 -6 44 -31 63 -70 56 -40 -8 -68 -44
-83 -111 -12 -49 -11 -58 4 -85 20 -34 49 -42 82 -22 20 13 22 13 22 -9 0 -29
-22 -89 -32 -89 -4 0 -8 -7 -8 -15 0 -17 -29 -34 -68 -40 -15 -3 -47 -9 -72
-15 -54 -11 -153 -3 -196 17 -40 18 -50 42 -53 123 -2 36 -7 68 -13 71 -30 19
-82 -40 -63 -71 4 -6 7 -41 6 -77 -1 -67 7 -91 44 -130 17 -20 26 -22 46 -14
14 5 70 7 124 4 71 -4 119 0 167 11 37 8 74 13 82 10 18 -7 96 14 96 26 0 5 6
7 14 4 7 -3 20 2 29 10 8 8 17 13 19 11 2 -2 33 -5 68 -6 36 -2 81 -8 101 -15
31 -10 40 -10 58 2 28 20 37 76 17 106 -18 25 -22 63 -6 53 6 -3 10 -15 10
-26 0 -11 6 -22 14 -25 8 -3 17 -17 21 -32 4 -15 10 -29 13 -32 4 -3 14 -18
22 -34 13 -25 43 -45 133 -88 51 -25 223 -11 297 23 25 12 56 26 68 32 30 14
48 49 66 125 7 33 18 68 24 78 10 17 11 16 17 -9 4 -14 8 -38 9 -52 0 -14 4
-25 8 -25 4 0 3 -11 -2 -25 -10 -26 -4 -55 11 -55 5 0 9 -6 9 -14 0 -20 26
-27 58 -15 38 15 262 15 291 0 29 -16 47 -2 61 48 14 49 13 50 -16 61 -18 7
-30 7 -39 0 -35 -29 -291 -16 -279 14 3 7 -2 18 -10 25 -19 16 -8 51 20 61 43
17 60 90 35 155 -6 17 -14 36 -16 43 -3 7 -18 15 -35 18 -22 5 -30 12 -31 28
0 11 -2 31 -3 44 -2 14 3 22 12 22 9 0 24 8 35 17 13 13 41 19 93 21 82 5 107
-6 102 -44 -3 -25 27 -64 51 -64 9 0 27 14 40 31 14 17 35 35 47 39 29 11 92
-6 121 -32 21 -19 40 -63 22 -52 -5 3 -9 -2 -9 -10 0 -22 -25 -33 -65 -28 -29
3 -37 10 -47 38 -15 42 -30 48 -62 23 -24 -19 -25 -22 -20 -117 5 -76 2 -101
-9 -117 -14 -18 -13 -22 5 -48 18 -25 24 -28 59 -22 44 8 49 -2 26 -58 -17
-39 -5 -92 23 -107 42 -22 79 51 60 119 -4 14 -2 41 5 61 15 41 8 99 -11 107
-8 3 -29 -2 -47 -10 -36 -18 -50 -10 -45 24 3 22 22 29 83 29 42 0 105 32 120
60 27 52 10 138 -34 181 -9 8 -42 26 -73 39 -47 19 -61 21 -85 12 -15 -6 -42
-14 -60 -17 -28 -6 -34 -3 -48 24 -17 33 -31 37 -85 21 -19 -6 -74 -11 -122
-11 -64 -1 -88 -5 -92 -15 -3 -8 -17 -14 -30 -14 -37 0 -49 -29 -35 -87 7 -26
13 -66 14 -88 2 -54 13 -85 30 -85 19 0 49 -46 40 -60 -5 -8 -14 -6 -32 5 -18
12 -28 14 -38 5 -11 -9 -16 0 -26 47 -33 150 -102 243 -209 284 -93 36 -165
27 -292 -35 -95 -46 -97 -48 -127 -108 -17 -33 -36 -87 -43 -118 l-11 -57 -36
20 c-19 12 -31 16 -27 9 4 -7 1 -12 -8 -12 -9 0 -16 4 -16 8 0 31 -45 242 -56
263 -10 20 -26 30 -61 38 -94 21 -127 20 -179 -5 -27 -13 -50 -24 -51 -24 -2
0 -2 34 -2 74 1 41 -2 80 -6 86 -5 7 -20 10 -39 6 -48 -10 -288 -6 -307 5 -24
12 -26 12 -49 -11z m1253 -224 c71 -15 82 -21 132 -71 59 -60 82 -113 63 -149
-6 -12 -15 -24 -20 -27 -16 -11 -186 -1 -209 12 -51 28 -73 18 -88 -37 -5 -20
-2 -34 8 -47 87 -102 106 -110 179 -73 27 14 52 32 55 41 8 20 66 20 73 0 8
-20 -26 -86 -51 -99 -11 -6 -22 -14 -25 -17 -3 -4 -25 -13 -50 -20 -25 -7 -52
-18 -60 -24 -27 -22 -152 -19 -207 5 -49 21 -64 39 -114 133 -32 61 -38 156
-14 214 24 56 132 148 188 159 11 2 25 8 30 13 5 5 17 8 26 6 9 -2 47 -11 84
-19z"/>
<path d="M6823 907 c-33 -6 -44 -14 -49 -32 -8 -34 20 -82 53 -89 39 -9 133
37 133 64 0 11 -4 20 -9 20 -5 0 -13 9 -16 21 -6 16 -13 20 -36 17 -16 -3 -30
-2 -31 2 -2 3 -22 2 -45 -3z"/>
<path d="M3955 1050 c-101 -36 -142 -61 -129 -81 2 -4 -4 -13 -15 -18 -28 -15
-43 -92 -35 -181 3 -41 7 -85 8 -97 0 -12 4 -25 9 -29 4 -4 7 -13 7 -20 0 -7
14 -37 32 -68 23 -41 41 -59 67 -70 81 -32 192 -55 289 -61 120 -7 124 -6 236
109 l68 71 1 80 c0 91 -17 171 -50 230 -13 22 -28 52 -34 67 -6 16 -23 31 -41
37 -17 6 -45 22 -62 34 -26 20 -47 25 -136 30 -103 5 -107 5 -215 -33z m273
-61 c2 -5 10 -9 17 -9 8 0 20 -6 27 -12 25 -24 77 -58 88 -58 5 0 10 -9 10
-20 0 -10 6 -23 13 -27 27 -18 37 -55 36 -133 -2 -44 -6 -80 -11 -80 -4 0 -8
-6 -8 -13 0 -24 -70 -84 -117 -103 -61 -23 -185 -26 -225 -6 -16 8 -42 15 -58
16 -40 3 -108 53 -130 97 -11 20 -24 65 -29 99 -9 54 -7 70 11 124 11 33 25
67 31 74 11 14 61 38 97 46 14 2 41 9 60 14 43 10 184 4 188 -9z"/>
<path d="M4113 918 c-13 -6 -23 -15 -23 -19 0 -4 -8 -15 -17 -25 -14 -13 -17
-36 -18 -121 0 -128 8 -139 100 -137 75 2 85 15 85 108 0 97 -14 140 -53 168
-18 12 -33 26 -35 30 -5 10 -11 9 -39 -4z"/>
<path d="M4799 1085 c-10 -10 -173 -22 -189 -15 -16 9 -103 -57 -94 -71 12
-20 14 -95 4 -141 -9 -44 -8 -53 11 -79 14 -20 28 -29 43 -27 23 3 28 -4 20
-25 -3 -8 -14 -12 -28 -10 -37 7 -62 -40 -49 -90 11 -40 11 -98 -1 -152 -10
-53 12 -69 91 -64 66 3 179 3 313 -1 86 -3 130 1 130 12 0 5 6 8 13 6 6 -1 27
6 45 15 18 10 36 16 41 13 4 -3 32 -1 62 3 37 6 64 5 90 -4 31 -11 40 -11 57
0 10 8 22 12 25 8 8 -7 16 34 15 74 -1 18 -7 34 -15 37 -9 4 -11 20 -7 65 6
55 5 60 -17 72 -13 7 -28 13 -34 14 -5 0 -14 45 -18 100 -6 71 -15 114 -32
150 -37 78 -45 83 -170 89 -106 5 -112 4 -170 -24 -33 -16 -63 -26 -67 -22 -3
4 -8 21 -10 37 -2 24 -8 31 -28 33 -14 2 -28 0 -31 -3z m1 -110 c5 -14 12 -46
14 -71 6 -60 22 -78 56 -61 18 9 26 22 28 47 8 80 68 101 242 85 75 -7 104
-66 95 -191 -11 -137 -5 -166 35 -163 33 3 40 -2 40 -30 0 -38 -14 -47 -85
-57 -89 -12 -124 -7 -150 18 -19 20 -22 33 -21 103 1 46 -3 86 -10 95 -17 23
-26 52 -13 44 14 -8 -7 34 -29 59 -21 24 -65 21 -100 -7 -25 -22 -28 -31 -26
-68 2 -24 5 -64 6 -89 2 -25 10 -53 19 -61 16 -16 55 -18 77 -4 8 5 12 -4 13
-26 3 -72 -15 -92 -80 -94 -25 -1 -95 -3 -155 -6 -124 -5 -152 3 -160 46 -11
54 -7 76 13 76 10 0 23 6 28 13 15 18 53 134 53 161 0 26 -21 48 -42 45 -55
-7 -59 -2 -56 62 l3 61 45 18 c25 10 69 18 98 19 47 1 53 -1 62 -24z"/>
<path d="M3105 922 c-54 -11 -92 -102 -52 -124 21 -11 96 -13 128 -3 10 4 19
15 19 26 0 10 5 19 10 19 14 0 12 31 -5 60 -8 14 -14 22 -15 19 0 -4 -15 -4
-32 0 -18 4 -42 5 -53 3z"/>
</g>
</svg>
