<?xml version="1.0" standalone="no"?>
<!DOCTYPE svg PUBLIC "-//W3C//DTD SVG 20010904//EN"
 "http://www.w3.org/TR/2001/REC-SVG-20010904/DTD/svg10.dtd">
<svg version="1.0" xmlns="http://www.w3.org/2000/svg"
 width="1629.000000pt" height="322.000000pt" viewBox="0 0 1629.000000 322.000000"
 preserveAspectRatio="xMidYMid meet">

<g transform="translate(0.000000,322.000000) scale(0.100000,-0.100000)"
fill="#000000" stroke="none">
<path d="M1360 2677 c-3 -2 -59 -7 -125 -10 -66 -4 -136 -11 -155 -17 -19 -5
-51 -10 -70 -11 -101 -2 -210 -125 -158 -177 7 -7 8 -12 2 -12 -5 0 -8 -20 -6
-45 2 -25 1 -53 -4 -63 -4 -9 -7 -20 -6 -24 1 -3 2 -46 3 -95 2 -95 11 -119
61 -165 31 -28 48 -35 48 -20 0 5 13 7 30 4 26 -4 29 -7 24 -31 -16 -73 -38
-138 -54 -161 -9 -14 -20 -38 -23 -55 -18 -99 -33 -139 -114 -300 -68 -133
-134 -195 -209 -195 -15 0 -42 -5 -60 -12 -29 -10 -33 -16 -32 -50 0 -21 -4
-44 -10 -51 -8 -9 -8 -26 -1 -56 9 -41 7 -121 -6 -281 -6 -64 -5 -65 31 -102
20 -21 44 -39 53 -39 9 -1 25 -3 36 -5 103 -15 373 -32 425 -27 111 12 407 7
441 -7 21 -9 54 -11 112 -5 45 4 87 7 92 6 44 -5 212 -21 265 -24 36 -3 83 -9
105 -13 55 -11 234 -8 330 6 44 6 119 12 167 14 67 2 92 6 107 20 19 17 58 15
71 -4 13 -19 184 -25 330 -11 101 9 305 6 380 -6 113 -19 330 1 330 29 0 6 11
7 25 4 19 -5 33 1 56 21 28 26 30 31 23 73 -4 25 -8 98 -9 163 -1 64 -4 120
-7 123 -3 2 -3 31 -1 63 3 32 1 61 -4 64 -5 3 -31 7 -58 8 -68 4 -85 23 -85
99 l0 60 48 -8 c26 -4 83 -7 127 -7 71 0 89 4 150 34 54 26 81 47 118 92 26
32 47 63 47 69 0 15 6 13 36 -15 15 -14 39 -25 55 -25 15 0 40 -5 56 -12 15
-6 33 -11 38 -10 15 2 17 -126 4 -170 -16 -50 -43 -66 -109 -65 -32 0 -55 -4
-58 -11 -2 -7 -13 -12 -23 -12 -11 0 -29 -5 -40 -10 -15 -9 -17 -15 -9 -30 13
-24 13 -77 0 -85 -6 -4 -8 -9 -6 -13 10 -16 16 -181 7 -187 -6 -3 -8 -12 -5
-20 3 -8 7 -38 8 -67 2 -29 4 -62 5 -74 0 -12 11 -32 22 -45 12 -13 32 -38 46
-56 l24 -32 142 0 c78 -1 187 -2 242 -2 341 -4 810 16 816 34 5 16 13 216 12
330 0 117 -4 151 -16 165 -8 9 -18 35 -21 57 -8 45 -46 75 -96 75 -51 0 -60
20 -61 133 0 56 0 120 1 142 0 22 3 150 5 285 2 135 7 259 10 277 6 35 0 41
-42 47 -15 2 -42 9 -60 16 -30 11 -31 14 -21 38 21 55 35 133 31 173 -8 69
-73 189 -102 189 -6 0 -11 4 -11 9 0 16 -117 71 -151 70 -19 0 -56 4 -84 9
-50 10 -126 2 -163 -16 -9 -5 -34 -12 -55 -15 -112 -17 -188 -85 -221 -197
-17 -58 -21 -184 -7 -222 27 -74 26 -74 -42 -83 -70 -9 -113 -13 -140 -14 -11
-1 -21 -10 -24 -22 -5 -20 -6 -20 -27 -1 -29 25 -73 52 -86 52 -6 0 -35 11
-64 25 -76 36 -149 50 -247 48 -70 -1 -98 -6 -150 -29 -73 -31 -120 -35 -144
-11 -9 9 -22 17 -28 18 -7 0 -55 5 -107 10 -122 13 -360 16 -360 6 0 -5 -5 -5
-11 -2 -5 4 -22 2 -37 -3 -15 -6 -79 -13 -142 -15 -100 -3 -123 -7 -172 -31
-31 -14 -59 -34 -62 -42 -10 -25 -7 -112 4 -119 6 -4 10 -65 10 -149 0 -115 3
-146 15 -156 8 -7 15 -20 15 -29 0 -33 65 -95 119 -115 43 -15 51 -22 52 -45
3 -58 -4 -118 -18 -153 -13 -33 -20 -38 -47 -38 -41 -1 -116 -35 -116 -54 0
-12 -6 -12 -42 2 -82 32 -106 53 -132 114 -14 32 -29 58 -33 58 -17 0 -95 209
-113 303 -7 33 -18 74 -26 93 -8 18 -14 48 -14 65 0 18 -13 53 -30 80 l-30 49
28 2 c76 4 102 14 103 39 1 10 2 22 3 27 24 89 37 380 21 469 -5 28 -14 44
-26 48 -11 4 -19 14 -19 24 0 16 -13 19 -107 25 -60 3 -166 12 -238 19 -71 7
-150 11 -175 8 -65 -8 -255 -6 -330 3 -36 4 -67 6 -70 3z m385 -131 c99 -9
218 -23 264 -32 47 -8 108 -14 138 -13 29 2 54 1 57 -2 6 -7 15 -106 22 -246
l7 -132 -24 -5 c-13 -3 -49 -8 -79 -11 -30 -3 -58 -9 -61 -13 -11 -10 -18
-119 -9 -129 4 -4 18 -39 30 -78 13 -38 26 -74 30 -80 4 -5 17 -37 29 -70 12
-33 26 -69 31 -80 26 -58 50 -119 50 -127 0 -26 105 -272 127 -299 25 -29 74
-61 103 -65 73 -12 79 -15 85 -42 3 -15 6 -96 7 -181 1 -145 2 -153 22 -161
12 -4 23 -4 24 1 4 11 22 2 22 -11 0 -28 -474 -37 -630 -12 -99 17 -191 24
-343 27 -76 1 -143 7 -148 12 -6 6 -12 57 -14 114 -3 57 -7 140 -10 184 -5 84
5 125 25 95 5 -8 10 -10 10 -4 0 7 13 10 31 8 49 -6 116 29 135 69 41 85 -2
110 -221 132 -88 9 -170 17 -183 19 -40 6 -63 -23 -69 -85 -4 -50 -2 -59 18
-78 15 -14 36 -21 60 -21 21 0 40 -4 43 -8 20 -32 32 -263 23 -424 -1 -15 -21
-17 -207 -18 -113 -1 -212 -2 -220 -3 -58 -3 -247 16 -258 27 -7 6 -14 28 -16
47 -11 92 -19 191 -20 259 l-1 75 50 1 c28 1 55 2 61 3 6 1 19 18 30 38 10 21
33 51 50 68 30 29 144 244 144 272 0 7 5 13 10 13 6 0 10 6 10 14 0 7 8 24 18
37 11 13 21 33 25 44 3 11 15 45 27 75 38 95 103 346 94 362 -3 4 -30 15 -62
24 -112 32 -101 10 -100 204 1 131 4 170 14 170 7 0 17 7 21 15 19 32 456 45
728 21z m3217 -58 l76 -36 12 -55 c17 -75 6 -132 -35 -189 -59 -81 -178 -123
-299 -106 -101 14 -188 99 -229 223 -16 49 -16 50 9 83 29 37 88 79 148 104
31 13 65 16 141 14 91 -2 107 -6 177 -38z m-999 -450 c56 -26 72 -39 97 -79
34 -55 38 -73 50 -184 13 -131 4 -162 -62 -224 -44 -41 -181 -84 -270 -85 -72
-1 -119 21 -127 60 -2 10 -10 23 -18 29 -23 17 -33 120 -16 168 16 46 7 63
-30 53 -19 -4 -28 -18 -42 -63 -25 -79 -26 -89 -27 -243 -1 -163 7 -222 35
-275 18 -33 29 -42 64 -49 39 -9 44 -13 58 -57 12 -35 16 -85 16 -185 -1 -76
-3 -139 -5 -141 -8 -8 -506 -3 -636 6 -74 5 -175 10 -225 11 -49 0 -90 2 -92
4 -1 1 -5 60 -9 131 -3 71 -9 136 -13 145 -8 17 -7 52 3 96 6 28 10 31 44 29
57 -2 81 15 110 75 25 50 27 66 27 170 0 156 -15 187 -100 214 -33 10 -61 20
-63 21 -7 6 -11 71 -13 188 -1 67 -6 130 -11 140 -5 10 -5 17 1 17 5 0 8 8 7
18 -1 15 11 17 119 17 66 1 188 2 270 3 130 2 284 -5 293 -13 4 -3 5 -165 2
-234 -2 -43 2 -57 16 -68 15 -11 21 -11 38 1 16 10 20 22 18 54 -3 39 12 75
45 110 7 7 13 21 13 30 1 20 89 103 140 132 30 17 48 19 130 14 78 -4 107 -10
163 -36z m1152 -20 c9 -8 9 -342 0 -568 -7 -201 -6 -229 9 -258 21 -41 63 -62
125 -62 44 0 51 -3 56 -22 9 -41 15 -101 21 -239 l7 -137 -40 -7 c-23 -3 -164
-5 -314 -4 -151 1 -356 1 -457 0 -100 -1 -186 0 -191 3 -13 8 -20 58 -31 198
-5 68 -12 141 -14 164 l-5 41 43 0 c107 2 182 75 205 199 25 133 -39 246 -158
280 -31 9 -59 19 -63 23 -11 9 -12 321 -2 331 13 12 279 33 378 30 22 0 46 6
55 14 9 8 41 16 71 18 76 4 300 1 305 -4z"/>
<path d="M1381 1898 c-17 -23 -31 -46 -31 -51 0 -4 -9 -28 -20 -51 -10 -24
-24 -65 -30 -91 -6 -26 -16 -57 -22 -69 -16 -28 -18 -45 -8 -51 5 -3 54 -6
109 -7 56 0 119 -4 141 -8 30 -6 45 -4 56 7 17 17 18 40 2 45 -6 2 -12 11 -13
19 -2 7 -11 32 -20 54 -10 22 -20 51 -22 65 -2 14 -10 39 -18 57 -9 17 -18 52
-21 77 -6 44 -8 46 -39 46 -27 0 -39 -7 -64 -42z"/>
<path d="M8327 2566 c-40 -14 -84 -18 -192 -20 l-140 -1 -15 -32 c-8 -18 -24
-38 -34 -46 -14 -10 -16 -18 -9 -31 5 -9 6 -45 2 -84 -4 -37 -6 -132 -3 -211
2 -95 0 -149 -7 -157 -8 -10 -6 -24 7 -53 16 -38 21 -40 70 -47 l52 -6 16 -70
c9 -39 16 -90 16 -114 0 -23 5 -46 10 -49 6 -4 7 -12 3 -18 -4 -7 -8 -48 -9
-92 -4 -170 -27 -322 -52 -342 -9 -7 -33 -13 -54 -13 -39 0 -44 8 -40 60 2 27
-30 165 -43 180 -6 8 -31 53 -54 100 -39 81 -60 107 -146 189 -19 19 -34 39
-32 45 2 6 34 12 73 13 83 3 117 10 108 24 -3 6 1 18 10 28 13 15 15 58 15
322 0 167 0 312 0 323 0 10 -6 25 -14 33 -8 8 -19 21 -23 30 -7 12 -34 18
-103 24 -52 4 -114 12 -139 18 -61 13 -241 5 -252 -11 -4 -7 -5 -28 -2 -45 7
-37 3 -39 -29 -19 -28 18 -154 52 -232 63 -108 14 -292 7 -367 -16 -90 -27
-106 -31 -153 -43 -27 -6 -52 -15 -55 -18 -3 -3 -35 -21 -72 -39 -38 -18 -68
-37 -68 -40 0 -4 -21 -22 -47 -39 -76 -49 -104 -80 -98 -105 4 -16 -4 -33 -30
-62 -37 -40 -47 -60 -92 -175 -21 -54 -26 -86 -29 -189 -3 -99 -1 -129 11
-147 8 -13 15 -28 15 -35 0 -20 81 -96 128 -119 26 -13 61 -32 77 -42 l30 -19
-108 3 c-108 3 -109 2 -128 -24 -23 -31 -40 -122 -33 -170 3 -18 6 -153 7
-299 l2 -265 29 -35 c56 -66 80 -76 206 -83 179 -11 267 -7 304 13 l31 18 60
-38 c33 -21 67 -41 75 -45 8 -3 24 -9 35 -14 94 -38 315 -57 364 -31 11 6 45
11 75 11 50 0 176 27 231 49 11 5 47 18 80 31 129 47 158 61 195 90 21 16 46
47 55 67 10 21 31 54 46 74 16 20 29 44 29 52 0 9 5 28 11 44 l12 28 7 -25 c4
-14 5 -70 3 -124 -4 -75 -1 -107 11 -130 8 -17 17 -38 19 -46 3 -8 33 -24 68
-34 35 -11 71 -25 79 -31 10 -7 61 -11 150 -9 308 5 435 3 438 -6 2 -6 7 -8
11 -6 12 8 97 8 271 0 179 -8 204 -8 480 1 102 3 192 8 200 12 24 10 56 13
215 18 83 2 164 6 180 8 17 3 32 2 35 -2 7 -10 145 -62 245 -94 78 -24 294
-16 410 16 86 23 185 66 250 107 l30 19 37 -34 c20 -19 40 -35 44 -35 6 0 91
-65 104 -80 3 -3 25 -14 50 -24 35 -15 79 -20 206 -24 144 -4 165 -2 200 15
21 11 59 26 84 33 52 16 100 48 100 67 0 7 5 13 11 13 24 0 108 72 124 106 23
48 42 53 71 18 13 -16 23 -35 24 -42 0 -7 12 -18 28 -24 15 -7 44 -23 64 -35
21 -13 46 -23 57 -23 11 0 21 -4 23 -8 4 -11 155 -75 239 -103 83 -27 178 -41
215 -31 16 5 67 5 114 2 72 -5 88 -4 105 11 11 9 53 24 94 32 45 9 78 21 83
31 5 9 16 16 23 16 8 0 15 4 15 8 0 5 19 18 43 31 23 12 56 31 72 41 17 10 39
19 50 19 12 1 30 17 45 41 14 22 42 54 63 71 20 16 37 35 37 40 0 6 9 23 19
38 11 15 23 39 26 54 12 47 25 29 26 -35 0 -35 3 -74 5 -88 3 -14 6 -48 8 -76
10 -156 46 -177 321 -179 99 -1 198 1 221 6 43 9 439 23 489 18 17 -2 84 -2
150 -1 66 1 203 4 305 6 102 2 295 0 429 -5 236 -8 245 -7 261 11 10 11 22 20
28 20 14 0 26 44 18 65 -5 15 -9 50 -21 235 -14 204 -31 240 -113 240 -66 1
-132 41 -187 114 -11 14 -40 48 -63 74 -69 74 -69 78 -9 81 91 4 217 41 215
64 -1 26 15 77 25 77 20 0 23 95 11 313 -6 111 -10 137 -22 137 -12 0 -12 2
-1 16 12 15 11 19 -10 32 -29 20 -37 22 -136 27 -44 2 -105 6 -135 9 -30 3
-122 7 -205 10 -82 3 -192 11 -243 17 -51 6 -140 9 -197 7 l-105 -5 -1 26 c-1
14 -3 85 -5 156 -3 167 -9 186 -60 203 -57 19 -468 23 -554 5 -36 -7 -89 -13
-119 -13 -30 0 -68 -4 -85 -10 -17 -5 -57 -15 -88 -21 -34 -6 -58 -16 -58 -23
0 -7 -15 -20 -34 -29 -44 -21 -50 -52 -41 -239 6 -127 10 -165 29 -257 8 -37
41 -61 101 -74 30 -6 55 -15 55 -19 0 -4 -4 -8 -9 -8 -9 0 -8 -100 2 -117 8
-13 19 -187 21 -338 l1 -120 -46 -6 c-25 -4 -54 -11 -65 -17 -10 -5 -32 -14
-49 -19 -23 -7 -29 -14 -28 -31 3 -26 -22 -30 -47 -7 -24 22 -112 36 -220 36
-52 -1 -102 4 -110 9 -19 12 -18 12 56 15 34 2 72 9 85 16 13 8 31 15 39 16
24 5 64 11 72 12 4 1 14 14 24 30 9 15 31 36 48 47 35 20 55 43 56 62 0 7 10
34 22 60 31 64 30 167 -1 237 -12 27 -25 70 -28 94 -5 38 -16 54 -90 127 -46
46 -90 84 -98 84 -8 0 -35 11 -61 25 -68 36 -166 64 -243 70 -199 14 -263 16
-293 7 -18 -5 -73 -15 -123 -22 -160 -21 -227 -40 -333 -93 -57 -28 -109 -58
-115 -67 -7 -8 -39 -28 -71 -45 -63 -32 -159 -112 -151 -125 3 -4 -2 -10 -9
-13 -15 -6 -82 -139 -90 -178 -2 -13 -9 -37 -15 -54 -6 -16 -12 -55 -14 -85
l-4 -55 -46 -5 -46 -6 0 53 c1 29 5 53 9 53 11 0 -2 159 -25 301 -10 62 -50
145 -92 190 -45 48 -165 119 -201 119 -12 0 -23 4 -26 9 -3 5 -27 14 -52 20
-26 7 -63 20 -83 30 -20 10 -58 22 -86 26 -27 5 -54 9 -60 10 -52 10 -138 14
-152 7 -10 -6 -42 -6 -73 -2 -54 8 -185 -5 -205 -20 -5 -4 -39 -13 -75 -20
-36 -7 -71 -17 -77 -23 -7 -5 -13 -7 -13 -3 0 19 -143 -71 -195 -123 -148
-147 -178 -186 -191 -255 -3 -20 -11 -36 -16 -36 -14 0 -5 -131 13 -190 7 -25
19 -49 26 -53 7 -4 13 -15 13 -24 0 -9 7 -24 16 -34 14 -16 14 -18 -5 -28 -20
-11 -31 -21 -98 -83 -26 -25 -34 -27 -81 -21 -29 3 -52 8 -52 11 0 2 -7 50
-15 106 -7 55 -14 121 -14 146 1 49 -7 112 -21 175 -5 22 -10 58 -10 79 0 21
-10 71 -21 110 -12 39 -22 73 -22 76 -2 15 -61 97 -104 144 -60 64 -95 89
-117 80 -9 -3 -22 -1 -29 5 -8 6 -44 18 -82 26 -56 13 -70 14 -76 3 -6 -9 -40
-13 -122 -14 -106 -1 -175 -13 -255 -45 -16 -6 -24 -5 -27 4 -11 32 -35 241
-36 317 -2 115 -4 120 -44 120 -19 0 -46 5 -60 10 -29 11 -131 20 -270 24 -59
1 -102 8 -125 19 -42 20 -83 18 -153 -7z m593 -110 c0 -3 -4 -8 -10 -11 -5 -3
-10 -1 -10 4 0 6 5 11 10 11 6 0 10 -2 10 -4z m-1166 -58 c3 -18 5 -118 5
-223 0 -104 2 -211 6 -237 7 -53 11 -50 -92 -68 -72 -12 -193 -19 -228 -12
-19 3 -31 19 -51 63 -31 69 -76 112 -154 148 -45 20 -74 26 -157 29 -117 5
-173 -3 -173 -23 0 -7 -12 -23 -26 -34 -23 -18 -26 -26 -21 -60 11 -81 123
-152 320 -202 67 -17 141 -40 164 -50 23 -10 45 -19 49 -19 20 0 156 -79 219
-126 143 -107 181 -162 205 -293 9 -52 6 -172 -5 -191 -1 -3 2 -16 8 -30 15
-36 9 -67 -25 -134 -59 -117 -205 -216 -428 -292 -76 -26 -334 -26 -430 -1
-97 26 -281 130 -317 179 -10 12 -20 14 -40 9 -24 -6 -29 -14 -33 -51 -5 -44
-6 -45 -50 -53 -50 -9 -185 -2 -242 14 -35 9 -38 13 -39 47 -1 92 -7 200 -13
232 -3 19 -8 69 -11 110 -7 100 -16 161 -27 182 -7 15 -4 17 19 13 16 -3 99
-7 187 -8 l158 -4 18 -49 c42 -118 84 -175 166 -220 11 -7 58 -20 105 -29 139
-29 238 -9 311 63 32 31 38 44 38 80 0 34 -7 53 -35 89 -56 73 -122 106 -400
198 -272 89 -435 174 -499 258 -47 61 -55 166 -25 308 22 101 94 229 129 229
9 0 26 11 39 24 24 25 121 76 204 106 118 43 443 61 572 31 169 -38 194 -46
264 -86 40 -22 61 -4 61 54 0 26 3 51 7 54 3 4 64 7 134 7 l127 0 6 -32z
m1087 -1 c0 -1 2 -69 4 -152 2 -82 7 -192 10 -243 4 -82 3 -94 -14 -111 -20
-20 -31 -87 -17 -109 5 -8 15 -10 25 -7 9 4 27 8 41 9 20 1 28 9 38 40 22 68
41 80 217 142 59 20 98 27 150 27 65 0 173 -21 220 -43 11 -5 36 -16 55 -23
52 -22 117 -73 135 -106 37 -72 47 -153 80 -620 9 -128 30 -156 105 -140 22 5
37 4 42 -3 7 -12 14 -95 22 -275 l5 -101 -279 5 c-254 6 -384 -1 -487 -23
l-23 -4 1 362 c0 355 -5 448 -22 448 -5 0 -9 3 -8 8 3 21 -16 51 -39 62 -36
17 -151 24 -182 12 -34 -14 -91 -111 -110 -191 -14 -55 -15 -76 -5 -126 22
-115 52 -149 153 -166 l62 -11 0 -72 c1 -39 3 -101 6 -138 3 -37 0 -92 -6
-124 l-12 -56 -171 6 c-95 3 -302 8 -462 12 -159 3 -295 7 -301 9 -8 2 -12 36
-12 97 0 51 -4 132 -7 181 -6 84 -5 87 15 87 13 0 41 20 69 50 52 55 68 99 77
215 5 74 6 400 0 425 -1 8 -6 38 -10 65 -10 67 -25 115 -37 115 -5 0 -9 6 -9
13 0 21 -36 49 -72 56 l-33 7 -2 139 c-1 77 0 163 3 192 l5 52 52 3 c54 3 726
7 728 5z m5562 -96 c5 0 6 -228 3 -504 -6 -548 -6 -547 47 -533 14 3 32 12 39
19 13 13 57 40 68 42 3 1 26 11 52 23 26 12 51 22 56 22 19 0 43 39 40 66 -2
20 -13 32 -39 46 l-37 19 -1 179 -1 180 67 1 c146 2 417 -3 424 -7 4 -2 75 -4
158 -5 121 0 154 -3 166 -15 12 -13 15 -46 15 -174 0 -142 -2 -160 -17 -168
-22 -11 -189 -38 -293 -48 -41 -3 -81 -11 -87 -16 -18 -15 -16 -41 5 -59 23
-20 80 -91 115 -143 16 -22 39 -52 51 -66 13 -14 37 -46 55 -73 18 -26 55 -64
84 -86 47 -34 79 -47 170 -66 19 -4 27 -12 28 -28 5 -74 19 -228 26 -266 l6
-34 -164 9 c-190 10 -681 8 -786 -4 l-73 -8 -1 35 c-3 78 2 257 7 274 3 9 1
17 -5 17 -19 0 -12 17 9 23 15 4 20 14 20 36 0 24 7 34 30 46 17 9 30 20 30
25 0 19 -70 107 -94 118 -21 9 -32 6 -83 -24 -32 -19 -63 -42 -70 -50 -8 -11
-10 -83 -8 -250 3 -223 2 -235 -16 -245 -24 -12 -703 -18 -716 -6 -4 5 -7 33
-6 63 1 30 -3 54 -8 54 -5 0 -10 19 -9 42 0 24 -3 92 -6 153 -6 96 -5 108 8
98 19 -16 68 -3 120 33 34 24 38 31 40 73 1 43 3 59 8 71 13 34 15 396 2 445
-6 22 -14 69 -18 105 -10 98 -25 127 -78 150 -56 24 -60 41 -61 240 l0 145 65
7 c36 4 124 10 195 13 72 4 131 8 133 10 2 2 316 -1 335 -4z m-3371 -375 c223
-11 272 -24 383 -99 159 -108 180 -177 184 -636 3 -297 9 -335 58 -347 39 -10
88 5 118 36 33 34 45 98 38 198 -4 55 -2 62 14 62 15 0 23 -16 37 -72 33 -128
18 -301 -32 -367 -45 -60 -103 -105 -166 -129 -56 -22 -72 -23 -199 -19 -84 3
-143 9 -150 16 -6 6 -18 11 -27 11 -32 0 -124 71 -188 144 -18 21 -41 39 -50
41 -12 1 -16 10 -14 29 4 34 -10 33 -45 -5 -86 -95 -115 -109 -328 -160 -91
-22 -241 -36 -301 -28 -184 25 -286 145 -271 320 11 130 81 225 224 301 62 33
76 36 134 34 91 -3 203 17 230 43 13 12 28 21 33 21 6 0 17 9 24 21 10 16 19
19 43 14 16 -4 52 -2 79 5 39 9 53 19 73 49 52 78 74 220 43 279 -32 61 -125
99 -266 108 -41 2 -85 6 -97 9 -15 4 -23 -1 -28 -15 -4 -14 -15 -20 -34 -20
-42 0 -95 -40 -99 -74 -4 -28 -3 -28 40 -22 103 17 178 18 192 4 55 -55 77
-195 39 -246 -26 -36 -88 -76 -139 -90 -65 -19 -182 -15 -232 8 -50 23 -64 35
-86 78 -9 18 -21 32 -26 32 -5 0 -16 24 -24 54 -14 48 -14 58 -1 96 17 48 79
131 115 154 14 8 50 38 80 65 108 98 215 126 410 110 41 -4 137 -10 212 -13z
m1984 -21 c81 -24 204 -76 204 -86 0 -5 8 -9 18 -9 20 -1 88 -50 108 -79 8
-11 26 -43 41 -73 23 -46 26 -65 27 -158 1 -135 -17 -190 -72 -213 -79 -34
-112 -39 -217 -33 -129 7 -173 27 -197 86 -12 28 -14 137 -4 147 3 3 6 14 6
24 0 10 11 26 25 35 35 23 34 62 -2 69 -16 4 -47 10 -70 16 -60 13 -120 11
-152 -5 -58 -30 -124 -129 -152 -226 -7 -25 -14 -52 -17 -60 -2 -8 -6 -65 -8
-126 -3 -98 -1 -120 20 -183 36 -105 98 -187 159 -210 47 -18 134 -21 170 -6
47 21 91 64 112 113 10 24 27 47 36 53 10 5 75 7 151 4 149 -6 205 -12 213
-26 12 -19 -49 -118 -114 -185 -111 -113 -191 -159 -391 -223 -113 -37 -366
-19 -500 34 -39 15 -83 43 -110 68 -25 24 -69 58 -97 77 -29 19 -53 38 -53 41
0 4 -13 12 -29 19 -31 12 -73 66 -113 145 -25 47 -66 187 -68 230 -6 113 21
308 51 367 10 20 29 48 41 62 13 15 32 37 43 51 11 14 24 25 28 25 5 0 26 15
47 33 22 18 49 38 62 44 13 6 73 36 133 66 61 30 128 60 150 66 122 36 159 43
255 49 117 8 178 3 266 -23z m2454 15 c0 -5 -4 -10 -10 -10 -5 0 -10 5 -10 10
0 6 5 10 10 10 6 0 10 -4 10 -10z m-2210 -20 c0 -5 -2 -10 -4 -10 -3 0 -8 5
-11 10 -3 6 -1 10 4 10 6 0 11 -4 11 -10z m-7120 -140 c0 -5 -4 -10 -10 -10
-5 0 -10 5 -10 10 0 6 5 10 10 10 6 0 10 -4 10 -10z m2865 -330 c3 -5 1 -10
-4 -10 -6 0 -11 5 -11 10 0 6 2 10 4 10 3 0 8 -4 11 -10z m-2365 -36 c0 -2 -7
-4 -15 -4 -8 0 -15 4 -15 10 0 5 7 7 15 4 8 -4 15 -8 15 -10z m100 -34 c0 -5
-4 -10 -9 -10 -6 0 -13 5 -16 10 -3 6 1 10 9 10 9 0 16 -4 16 -10z m-595 -30
c3 -5 1 -10 -4 -10 -6 0 -11 5 -11 10 0 6 2 10 4 10 3 0 8 -4 11 -10z m4115
-20 c0 -5 -2 -10 -4 -10 -3 0 -8 5 -11 10 -3 6 -1 10 4 10 6 0 11 -4 11 -10z
m2860 -174 c0 -3 -4 -8 -10 -11 -5 -3 -10 -1 -10 4 0 6 5 11 10 11 6 0 10 -2
10 -4z m-6890 -466 c0 -5 -4 -10 -9 -10 -6 0 -13 5 -16 10 -3 6 1 10 9 10 9 0
16 -4 16 -10z m2830 -70 c0 -5 -4 -10 -10 -10 -5 0 -10 5 -10 10 0 6 5 10 10
10 6 0 10 -4 10 -10z m5980 -40 c0 -5 -5 -10 -11 -10 -5 0 -7 5 -4 10 3 6 8
10 11 10 2 0 4 -4 4 -10z m-240 -4 c0 -2 -9 -6 -20 -9 -11 -3 -18 -1 -14 4 5
9 34 13 34 5z"/>
<path d="M10870 1235 c-8 -8 -42 -41 -76 -72 -61 -58 -94 -122 -94 -181 0 -56
72 -112 144 -112 52 0 129 78 145 146 26 116 13 160 -69 217 -30 21 -32 21
-50 2z"/>
<path d="M11020 579 c0 -5 5 -7 10 -4 6 3 10 8 10 11 0 2 -4 4 -10 4 -5 0 -10
-5 -10 -11z"/>
</g>
</svg>
