<?xml version="1.0" standalone="no"?>
<!DOCTYPE svg PUBLIC "-//W3C//DTD SVG 20010904//EN"
 "http://www.w3.org/TR/2001/REC-SVG-20010904/DTD/svg10.dtd">
<svg version="1.0" xmlns="http://www.w3.org/2000/svg"
 width="1459.000000pt" height="190.000000pt" viewBox="0 0 1459.000000 190.000000"
 preserveAspectRatio="xMidYMid meet">

<g transform="translate(0.000000,190.000000) scale(0.100000,-0.100000)"
fill="#000000" stroke="none">
<path d="M9426 1492 c-16 -30 -43 -37 -74 -19 -11 7 -132 17 -219 18 -22 0
-52 -6 -65 -14 -12 -8 -34 -18 -47 -22 -13 -4 -45 -23 -71 -41 -26 -19 -53
-34 -59 -34 -12 0 -91 -116 -91 -134 0 -6 -7 -24 -15 -39 -18 -35 -21 -103 -6
-140 6 -16 9 -33 5 -38 -3 -5 0 -9 5 -9 6 0 11 -8 11 -17 1 -10 7 -29 14 -42
15 -27 3 -71 -19 -71 -7 0 -15 -12 -18 -27 -3 -16 -9 -37 -13 -47 -4 -11 -3
-17 2 -14 5 4 10 -25 10 -65 1 -40 4 -99 7 -131 3 -38 0 -71 -9 -91 -12 -30
-11 -34 9 -53 27 -25 144 -65 166 -57 35 14 85 15 112 1 45 -22 95 -2 117 47
11 25 14 27 34 16 25 -13 91 -30 123 -31 48 -2 129 14 139 28 6 8 23 16 38 18
14 1 33 10 43 19 9 9 20 17 25 17 17 0 106 96 123 134 10 21 20 37 22 34 9 -9
13 -148 4 -148 -5 0 -9 -12 -9 -27 1 -42 41 -68 88 -56 35 8 236 1 333 -12 91
-12 279 -15 306 -4 30 12 197 29 276 28 26 0 47 5 47 11 0 5 6 10 14 10 8 0
16 9 18 21 3 19 5 19 36 -9 41 -37 151 -69 252 -74 8 0 20 -4 25 -9 12 -9 41
-7 51 4 4 4 22 5 39 1 24 -4 38 0 61 19 16 13 41 27 57 31 23 5 33 1 60 -28
l32 -34 102 2 c65 2 107 7 117 16 9 7 16 9 16 4 0 -4 5 -3 12 4 7 7 22 12 35
12 13 0 23 5 23 11 0 5 5 7 10 4 14 -9 79 65 80 90 1 18 2 18 13 4 24 -30 173
-100 214 -99 16 0 56 -3 89 -6 91 -9 253 31 303 75 13 12 37 29 52 37 16 8 29
19 29 24 0 6 7 10 15 10 7 0 18 8 24 17 8 15 11 15 26 3 14 -11 14 -16 3 -24
-14 -12 -17 -54 -5 -73 5 -7 5 -13 2 -13 -4 0 3 -13 14 -29 22 -30 80 -48 93
-27 4 6 20 11 35 12 15 1 69 5 118 9 104 7 193 7 250 -1 22 -3 60 -1 85 4 26
6 79 7 125 3 44 -4 84 -5 90 -2 17 9 47 12 155 15 112 3 168 21 177 57 5 18
24 28 22 12 -7 -41 63 -79 158 -86 41 -4 75 -2 78 4 4 5 12 9 20 9 8 0 37 24
66 53 52 52 89 119 89 161 0 36 -57 104 -110 131 -39 19 -144 25 -200 10 -27
-7 -51 -10 -54 -8 -3 3 -12 0 -21 -7 -12 -10 -16 -10 -20 2 -6 15 -19 19 -72
19 -18 0 -33 4 -33 8 0 5 -14 11 -31 15 -17 3 -28 10 -24 16 3 5 -3 18 -15 30
-20 20 -20 20 -1 39 15 15 28 18 60 14 27 -4 41 -2 41 6 0 6 6 11 13 11 15 0
47 35 47 53 0 7 -5 18 -12 25 -14 14 -27 172 -14 172 4 0 2 8 -5 17 -10 11
-10 14 -1 9 7 -4 12 -1 12 8 0 9 -7 16 -15 16 -8 0 -15 5 -15 10 0 6 -7 10
-15 10 -8 0 -15 4 -15 9 0 9 -41 7 -115 -4 -16 -3 -68 -7 -115 -10 -47 -3
-110 -10 -140 -16 -41 -8 -62 -7 -85 2 -16 7 -33 11 -38 11 -4 -1 -6 18 -6 41
1 24 -1 49 -5 55 -4 7 -2 12 3 12 25 0 8 32 -35 64 -36 28 -52 34 -82 31 -47
-4 -194 -24 -247 -32 -22 -4 -68 -6 -102 -5 -54 2 -64 -1 -77 -20 -18 -25 -21
-70 -7 -97 6 -10 6 -33 1 -57 -11 -49 3 -116 27 -129 9 -5 33 -25 52 -43 25
-24 31 -36 22 -41 -9 -6 -8 -17 5 -49 9 -23 14 -49 10 -57 -3 -8 -1 -15 5 -15
6 0 7 -6 0 -17 -5 -11 -5 -26 0 -41 7 -19 6 -29 -6 -42 -13 -14 -13 -19 -3
-22 8 -3 4 -13 -14 -31 -30 -29 -58 -35 -58 -12 0 21 -35 36 -75 32 -19 -2
-35 -2 -35 2 0 3 18 24 41 47 33 33 41 49 40 75 -2 35 -8 82 -11 87 -5 5 -8
23 -9 53 -1 24 -5 30 -17 25 -8 -3 -13 -2 -9 3 8 15 -75 91 -105 96 -47 8 -80
18 -80 24 0 14 -82 32 -140 33 -123 0 -208 -11 -241 -31 -19 -11 -50 -28 -69
-38 -55 -27 -190 -182 -190 -217 0 -9 -5 -16 -11 -16 -6 0 -8 -8 -4 -19 6 -21
-25 -55 -32 -34 -2 7 -10 10 -18 7 -26 -10 -49 33 -52 98 -2 34 -8 65 -13 68
-6 4 -10 11 -9 16 5 16 -38 98 -68 131 -29 32 -48 39 -148 54 -33 6 -85 14
-115 18 -90 14 -182 3 -242 -30 -10 -5 -23 -9 -31 -9 -7 0 -36 -21 -65 -46
-53 -46 -88 -100 -94 -145 -2 -13 -6 -29 -10 -34 -12 -20 1 -123 20 -164 l20
-41 -21 -1 c-12 0 -34 -3 -49 -5 -18 -3 -28 0 -29 8 -1 7 -3 33 -4 58 -4 57
-25 172 -34 185 -4 6 -8 23 -10 40 -2 19 -19 45 -48 75 l-45 45 -137 -1 c-98
-2 -150 -7 -185 -19 -28 -10 -52 -13 -57 -8 -5 5 -10 61 -10 124 -2 155 -5
160 -107 154 -42 -3 -99 -8 -127 -11 -27 -4 -91 -6 -142 -5 l-91 1 -32 -40
c-30 -38 -31 -42 -27 -119 2 -43 1 -85 -4 -93 -7 -10 -9 -8 -10 7 -1 11 -3 34
-4 50 -2 17 -4 67 -5 112 -2 79 -3 84 -31 104 -23 16 -36 19 -62 13 -17 -4
-34 -7 -37 -7 -3 1 -31 4 -62 8 -56 7 -57 7 -72 -23z m168 -84 c21 -19 27 -36
33 -98 5 -41 6 -93 2 -114 -8 -47 -43 -80 -73 -71 -12 3 -28 7 -36 8 -8 1 -17
4 -20 7 -16 18 -70 50 -84 50 -9 0 -16 5 -16 12 0 6 -3 8 -6 5 -4 -3 -14 -2
-24 3 -79 42 -190 -6 -190 -83 0 -35 19 -46 112 -66 46 -9 95 -24 111 -34 64
-40 74 -45 102 -44 16 0 31 -6 33 -12 2 -6 9 -11 17 -11 17 0 61 -69 75 -118
6 -23 15 -44 20 -47 11 -7 2 -64 -14 -85 -7 -8 -17 -27 -23 -42 -7 -14 -25
-34 -42 -44 -17 -10 -31 -22 -31 -26 0 -4 -4 -8 -9 -8 -6 0 -32 -15 -58 -32
-42 -29 -56 -33 -113 -32 -47 0 -79 7 -115 24 -27 13 -54 24 -60 25 -5 0 -16
4 -23 9 -7 4 -19 5 -27 2 -8 -3 -15 -1 -15 4 0 6 5 10 12 10 6 0 8 3 5 6 -4 4
-13 1 -22 -6 -8 -7 -21 -10 -28 -7 -7 3 -24 -4 -38 -14 -20 -16 -22 -20 -9
-29 13 -8 13 -10 -1 -10 -10 0 -16 -7 -15 -17 1 -14 -7 -18 -34 -18 -19 0 -43
4 -52 9 -11 7 -25 6 -43 -2 -15 -7 -24 -8 -20 -2 3 5 2 10 -3 10 -10 0 -32 79
-32 115 0 11 0 40 0 65 0 25 2 61 5 81 6 35 8 36 43 35 30 -2 38 -7 40 -24 3
-16 10 -22 29 -22 18 0 24 -4 20 -14 -4 -10 -1 -13 9 -9 7 3 14 0 14 -6 0 -9
55 -45 62 -40 2 2 13 -3 26 -10 34 -18 59 -24 130 -28 40 -3 62 -1 62 6 0 6 7
11 16 11 19 0 52 72 35 78 -6 2 -9 8 -5 13 6 10 -48 36 -87 41 -13 2 -37 11
-54 19 -95 50 -121 65 -126 72 -3 4 -10 7 -15 6 -5 -2 -28 7 -51 19 -23 12
-47 22 -53 22 -38 0 -71 77 -73 169 -2 62 2 84 21 121 40 75 116 137 146 118
2 -2 14 6 26 17 19 17 35 19 128 18 94 -1 113 -4 155 -27 27 -15 64 -26 86
-26 33 0 40 5 65 45 33 52 60 58 100 23z m441 -8 c3 -5 19 -10 35 -10 16 0 35
-7 44 -15 8 -8 19 -15 25 -15 6 0 15 -9 21 -21 14 -26 20 -120 8 -136 -5 -6
-6 -34 -2 -61 5 -40 11 -51 28 -56 34 -9 45 -7 64 12 32 30 115 64 174 69 44
4 72 0 122 -18 36 -12 66 -28 66 -35 0 -6 6 -14 14 -17 7 -3 16 -28 20 -59 3
-29 10 -78 16 -108 6 -36 6 -56 0 -58 -6 -2 -10 -14 -10 -27 0 -13 -4 -36 -10
-50 -13 -35 15 -77 47 -70 12 3 24 1 28 -5 3 -5 12 -7 19 -4 17 6 29 -63 20
-111 -5 -29 -11 -34 -42 -39 -77 -14 -110 -17 -214 -22 -107 -4 -108 -4 -108
18 0 13 -7 32 -15 42 -11 15 -15 50 -16 130 0 61 -2 127 -3 146 -2 19 -4 43
-5 53 0 9 -4 16 -8 16 -5 -1 -17 -1 -28 0 -16 1 -17 3 -6 10 12 8 12 11 0 23
-24 23 -64 19 -98 -10 -18 -15 -33 -34 -35 -42 -1 -8 -7 -24 -13 -35 -6 -11
-12 -29 -14 -40 -4 -32 11 -85 25 -85 7 0 21 -9 31 -20 10 -11 22 -20 27 -20
4 0 17 -9 29 -21 24 -24 43 -79 27 -79 -5 0 -8 -7 -5 -15 4 -8 3 -17 -2 -19
-4 -3 -6 -20 -3 -37 4 -28 2 -31 -14 -25 -19 7 -135 20 -169 18 -11 0 -31 -2
-45 -3 -14 -1 -71 -2 -127 -1 -123 2 -133 9 -128 82 6 80 12 90 51 90 31 0 37
4 50 36 20 48 20 49 -1 184 -20 127 -19 117 -11 182 6 55 -12 83 -51 75 -12
-2 -23 0 -23 4 0 5 -7 9 -15 9 -19 0 -28 36 -21 91 5 46 20 96 27 91 2 -2 11
-1 19 2 48 16 196 21 205 6z m2977 -13 c5 -10 13 -15 19 -12 5 4 9 -1 9 -9 0
-9 8 -16 18 -16 9 0 13 -4 7 -8 -14 -10 -14 -65 -1 -74 8 -5 7 -8 -1 -8 -8 0
-9 -9 -5 -27 8 -30 7 -120 -1 -168 -17 -102 -5 -145 48 -164 27 -10 39 -10 57
1 13 7 26 11 31 10 4 -1 7 5 7 14 0 9 13 29 28 44 33 31 28 44 -25 75 -18 11
-32 24 -31 30 0 5 -2 18 -6 27 -5 10 -4 35 1 55 9 41 2 37 133 61 25 4 91 8
147 7 101 0 101 0 132 -32 17 -19 31 -44 31 -57 0 -25 -23 -56 -41 -56 -6 0
-7 -4 -4 -10 4 -6 -8 -11 -27 -12 -18 -1 -46 -3 -63 -4 -16 -1 -38 -3 -47 -3
-10 -1 -18 -7 -18 -15 0 -8 -7 -16 -15 -19 -8 -4 -12 -15 -10 -26 5 -25 35
-72 44 -67 7 5 58 -20 52 -26 -8 -8 21 -87 39 -103 11 -10 20 -24 20 -31 0
-17 13 -24 49 -29 66 -8 72 -13 69 -58 -5 -50 -13 -67 -36 -67 -9 0 -29 -6
-44 -14 -19 -10 -28 -11 -31 -3 -2 8 -26 6 -78 -7 -49 -11 -96 -16 -139 -12
-36 2 -78 5 -95 5 -29 1 -30 2 -28 50 0 28 -5 58 -12 67 -11 16 -8 21 19 44
18 14 31 31 28 38 -2 7 2 19 8 27 9 11 9 15 1 15 -6 0 -11 9 -11 21 0 16 -4
19 -20 14 -11 -4 -20 -2 -20 4 0 14 -67 14 -75 1 -3 -5 -14 -10 -24 -10 -33 0
-71 -39 -71 -72 0 -39 21 -109 30 -103 5 3 10 -2 14 -10 3 -8 1 -17 -4 -20 -5
-3 -5 -18 0 -35 8 -28 6 -34 -12 -31 -5 0 -8 -3 -8 -9 0 -6 -49 -9 -122 -9
-115 1 -156 -2 -177 -15 -10 -7 -74 14 -67 21 3 3 1 15 -5 26 -16 29 -2 127
19 133 80 25 132 68 132 109 0 13 4 26 9 29 11 7 -6 105 -24 132 -7 11 -16 34
-18 50 -3 16 -10 43 -15 59 -5 17 -8 45 -7 63 1 18 -2 35 -6 38 -5 2 -6 11 -3
19 3 8 -4 19 -18 26 -41 22 -68 64 -68 107 0 41 38 50 193 48 110 -2 130 -4
139 -19z m-1652 -192 c41 -8 77 -20 78 -25 2 -6 11 -10 20 -10 27 0 42 -15 48
-46 2 -16 10 -44 15 -63 15 -46 19 -124 7 -138 -6 -8 -4 -23 6 -45 9 -18 16
-42 16 -53 0 -11 0 -40 1 -64 0 -24 4 -52 9 -62 7 -12 6 -19 -3 -22 -18 -7 26
-45 59 -51 31 -6 79 16 93 42 12 22 17 64 9 77 -8 14 2 65 13 65 5 0 10 -6 10
-12 1 -7 3 -24 5 -38 8 -47 5 -90 -8 -113 -7 -12 -11 -27 -10 -34 2 -7 -7 -17
-18 -23 -11 -6 -19 -14 -16 -18 8 -14 -92 -52 -146 -56 -41 -4 -64 1 -98 18
-25 12 -45 29 -45 37 0 22 -36 49 -65 49 -29 0 -72 -34 -101 -79 -12 -19 -24
-24 -60 -25 -24 -1 -48 1 -54 5 -14 10 -89 20 -167 23 -37 1 -69 4 -70 6 -50
73 -62 154 -29 196 10 13 21 21 23 18 3 -2 25 2 49 9 24 8 77 24 117 36 40 13
70 27 67 32 -4 5 4 9 16 9 40 0 129 52 136 80 3 14 14 35 25 46 19 22 23 43
14 79 -2 11 -5 28 -5 38 -1 16 -26 31 -76 44 -31 8 -90 4 -93 -7 -2 -6 -16
-10 -31 -10 -31 0 -51 -16 -51 -40 0 -23 34 -60 53 -60 14 0 15 -4 4 -27 -6
-16 -15 -31 -20 -34 -4 -3 -7 -12 -5 -20 2 -8 -4 -13 -14 -11 -9 1 -19 -2 -23
-8 -8 -14 -51 -13 -92 2 -38 14 -43 35 -29 135 6 40 23 72 55 101 27 24 81 56
81 48 0 -3 15 1 33 9 19 8 43 12 54 9 12 -3 23 -2 26 4 7 10 73 2 187 -23z
m928 -31 c23 -4 42 -11 42 -17 0 -6 3 -8 6 -4 8 8 82 -19 100 -38 9 -8 19 -13
24 -10 10 6 42 -43 35 -55 -3 -5 -2 -11 3 -14 5 -3 9 -27 11 -53 2 -44 -1 -50
-28 -66 -36 -21 -64 -23 -118 -8 -34 9 -43 16 -43 34 0 18 -2 19 -10 7 -8 -13
-10 -12 -10 3 0 10 7 20 15 23 8 4 15 12 15 20 0 8 4 14 9 14 19 0 20 31 2 62
-12 23 -26 33 -44 35 -15 1 -35 6 -44 12 -13 7 -23 5 -34 -5 -9 -8 -26 -16
-38 -17 -11 -1 -21 -7 -21 -14 0 -7 -5 -12 -12 -10 -6 1 -16 -11 -22 -28 -6
-16 -14 -32 -18 -35 -15 -12 -29 -63 -18 -70 11 -7 10 -37 -3 -57 -4 -6 -3
-15 3 -18 8 -5 8 -11 0 -20 -8 -9 -8 -15 0 -20 6 -3 8 -11 5 -16 -8 -12 20
-51 30 -41 5 4 5 2 2 -4 -12 -22 56 -85 98 -93 45 -8 145 6 145 20 0 15 40 50
50 44 5 -3 19 0 30 7 33 21 43 -7 18 -51 -26 -46 -53 -72 -78 -74 -11 -1 -20
-5 -20 -9 0 -4 -19 -12 -42 -18 -24 -6 -55 -16 -69 -21 -14 -6 -64 -10 -111
-10 -88 -1 -132 12 -202 60 -17 11 -33 18 -37 15 -8 -4 -21 22 -24 48 -1 10
-13 28 -26 40 -21 20 -26 36 -19 61 6 22 3 57 -7 69 -8 9 -8 27 -2 58 10 50
17 75 19 75 1 0 4 11 6 25 4 24 74 100 92 100 5 0 17 9 27 20 10 11 29 20 42
20 12 0 23 4 23 9 0 14 57 25 117 23 28 -1 55 3 58 8 5 8 11 8 19 1 7 -6 31
-13 54 -17z m-2487 -101 c6 -19 13 -58 15 -86 2 -29 6 -79 9 -112 5 -71 4 -63
8 -72 1 -3 -22 -7 -50 -7 l-53 -1 0 33 c0 18 -9 49 -19 70 -19 37 -21 43 -21
63 0 6 -16 26 -35 44 -19 19 -30 37 -25 40 6 3 10 2 10 -3 0 -6 14 -6 36 1 35
11 60 39 49 56 -2 5 11 9 30 9 30 0 35 -4 46 -35z m4191 -318 c10 -11 21 -24
26 -30 5 -5 1 -30 -9 -57 -9 -27 -15 -48 -12 -48 2 0 -3 -7 -11 -16 -9 -8 -20
-12 -26 -9 -5 3 -10 2 -10 -3 0 -6 -7 -13 -16 -16 -9 -3 -12 -2 -9 5 4 6 1 9
-6 8 -8 -1 -22 1 -31 4 -10 4 -24 9 -32 11 -7 2 -20 25 -28 49 -12 38 -13 51
-2 76 7 17 20 31 29 31 9 0 14 3 12 8 -3 4 20 7 51 7 45 0 61 -4 74 -20z"/>
<path d="M11190 818 c-19 -10 -30 -18 -25 -18 6 0 6 -3 0 -8 -19 -13 -45 -61
-45 -83 0 -39 77 -88 95 -60 3 5 18 12 34 16 59 13 88 106 48 148 -26 27 -59
28 -107 5z"/>
<path d="M7975 1474 c-45 -14 -95 -54 -95 -77 0 -5 -15 -22 -34 -39 -31 -27
-34 -35 -31 -74 3 -36 0 -46 -16 -54 -10 -6 -19 -17 -19 -25 0 -21 -13 -19
-46 10 -16 14 -44 28 -62 31 -48 9 -123 -2 -159 -23 -27 -15 -37 -16 -76 -6
-30 8 -55 9 -78 3 -22 -7 -49 -6 -83 3 -28 6 -105 12 -172 12 -101 0 -123 -3
-138 -17 -10 -10 -21 -18 -26 -18 -19 0 -20 -40 -1 -73 21 -37 31 -152 17
-176 -5 -7 -5 -27 -2 -45 6 -29 11 -34 49 -42 44 -10 53 -27 41 -82 -5 -22 -8
-23 -57 -17 -61 8 -72 16 -94 64 -10 19 -25 43 -34 52 -15 15 -27 39 -78 149
-9 19 -20 38 -26 42 -5 4 1 8 15 8 30 0 40 7 62 40 14 23 14 28 1 45 -14 20
-14 65 2 171 5 39 4 42 -22 49 -21 5 -24 8 -12 16 10 6 3 9 -26 10 -124 5
-200 8 -280 9 -49 1 -95 6 -101 11 -16 13 -201 13 -236 0 -39 -15 -58 -68 -60
-168 -1 -46 -4 -86 -8 -88 -4 -2 -6 -14 -4 -27 1 -13 3 -26 3 -31 1 -4 16 -15
35 -24 34 -16 35 -18 32 -68 -2 -29 -11 -63 -20 -76 -9 -13 -16 -31 -16 -40 0
-10 -10 -26 -22 -36 -26 -21 -58 -74 -58 -95 0 -17 -42 -42 -60 -36 -18 6 -73
-49 -67 -67 4 -8 2 -17 -3 -20 -4 -3 -2 -18 6 -35 12 -24 13 -40 5 -87 -15
-80 -14 -113 4 -113 8 0 15 -5 15 -11 0 -7 26 -9 88 -3 147 12 281 6 322 -16
14 -8 20 -8 20 0 0 7 9 5 22 -4 15 -11 26 -12 40 -5 10 6 44 12 76 15 70 6
241 6 252 -1 16 -10 210 -13 210 -4 0 5 6 9 14 9 8 0 16 7 20 15 3 8 10 15 16
15 6 0 8 -4 5 -10 -8 -12 -12 -12 215 -15 102 -1 227 -5 279 -8 83 -5 117 0
140 19 9 8 11 73 2 79 -6 3 -11 13 -11 22 0 8 -7 30 -16 49 -12 25 -14 45 -9
72 12 59 14 116 3 130 -7 8 -6 12 3 13 42 2 66 13 105 49 24 22 46 40 48 40 3
0 3 -14 1 -31 -4 -29 -39 -67 -57 -61 -5 1 -8 -14 -8 -34 0 -19 4 -33 8 -30 7
4 9 -3 13 -59 1 -14 6 -25 12 -25 6 0 8 -3 4 -6 -3 -4 0 -18 7 -33 7 -14 12
-35 10 -46 -2 -11 -5 -39 -5 -63 -2 -59 18 -74 91 -67 30 3 147 6 258 6 161 0
208 -3 225 -14 51 -33 154 61 126 115 -19 35 -19 100 -2 155 17 54 17 56 -2
69 -11 8 -36 17 -57 21 -21 3 -38 11 -39 17 0 6 -3 25 -5 41 -3 17 -5 37 -6
45 0 8 -8 67 -18 130 -10 63 -16 134 -14 157 3 36 0 44 -19 54 -33 18 -35 26
-23 76 8 36 7 48 -2 51 -7 2 -12 12 -12 22 0 34 -71 97 -129 114 -66 19 -100
19 -166 0z m110 -78 c51 -22 105 -78 105 -110 0 -14 -4 -26 -10 -26 -5 0 -10
-7 -10 -15 0 -20 -52 -45 -96 -45 -20 0 -53 9 -73 21 -31 17 -40 30 -55 81
-10 33 -15 63 -11 66 8 9 86 40 103 41 7 1 28 -6 47 -13z m-1665 -50 c74 -6
126 -13 190 -26 25 -5 67 -12 93 -16 l48 -5 -2 -64 c-2 -63 -2 -63 -30 -60
-16 2 -31 0 -34 -6 -4 -5 -13 -9 -22 -9 -9 0 -21 -7 -28 -17 -14 -19 -1 -52
36 -92 30 -32 102 -180 95 -196 -3 -8 5 -22 17 -32 14 -11 21 -27 19 -40 -2
-13 2 -23 8 -23 6 0 8 -4 5 -10 -9 -14 23 -70 40 -70 8 0 15 -7 15 -15 0 -8 6
-12 13 -9 19 7 47 -49 47 -94 0 -60 -15 -67 -149 -69 -64 -1 -171 -4 -239 -6
-98 -3 -122 -1 -118 9 3 7 1 16 -4 19 -12 8 -3 105 12 122 7 9 7 13 -1 13 -6
0 -11 7 -11 16 0 10 5 14 15 10 18 -7 65 13 66 28 1 6 3 24 5 40 5 44 -14 52
-132 51 -121 -2 -151 -15 -134 -59 5 -13 6 -27 3 -30 -4 -3 -2 -6 4 -6 26 0
71 -57 82 -104 7 -27 9 -51 6 -54 -3 -3 -21 -6 -41 -8 -20 -1 -41 -7 -47 -13
-6 -6 -26 -11 -43 -11 -18 0 -36 -5 -39 -11 -4 -5 -19 -8 -33 -5 -15 3 -43 7
-62 8 -19 2 -42 10 -51 19 -20 20 -35 89 -19 89 5 0 9 3 8 8 -4 19 16 42 37
42 36 0 55 10 55 30 0 11 5 22 10 25 6 4 8 11 5 16 -4 5 0 9 7 9 12 0 36 50
53 108 3 12 10 22 15 22 8 0 22 55 35 135 4 22 12 49 18 60 27 49 9 116 -28
101 -8 -3 -15 -1 -15 4 0 6 -6 10 -14 10 -15 0 -25 39 -21 85 1 17 3 42 3 57
2 22 7 27 35 30 36 4 120 1 217 -6z m880 -208 c30 -7 54 -18 53 -23 0 -6 2
-17 6 -25 5 -8 5 -26 1 -40 -10 -37 17 -80 51 -80 29 0 40 16 46 65 2 17 8 32
13 33 6 2 10 9 10 15 0 7 16 25 37 41 30 25 45 29 94 29 66 0 82 -9 110 -67
20 -42 26 -121 9 -131 -5 -3 -10 -15 -10 -26 0 -43 -82 -78 -108 -46 -5 6 -10
29 -10 50 0 45 -3 50 -37 50 -14 0 -28 3 -31 8 -6 10 -54 1 -68 -12 -6 -5 -11
-14 -12 -21 -2 -7 -6 -24 -10 -38 -11 -38 -12 -110 -2 -110 5 0 6 -9 3 -20 -7
-22 -8 -65 -2 -94 2 -13 19 -24 50 -33 38 -11 47 -19 57 -48 10 -30 8 -39 -12
-73 -22 -40 -78 -69 -102 -55 -22 14 -236 22 -269 11 -19 -7 -32 -7 -42 2 -8
6 -19 9 -25 5 -5 -3 -10 -2 -10 3 0 6 -11 13 -25 16 -14 4 -24 10 -21 14 3 5
1 25 -4 45 -4 21 -4 37 1 37 5 0 8 3 8 8 -6 36 4 52 46 72 46 22 71 52 60 70
-4 6 -6 39 -6 74 0 78 -18 105 -68 104 -18 -1 -37 5 -42 13 -5 8 -8 55 -7 106
l3 92 105 -4 c58 -2 130 -10 160 -17z m645 -7 c23 -16 126 -19 233 -6 35 4 62
4 63 -1 0 -5 3 -18 5 -29 3 -11 7 -31 9 -45 2 -14 8 -44 13 -68 5 -23 6 -45 1
-47 -4 -3 -3 -20 2 -38 10 -36 13 -118 4 -159 -7 -36 47 -92 82 -85 30 6 43
-22 43 -94 0 -42 -3 -50 -17 -47 -10 1 -25 -2 -33 -7 -8 -5 -101 -8 -208 -7
-171 3 -197 5 -231 23 -43 22 -51 39 -56 116 -5 57 -6 56 68 69 52 9 66 34 66
117 -1 74 -4 77 -76 75 -18 -1 -35 1 -37 3 -8 7 -9 236 -2 248 7 10 46 0 71
-18z"/>
<path d="M6337 1056 c-11 -9 -19 -30 -21 -64 -2 -30 -10 -58 -20 -68 -13 -12
-14 -19 -5 -30 6 -8 8 -14 5 -14 -4 0 -2 -8 3 -18 14 -27 118 -30 148 -5 23
20 25 62 4 86 -7 9 -9 22 -5 29 11 17 5 60 -10 76 -18 18 -78 23 -99 8z"/>
<path d="M4020 1423 c-133 -14 -298 -73 -321 -115 -5 -10 -6 -18 -2 -18 4 0
-3 -7 -15 -16 -12 -8 -22 -22 -22 -30 0 -8 -4 -14 -9 -14 -4 0 -12 -19 -17
-42 l-9 -43 -25 43 c-13 23 -27 42 -32 42 -4 0 -8 6 -8 13 0 13 -31 41 -90 85
-22 16 -63 35 -135 62 -29 11 -221 5 -278 -9 -26 -6 -70 -22 -97 -35 -27 -13
-64 -26 -83 -30 -46 -9 -89 -43 -130 -102 -48 -69 -97 -160 -97 -178 0 -9 -5
-16 -11 -16 -8 0 -9 12 -4 38 8 42 9 46 7 89 -1 17 -9 38 -17 47 -8 8 -15 18
-15 23 0 13 -80 82 -103 88 -70 19 -104 30 -122 42 -11 7 -32 13 -47 13 -15 0
-30 5 -33 10 -8 13 -261 4 -320 -11 -76 -19 -149 -54 -181 -87 -42 -43 -117
-193 -116 -230 2 -92 62 -183 129 -198 21 -4 49 -7 63 -6 l25 2 -25 -20 c-68
-55 -144 -146 -134 -162 3 -4 -1 -11 -9 -14 -8 -3 -14 -20 -15 -41 -1 -19 -6
-40 -11 -47 -5 -6 -12 -31 -16 -56 -4 -25 -12 -53 -17 -63 -6 -13 -4 -29 9
-55 18 -36 19 -36 85 -39 37 -1 76 -7 87 -12 10 -6 38 -13 61 -16 34 -4 41 -2
37 9 -4 10 -1 13 8 9 9 -3 18 4 24 20 11 28 41 37 103 28 67 -10 399 -5 406 5
4 5 27 25 51 43 47 38 72 85 91 174 15 75 33 76 30 2 -1 -24 84 -135 103 -135
6 0 23 -13 39 -30 15 -16 38 -30 51 -30 13 0 27 -4 32 -9 31 -28 217 -53 290
-38 94 18 219 60 246 83 8 8 19 14 23 14 5 0 27 20 50 44 55 59 66 73 66 86 0
5 4 10 8 10 5 0 14 16 22 35 8 19 17 35 20 35 11 0 48 127 55 188 6 49 9 52
24 39 18 -17 78 -35 102 -32 9 2 32 6 50 9 30 6 31 5 14 -5 -11 -7 -22 -15
-25 -19 -3 -4 -24 -19 -48 -34 -24 -15 -45 -33 -49 -41 -3 -8 -10 -15 -15 -15
-25 0 -55 -36 -53 -65 1 -17 -3 -36 -8 -43 -6 -7 -12 -39 -14 -70 -2 -31 -6
-68 -10 -82 -3 -14 -7 -28 -7 -32 -1 -3 -4 -10 -8 -14 -12 -12 -10 -19 20 -50
20 -22 38 -31 67 -33 22 -1 60 -7 84 -12 34 -8 51 -6 82 8 21 9 39 20 39 24 0
13 40 17 80 8 23 -5 59 -12 82 -14 22 -3 44 -8 48 -10 5 -3 52 -8 106 -11 95
-5 102 -4 166 25 45 21 69 38 74 53 4 13 17 37 30 54 13 17 21 33 18 37 -6 5
6 52 28 110 12 31 28 36 28 9 0 -10 7 -27 15 -38 8 -10 15 -28 15 -39 0 -23
54 -75 78 -75 8 0 29 -10 46 -23 49 -36 175 -86 231 -92 112 -12 135 -13 135
-4 0 6 9 7 21 4 26 -8 151 24 162 42 4 7 16 13 26 13 9 0 38 13 64 30 26 16
52 30 57 30 6 0 10 4 10 9 0 4 11 20 24 34 60 64 97 288 72 438 -7 47 -53 173
-76 211 -18 30 -142 138 -158 138 -5 0 -17 9 -27 20 -10 11 -37 22 -64 26 -25
4 -48 10 -51 15 -3 4 -50 11 -105 14 -97 6 -103 6 -200 -30 -54 -19 -106 -42
-115 -49 -8 -8 -25 -17 -37 -20 -13 -4 -23 -13 -23 -19 0 -7 -9 -18 -19 -24
-10 -7 -29 -43 -42 -80 -12 -37 -29 -78 -37 -91 -8 -12 -12 -25 -10 -28 3 -2
0 -32 -7 -65 -7 -33 -12 -95 -11 -138 l1 -79 -35 5 c-19 3 -59 12 -88 20 -46
13 -50 16 -37 29 8 9 15 20 15 25 0 5 6 9 14 9 15 0 68 64 64 77 -1 4 3 18 11
31 7 13 15 53 18 90 5 57 2 75 -16 110 -11 22 -21 48 -21 56 0 36 -203 182
-243 174 -11 -2 -131 9 -167 16 -8 1 -31 1 -50 -1z m168 -97 c56 -6 145 -57
191 -110 23 -26 39 -51 36 -56 -3 -5 -1 -11 4 -15 6 -3 9 -35 7 -71 -4 -60 -7
-67 -45 -104 -23 -22 -41 -44 -41 -50 0 -15 -38 -50 -55 -50 -8 0 -15 -5 -15
-10 0 -6 -3 -9 -7 -9 -5 1 -11 0 -15 -1 -5 -1 -11 -3 -15 -4 -36 -7 -103 -32
-103 -37 0 -6 -44 -21 -46 -16 0 1 -8 -4 -17 -12 -10 -7 -17 -10 -17 -6 0 4
-7 2 -15 -5 -12 -10 -15 -10 -15 1 0 8 -7 4 -16 -9 -8 -12 -22 -22 -30 -22 -8
0 -14 -7 -14 -15 0 -8 -5 -15 -11 -15 -24 0 -98 -61 -108 -90 -9 -26 -7 -34 9
-50 29 -29 67 -25 102 10 16 17 44 38 61 47 46 23 153 29 208 10 82 -28 123
-30 152 -7 15 12 26 24 26 28 -5 30 4 40 37 44 52 6 57 -13 23 -90 -16 -35
-29 -69 -29 -75 0 -7 -15 -27 -33 -44 -39 -38 -118 -60 -159 -44 -14 5 -29 7
-32 4 -3 -3 -11 -1 -19 5 -7 6 -44 16 -82 22 -39 6 -82 13 -96 15 -15 3 -47 1
-73 -4 -27 -5 -49 -5 -52 0 -3 5 -11 6 -17 2 -7 -4 -20 -6 -30 -5 -10 2 -25
-2 -32 -8 -9 -7 -22 -9 -32 -4 -10 4 -21 8 -25 8 -17 2 -18 17 -4 57 9 24 16
53 16 64 0 28 33 91 62 119 13 13 43 34 68 47 25 13 59 37 75 53 17 15 45 34
63 42 18 8 35 21 39 29 3 8 11 15 19 15 8 0 14 4 14 9 0 13 47 61 54 54 3 -3
8 2 11 11 3 9 8 24 11 34 9 26 12 112 4 112 -3 0 -13 11 -20 25 -7 13 -16 24
-19 23 -8 -2 -43 11 -61 23 -39 24 -69 30 -117 26 -107 -11 -140 -52 -85 -104
35 -33 49 -78 27 -87 -8 -3 -12 -11 -10 -19 9 -21 -41 -60 -75 -59 -49 1 -69
11 -93 48 -58 84 18 247 140 300 36 15 212 33 261 27 12 -2 39 -5 60 -7z m942
-26 c25 -6 54 -17 65 -24 11 -7 35 -17 53 -20 31 -7 122 -85 122 -106 0 -5 7
-10 15 -10 8 0 15 -7 15 -15 0 -9 7 -18 15 -21 8 -3 17 -21 21 -40 3 -19 10
-37 15 -39 4 -3 6 -15 4 -27 -3 -12 -1 -26 4 -32 4 -6 9 -18 9 -26 1 -8 3 -41
5 -72 6 -103 -8 -175 -44 -229 -19 -27 -45 -53 -59 -59 -14 -6 -43 -22 -65
-35 -22 -14 -50 -25 -61 -25 -12 0 -27 -7 -34 -15 -7 -9 -15 -13 -17 -11 -3 2
-26 -2 -51 -10 -67 -22 -191 -18 -258 7 -30 11 -76 38 -104 60 -27 21 -53 39
-58 39 -19 0 -63 43 -80 78 -23 48 -22 249 1 342 2 8 7 33 12 55 4 22 12 49
18 60 11 22 57 65 70 65 4 0 7 6 7 13 0 39 116 106 188 108 15 0 36 4 46 8 19
7 64 2 146 -19z m-1882 6 c24 -3 54 -12 68 -20 13 -9 30 -16 38 -16 16 0 80
-39 107 -65 9 -8 19 -15 24 -15 22 0 65 -66 71 -109 4 -25 10 -50 13 -56 4 -5
8 -37 10 -70 2 -33 8 -63 15 -67 8 -6 8 -8 0 -8 -7 0 -11 -18 -9 -50 1 -27 -2
-50 -6 -50 -5 0 -9 -5 -9 -11 0 -15 -30 -77 -55 -115 -19 -28 -61 -68 -148
-141 -15 -13 -32 -23 -38 -23 -5 0 -27 -8 -48 -18 -21 -10 -57 -19 -80 -20
-24 -1 -48 -5 -54 -9 -36 -22 -257 19 -257 48 0 5 -6 9 -14 9 -8 0 -18 9 -21
20 -4 11 -28 45 -54 75 -26 30 -53 71 -59 92 -7 21 -19 62 -28 91 -13 40 -15
69 -9 120 4 37 7 77 6 90 -1 31 40 100 79 132 16 14 30 32 30 40 0 16 51 80
63 80 5 0 29 10 55 22 102 48 179 59 310 44z m-1008 -16 c72 -13 78 -15 86
-23 4 -4 18 -7 30 -7 13 0 25 -4 29 -9 3 -5 19 -12 36 -16 17 -4 33 -13 36
-21 2 -7 14 -16 24 -19 60 -19 95 -106 63 -159 -23 -39 -98 -115 -144 -146
-19 -13 -39 -28 -45 -34 -16 -18 -94 -56 -115 -56 -10 0 -31 -10 -47 -23 -27
-21 -161 -91 -230 -118 -17 -7 -30 -16 -27 -20 2 -4 0 -10 -5 -13 -14 -9 11
-54 34 -60 38 -11 74 -6 87 12 22 29 59 44 112 47 50 3 146 -21 146 -36 0 -4
12 -6 27 -4 14 1 39 -1 54 -5 19 -6 34 -3 55 11 16 10 25 19 20 19 -6 0 -2 6
8 13 9 7 16 18 14 25 -2 7 10 20 25 30 27 16 29 16 42 -2 17 -23 10 -72 -16
-106 -11 -14 -24 -35 -29 -47 -5 -13 -16 -23 -24 -23 -7 0 -16 -6 -19 -14 -4
-10 -21 -15 -49 -15 -24 0 -59 -2 -78 -5 -58 -7 -154 -9 -170 -3 -36 13 -121
29 -135 23 -8 -3 -17 0 -21 6 -5 7 -12 5 -21 -7 -7 -11 -13 -14 -13 -8 0 6
-11 8 -25 5 -14 -2 -25 -8 -25 -11 0 -4 -6 -8 -12 -9 -7 0 -31 -7 -52 -15 -31
-11 -44 -12 -59 -3 -16 10 -17 19 -11 71 3 33 12 69 19 80 7 11 16 31 20 44
13 45 133 151 170 151 8 0 15 5 15 10 0 6 12 16 28 23 50 22 157 121 147 137
-3 5 3 11 13 14 32 10 47 56 32 96 -3 7 -7 23 -8 36 -4 24 -49 62 -82 69 -77
16 -100 16 -100 1 0 -10 -9 -13 -27 -11 -18 2 -36 -4 -50 -17 -25 -23 -19 -57
17 -106 l23 -30 -22 -35 c-24 -39 -81 -70 -128 -70 -33 0 -65 26 -83 69 -9 22
0 80 16 105 5 8 10 25 12 38 3 24 31 65 74 108 23 24 120 60 173 65 77 8 134
7 185 -2z m1823 -227 c3 -13 1 -26 -4 -29 -5 -3 -7 -10 -4 -15 4 -5 1 -9 -4
-9 -6 0 -11 -6 -11 -14 0 -11 -39 -31 -46 -23 -1 1 5 22 13 46 8 25 13 60 10
78 l-6 33 23 -23 c13 -12 26 -32 29 -44z m-1429 -111 c-4 -26 -8 -74 -9 -107
-3 -74 -2 -70 -20 -55 -12 10 -15 10 -15 0 0 -9 -15 -11 -57 -7 -32 4 -66 6
-75 7 -27 0 -22 29 7 42 14 6 25 17 25 25 0 7 7 13 15 13 8 0 24 10 34 23 11
12 31 36 45 52 15 17 29 38 32 48 11 34 24 5 18 -41z m1356 -12 c0 -5 -9 -10
-21 -10 -11 0 -17 5 -14 10 3 6 13 10 21 10 8 0 14 -4 14 -10z m350 -159 c0
-17 -22 -71 -30 -71 -4 0 -26 6 -48 14 -22 8 -43 12 -46 9 -3 -4 -6 -2 -6 4 0
5 14 10 31 11 19 0 37 9 46 21 14 21 53 29 53 12z"/>
<path d="M5018 1162 c-26 -15 -49 -29 -52 -32 -17 -19 -31 -360 -14 -360 4 0
5 -7 2 -15 -18 -46 69 -145 128 -145 49 0 91 62 103 150 4 30 13 78 20 105 8
28 12 75 10 105 -2 30 -4 71 -5 90 0 23 -9 44 -25 62 -14 15 -25 30 -25 34 0
15 -37 33 -65 33 -16 -1 -51 -13 -77 -27z"/>
<path d="M3067 1098 c-35 -45 -47 -69 -44 -86 3 -16 0 -22 -8 -18 -9 3 -16
-18 -24 -72 -6 -42 -13 -77 -15 -79 -2 -3 4 -26 14 -53 10 -28 16 -59 13 -69
-5 -18 21 -65 54 -99 7 -7 13 -19 13 -25 0 -14 54 -47 77 -47 32 0 92 60 111
113 18 48 33 169 33 262 -1 79 -40 215 -63 215 -5 0 -7 3 -4 8 2 4 -21 9 -52
10 l-57 3 -48 -63z"/>
<path d="M805 1331 c-3 -2 -19 -4 -37 -3 -54 2 -268 -79 -268 -101 0 -4 -5 -5
-11 -2 -6 4 -16 0 -22 -8 -7 -8 -21 -17 -31 -19 -12 -2 -31 -25 -49 -58 -15
-30 -36 -64 -45 -76 -9 -11 -18 -27 -20 -35 -2 -8 -14 -35 -27 -60 -18 -36
-20 -50 -12 -59 9 -9 9 -11 1 -7 -7 4 -14 -3 -16 -18 -3 -14 -1 -25 5 -25 5 0
5 -6 -2 -14 -13 -15 2 -69 28 -100 9 -11 11 -16 4 -13 -35 21 -13 -41 45 -127
14 -21 27 -44 28 -51 1 -8 14 -29 28 -48 14 -19 26 -39 26 -45 0 -14 56 -72
70 -72 5 0 10 -6 10 -14 0 -17 31 -37 95 -60 28 -11 55 -22 60 -26 9 -6 58
-22 77 -24 3 -1 9 -3 12 -6 5 -5 163 13 176 20 3 2 10 4 15 4 32 5 155 60 170
76 10 11 23 20 29 20 6 0 20 12 31 27 11 15 38 46 60 68 22 22 41 47 43 55 2
7 17 41 34 74 25 51 31 76 34 148 2 48 0 89 -4 92 -5 3 -8 22 -7 42 4 65 -41
189 -79 219 -7 6 -16 20 -20 31 -4 12 -27 39 -53 60 -25 22 -55 47 -65 57 -10
9 -20 17 -23 17 -3 0 -36 14 -73 32 -55 26 -80 32 -140 33 -40 0 -75 -1 -77
-4z m202 -127 c27 -16 51 -28 54 -27 9 3 109 -95 109 -106 0 -5 4 -11 8 -13
13 -5 50 -62 54 -83 1 -11 6 -22 10 -25 3 -3 9 -53 11 -112 5 -100 4 -110 -19
-155 -14 -26 -26 -62 -28 -79 -7 -63 -97 -164 -148 -164 -9 0 -19 -4 -22 -9
-3 -4 -26 -14 -51 -21 -25 -7 -45 -17 -45 -21 0 -5 -13 -9 -29 -9 -16 0 -41
-7 -57 -14 -15 -8 -31 -13 -36 -10 -4 3 -8 1 -8 -5 0 -5 -12 -4 -27 5 -16 7
-34 14 -40 14 -7 0 -13 4 -13 9 0 5 -8 7 -19 4 -10 -2 -24 2 -32 10 -8 7 -25
16 -39 20 -27 7 -127 78 -147 104 -7 9 -10 20 -7 24 3 5 0 9 -5 9 -6 0 -11 7
-11 15 0 8 -4 15 -8 15 -15 0 -31 67 -19 79 7 7 7 17 -1 33 -14 28 -12 66 4
72 8 3 10 -6 7 -30 -3 -21 0 -34 7 -34 6 0 9 -4 5 -9 -3 -5 2 -16 10 -24 8 -9
15 -20 15 -26 0 -6 8 -11 18 -11 14 0 15 -2 2 -10 -13 -8 -8 -14 11 -12 4 1
15 -14 25 -33 10 -19 22 -35 26 -35 5 0 18 -11 29 -24 15 -17 29 -23 45 -20
13 2 24 0 24 -6 0 -5 3 -9 8 -8 14 3 42 -14 37 -23 -3 -4 5 -6 17 -3 13 3 43
7 68 9 140 10 200 25 200 51 0 19 48 64 67 64 20 0 63 38 63 56 0 6 7 17 15
24 9 7 13 20 10 27 -2 8 -1 22 4 32 6 10 12 42 14 72 3 41 0 57 -12 66 -11 8
-12 12 -3 13 17 0 15 57 -3 64 -8 3 -15 12 -15 20 0 8 -4 16 -8 18 -5 2 -27
31 -51 66 -23 34 -46 62 -51 62 -5 0 -19 8 -29 17 -21 18 -52 26 -88 25 -23
-1 -34 -1 -87 -2 -15 0 -34 4 -42 11 -8 6 -22 8 -36 3 -13 -4 -25 -9 -28 -9
-3 -1 -18 -7 -33 -13 -16 -7 -33 -12 -38 -12 -5 0 -9 -4 -9 -9 0 -5 -16 -15
-34 -22 -19 -7 -33 -16 -30 -21 3 -4 -2 -8 -10 -8 -9 0 -16 -9 -16 -20 0 -11
-7 -20 -15 -20 -8 0 -15 -5 -15 -10 0 -6 -11 -28 -25 -51 -14 -22 -23 -44 -20
-49 3 -5 -4 -18 -16 -29 -13 -12 -19 -26 -16 -35 4 -9 2 -16 -3 -16 -6 0 -10
-11 -10 -25 0 -18 -5 -25 -19 -25 -13 0 -18 6 -16 18 1 9 0 22 -4 27 -9 16 -8
95 1 95 5 0 6 5 3 10 -3 6 -2 10 4 10 6 0 8 6 5 14 -6 17 32 96 46 96 6 0 10
6 10 13 0 6 16 29 35 51 19 21 35 42 35 46 0 13 99 51 169 65 36 7 110 12 163
10 86 -3 103 -6 145 -31z m-82 -187 c24 -2 40 -23 47 -59 6 -34 1 -35 -24 -6
-15 17 -31 23 -73 24 -50 2 -55 0 -81 -34 -25 -31 -29 -44 -31 -113 -1 -47 2
-79 8 -79 6 0 7 -5 4 -10 -9 -14 64 -80 87 -80 26 0 75 27 87 47 6 10 11 12
11 6 0 -7 9 -13 20 -13 19 0 20 -1 5 -24 -13 -19 -13 -25 -3 -29 9 -4 7 -6 -4
-7 -20 -3 -37 -6 -40 -9 -2 -2 -16 -4 -33 -6 -16 -2 -40 -7 -52 -10 -13 -3
-23 -1 -23 5 0 7 -6 7 -20 0 -11 -6 -20 -7 -20 -2 0 5 -12 9 -27 9 -29 -1 -89
31 -92 48 -1 6 -9 10 -18 10 -10 0 -23 11 -30 25 -7 14 -13 21 -13 17 0 -5 -5
-5 -10 -2 -8 5 -7 12 1 22 9 11 10 16 1 22 -12 7 -9 45 7 100 6 19 8 38 5 42
-3 5 0 9 6 9 6 0 9 4 6 9 -5 8 68 75 85 77 5 1 10 2 12 3 1 2 29 5 62 8 33 2
62 6 64 8 2 2 15 2 30 -1 14 -3 35 -6 46 -7z"/>
</g>
</svg>
