<?xml version="1.0" standalone="no"?>
<!DOCTYPE svg PUBLIC "-//W3C//DTD SVG 20010904//EN"
 "http://www.w3.org/TR/2001/REC-SVG-20010904/DTD/svg10.dtd">
<svg version="1.0" xmlns="http://www.w3.org/2000/svg"
 width="2692.000000pt" height="491.000000pt" viewBox="0 0 2692.000000 491.000000"
 preserveAspectRatio="xMidYMid meet">

<g transform="translate(0.000000,491.000000) scale(0.100000,-0.100000)"
fill="#000000" stroke="none">
<path d="M1430 3739 c-14 -6 -139 -13 -295 -16 -306 -5 -314 -7 -316 -71 -3
-129 -1 -420 3 -437 3 -11 10 -33 16 -48 7 -15 15 -39 18 -52 9 -37 60 -75 99
-75 19 0 36 -4 39 -9 6 -9 15 -77 20 -156 2 -27 6 -57 10 -65 3 -8 7 -64 10
-125 2 -60 7 -129 11 -151 4 -26 3 -44 -4 -49 -6 -3 -11 -15 -11 -26 0 -45
-55 -115 -123 -157 -57 -34 -82 -116 -70 -222 5 -36 5 -92 2 -125 -6 -51 -3
-68 18 -112 15 -33 31 -53 41 -53 9 0 26 -12 38 -27 l22 -28 309 4 c427 5 422
5 478 3 49 -3 269 12 291 19 7 2 20 -5 30 -17 25 -27 47 -35 119 -42 82 -8
159 -8 225 1 65 8 259 16 526 22 214 5 271 16 267 53 -2 12 2 22 8 22 15 0 36
-23 32 -36 -7 -21 71 -83 153 -124 44 -22 86 -40 92 -40 6 0 32 -9 58 -20 41
-18 68 -21 195 -21 104 1 157 5 181 15 18 8 69 24 113 36 97 27 138 45 155 65
7 8 18 15 25 15 7 0 18 7 25 15 10 12 21 7 72 -36 73 -61 104 -74 133 -59 15
8 29 8 49 1 38 -15 86 -14 136 4 23 8 63 15 89 15 26 0 71 7 101 16 30 8 78
21 105 28 47 11 85 28 109 48 6 4 32 24 59 44 32 24 47 42 47 58 0 13 6 39 14
58 8 19 13 43 11 54 -1 10 4 30 12 43 11 17 15 50 15 117 -1 99 -12 157 -36
189 -9 11 -16 34 -16 51 0 16 -6 37 -12 45 -15 18 -101 39 -158 39 l-39 0 5
82 c3 46 7 85 9 88 7 12 -14 182 -25 195 -6 7 -12 24 -13 37 -4 40 -75 171
-116 214 -39 41 -145 116 -211 149 -19 10 -37 21 -40 24 -18 25 -179 62 -285
66 -44 2 -88 6 -98 10 -29 12 -181 -6 -217 -25 -10 -5 -19 -7 -22 -5 -6 7
-109 -35 -193 -79 -38 -19 -76 -36 -83 -36 -38 0 -176 -104 -187 -141 -4 -10
-12 -19 -20 -19 -14 0 -55 -81 -59 -118 -2 -13 -9 -28 -17 -33 -21 -12 -22
-176 -1 -243 8 -28 17 -57 18 -64 1 -8 14 -32 29 -54 l26 -40 -26 -21 c-38
-31 -87 -81 -107 -108 -10 -13 -27 -36 -38 -51 -11 -14 -20 -31 -20 -37 0 -6
-5 -11 -11 -11 -7 0 -9 11 -6 29 6 27 3 31 -28 41 -19 6 -49 9 -65 5 -29 -6
-31 -4 -60 57 -36 79 -55 212 -45 318 4 41 6 88 6 104 -1 17 5 50 13 75 9 25
23 71 31 101 22 73 44 88 140 95 89 6 99 10 92 36 -3 11 -2 19 1 19 10 0 6
191 -6 305 -6 55 -11 107 -11 115 -1 8 -3 47 -5 85 -1 39 -4 73 -4 76 -5 18
-64 28 -170 28 -66 0 -140 5 -165 11 -27 6 -146 8 -304 4 -159 -3 -285 -1
-328 6 -161 24 -259 31 -267 17 -9 -17 -165 -15 -248 2 -30 6 -102 11 -160 10
-58 -1 -123 2 -145 5 -22 3 -51 1 -65 -5z m-190 -89 c0 -5 -4 -10 -9 -10 -6 0
-13 5 -16 10 -3 6 1 10 9 10 9 0 16 -4 16 -10z m293 3 c-7 -2 -19 -2 -25 0 -7
3 -2 5 12 5 14 0 19 -2 13 -5z m1692 -62 c3 -5 1 -12 -5 -16 -5 -3 -10 1 -10
9 0 18 6 21 15 7z m-1720 -17 c182 -3 364 -5 406 -4 l76 1 6 -133 c4 -73 5
-155 3 -183 -2 -27 -4 -64 -5 -82 -1 -33 -17 -47 -62 -57 -110 -24 -124 -32
-138 -81 -18 -66 7 -220 38 -229 9 -3 72 -10 141 -16 109 -9 157 -8 292 5 34
3 57 21 56 43 0 9 3 42 7 72 8 64 8 104 -2 180 l-8 54 -62 11 c-35 6 -65 14
-67 16 -3 2 -7 63 -10 134 -4 72 -8 156 -11 187 -7 77 4 83 139 72 56 -4 250
-9 431 -9 445 -3 402 1 409 -37 5 -32 25 -260 29 -348 l2 -45 -56 -3 c-48 -2
-63 -8 -98 -39 -46 -39 -85 -108 -101 -177 -8 -35 -13 -231 -9 -361 1 -32 20
-156 31 -205 34 -147 55 -175 123 -174 39 1 44 -1 50 -25 16 -63 1 -320 -19
-322 -6 0 -184 -3 -396 -6 -212 -3 -411 -6 -442 -6 -31 -1 -59 0 -62 3 -5 6
-19 188 -17 228 0 12 -3 22 -7 22 -4 0 -6 15 -4 34 2 18 -1 43 -8 55 -17 33
-5 53 45 80 67 35 95 73 95 127 0 60 -38 227 -54 239 -8 6 -91 10 -202 10
-224 -1 -257 -8 -275 -62 -19 -57 -5 -154 31 -222 28 -53 38 -62 105 -96 55
-28 74 -43 78 -61 7 -37 -4 -201 -17 -253 l-12 -46 -130 -6 c-71 -3 -160 -4
-199 -3 -255 8 -615 1 -637 -12 -6 -4 -8 1 -4 13 4 11 1 51 -5 89 -6 38 -13
109 -15 158 -2 55 -8 92 -15 97 -8 4 -2 12 17 22 16 9 67 51 113 94 l84 78 8
95 c9 110 3 342 -11 415 -6 28 -13 68 -16 89 -11 74 -45 167 -62 173 -9 3 -30
11 -47 18 -16 7 -40 16 -52 19 -41 13 -45 29 -48 193 -2 149 -3 157 -25 175
-22 18 -20 18 121 13 79 -3 293 -8 474 -11z m2750 -420 c138 -24 264 -71 360
-134 82 -54 152 -137 180 -212 19 -49 20 -80 21 -418 0 -432 0 -430 84 -430
48 0 50 1 70 40 25 50 35 139 23 207 l-10 51 45 12 c24 6 46 9 48 7 7 -6 6
-192 -1 -242 -9 -71 -24 -113 -57 -166 -26 -43 -37 -50 -118 -83 -49 -19 -106
-38 -127 -41 -156 -21 -142 -20 -265 -13 -60 4 -96 11 -115 23 -34 22 -103 96
-103 110 0 10 -35 45 -45 45 -3 0 -29 -24 -58 -53 -90 -92 -277 -167 -414
-167 -154 1 -293 49 -374 130 -71 70 -78 88 -80 193 -3 124 9 156 91 232 66
63 91 79 100 65 6 -9 12 -9 29 -1 11 7 21 16 21 21 0 5 9 12 20 15 14 5 20 14
18 28 -3 21 0 22 64 19 88 -5 170 13 226 49 25 16 59 29 74 29 16 0 31 7 34
14 3 8 29 23 57 32 64 20 102 54 133 118 51 106 26 192 -78 273 -43 33 -216
48 -278 24 -49 -18 -120 -53 -125 -61 -12 -20 -14 -70 -3 -71 26 -3 72 5 126
21 40 12 44 12 68 -11 63 -59 68 -136 17 -232 -43 -80 -113 -117 -220 -117
-174 0 -263 144 -212 345 6 22 12 49 13 60 7 47 28 76 81 109 30 20 62 36 70
36 9 0 39 13 68 29 28 16 84 42 122 56 39 15 79 31 90 35 11 5 45 14 75 20 49
9 80 13 145 18 11 1 61 -5 110 -14z m-1005 -20 c0 -8 -5 -12 -10 -9 -6 4 -8
11 -5 16 9 14 15 11 15 -7z m-160 -74 c0 -5 -5 -10 -11 -10 -5 0 -7 5 -4 10 3
6 8 10 11 10 2 0 4 -4 4 -10z"/>
<path d="M4100 2352 c-112 -55 -178 -133 -164 -195 14 -66 40 -88 109 -93 30
-2 48 4 72 22 41 31 53 53 60 112 3 26 12 55 21 65 14 16 13 17 -6 17 -23 0
-29 14 -12 25 6 4 9 19 7 33 -4 34 -37 39 -87 14z"/>
<path d="M14240 3710 c0 -5 7 -10 15 -10 8 0 15 5 15 10 0 6 -7 10 -15 10 -8
0 -15 -4 -15 -10z"/>
<path d="M14285 3623 c-43 -10 -111 -37 -129 -52 -10 -9 -20 -15 -22 -14 -17
10 -114 -79 -114 -104 0 -5 -8 -24 -18 -43 -52 -97 -52 -242 -1 -317 l28 -43
-42 -1 c-23 0 -62 0 -86 1 -24 1 -47 -3 -50 -8 -3 -6 -20 -12 -36 -14 -28 -3
-30 -1 -33 37 -4 54 -26 120 -73 216 -21 44 -39 84 -39 89 0 29 -205 138 -272
144 -24 3 -81 9 -128 15 -142 17 -232 23 -295 20 -33 -1 -73 -2 -90 -1 -283
16 -800 33 -950 32 -43 -1 -85 -6 -91 -11 -7 -6 -48 -11 -91 -13 -69 -2 -79
-5 -89 -24 -6 -12 -18 -30 -26 -39 -13 -15 -15 -57 -13 -288 1 -172 6 -283 14
-306 l11 -36 54 4 c50 4 54 3 50 -14 -3 -11 4 -48 17 -84 12 -35 23 -77 25
-94 2 -16 18 -81 36 -144 28 -104 30 -118 19 -160 -18 -70 -33 -85 -128 -136
-120 -64 -123 -67 -117 -124 2 -25 9 -93 14 -151 6 -58 13 -134 16 -170 5 -65
30 -176 46 -196 4 -6 3 -15 -3 -21 -15 -15 -4 -29 39 -50 30 -15 60 -18 157
-16 66 1 152 7 190 13 135 22 403 28 643 16 193 -10 413 10 557 51 107 30 199
53 215 53 10 0 49 16 86 35 38 19 74 35 79 35 15 1 65 47 65 60 0 13 30 60 39
60 3 0 5 -47 3 -104 -3 -83 0 -106 12 -119 9 -9 16 -19 16 -23 0 -4 11 -22 26
-41 22 -30 52 -42 66 -28 7 8 169 17 243 15 33 -1 69 -2 80 -2 312 1 455 6
570 18 77 8 147 14 155 14 44 0 205 -7 205 -10 0 -10 240 -20 561 -24 116 -2
215 -6 222 -10 6 -3 13 -2 17 4 3 5 17 10 31 10 14 0 39 7 55 16 30 15 30 15
19 -6 -9 -16 -8 -21 4 -26 27 -10 49 1 57 28 4 14 22 40 40 56 l34 30 2 218 1
218 -26 13 c-15 7 -56 16 -91 20 -73 9 -72 7 -57 123 7 54 7 55 41 56 19 0 35
-3 35 -8 0 -4 6 -8 13 -8 6 0 25 -7 41 -15 26 -14 35 -14 85 -1 79 21 228 101
236 127 12 38 53 90 61 78 3 -6 0 -15 -7 -20 -11 -6 -11 -13 -3 -26 14 -22 60
-35 100 -28 l31 5 7 -127 c4 -71 9 -168 11 -218 2 -78 18 -217 28 -265 3 -14
11 -32 40 -100 19 -42 61 -100 74 -100 6 0 18 -8 25 -18 29 -39 80 -64 161
-78 45 -8 89 -17 97 -20 44 -19 199 -19 295 0 168 33 241 63 311 131 26 25 51
45 55 45 5 0 24 21 43 48 20 26 40 52 46 59 5 7 10 19 10 28 0 9 9 15 21 15
12 0 23 8 26 20 3 11 12 20 20 20 13 0 13 -3 3 -15 -9 -11 -11 -39 -5 -108 4
-50 8 -100 8 -110 1 -9 6 -16 11 -14 6 2 19 -4 29 -13 18 -17 92 -32 157 -32
19 1 69 -4 110 -9 115 -15 209 -18 216 -8 3 5 87 9 187 9 136 1 186 4 200 14
12 10 29 11 60 5 23 -4 52 -5 64 -2 13 3 40 -4 65 -17 35 -18 63 -22 172 -26
72 -3 181 -9 241 -14 61 -5 169 -10 242 -11 126 -1 134 0 182 27 28 15 51 31
51 36 0 5 7 16 15 24 8 9 15 34 15 57 0 65 25 91 35 37 2 -12 22 -40 45 -62
22 -22 40 -43 40 -48 0 -14 108 -77 190 -111 91 -38 161 -55 260 -64 41 -3 93
-8 115 -11 22 -2 64 0 93 6 28 5 77 15 107 21 30 6 55 14 55 19 0 5 8 11 18
14 9 3 34 22 55 41 42 38 42 38 89 -8 10 -9 28 -17 41 -17 13 0 27 -3 30 -7 4
-3 19 -7 34 -9 16 -1 40 -5 56 -9 18 -5 43 -1 76 14 39 16 55 19 76 11 24 -9
165 -12 399 -10 44 1 88 5 98 11 18 10 18 10 155 -78 28 -18 57 -33 65 -33 7
0 38 -9 68 -20 87 -32 233 -54 309 -46 36 4 86 9 111 11 25 1 61 9 80 18 19 8
56 18 81 21 25 4 61 18 80 31 18 14 39 25 46 25 7 0 13 5 13 10 0 6 6 10 12
10 7 0 31 20 54 44 l41 44 51 -17 c28 -10 57 -22 64 -28 19 -15 46 -23 108
-34 30 -6 69 -13 85 -17 38 -8 218 -3 225 6 3 4 32 8 65 9 33 0 75 4 93 8 38
8 40 0 10 -32 -18 -19 -23 -40 -29 -125 -4 -57 -3 -112 1 -123 4 -11 8 -24 9
-30 26 -160 176 -329 331 -374 130 -38 223 -53 305 -48 175 10 280 36 375 93
14 8 40 22 58 31 17 9 32 22 32 29 0 7 6 17 13 21 7 4 24 26 39 49 14 22 42
48 61 57 20 10 40 29 47 46 6 16 19 38 28 48 9 11 25 34 35 52 9 18 34 64 54
102 20 38 42 69 49 69 10 0 56 83 75 135 3 11 13 38 22 60 46 120 57 154 66
193 5 23 16 53 25 66 8 13 18 37 20 52 6 32 27 86 36 94 3 3 19 32 35 65 15
33 31 62 35 65 7 5 48 149 57 199 2 14 7 29 11 32 11 10 98 29 130 29 26 0 36
8 47 40 1 3 5 13 9 22 8 17 4 114 -7 173 -2 17 -7 71 -11 120 l-6 90 24 -50
c13 -27 26 -68 30 -90 4 -22 13 -49 19 -60 6 -11 12 -25 13 -31 1 -5 13 -35
27 -65 30 -66 96 -328 84 -334 -1 0 -29 -24 -62 -52 -56 -47 -113 -133 -122
-181 -10 -54 -4 -160 9 -168 4 -3 8 -14 8 -26 0 -30 58 -128 96 -163 119 -109
158 -127 284 -130 94 -2 160 8 160 24 0 4 17 13 39 19 49 15 151 107 151 137
0 12 3 25 7 29 4 4 8 19 10 34 2 15 11 47 20 71 12 33 14 63 10 122 -8 97 -39
163 -101 215 -45 38 -50 54 -17 54 21 0 29 29 32 123 2 46 -1 60 -16 71 -14
10 -17 20 -11 47 4 19 14 84 21 144 8 61 17 121 21 135 27 102 49 438 34 507
-9 36 -56 111 -94 148 -12 12 -57 40 -101 64 l-80 44 -110 1 c-87 0 -118 -4
-148 -19 -22 -10 -41 -24 -44 -32 -3 -7 -10 -13 -17 -13 -20 0 -105 -91 -135
-144 -16 -28 -35 -79 -42 -113 -7 -35 -18 -63 -25 -63 -18 0 -24 -25 -14 -59
11 -38 1 -39 -34 -4 -35 35 -75 39 -341 34 -33 0 -118 0 -190 2 -71 1 -139 -2
-150 -7 -21 -10 -224 -10 -265 0 -27 7 -210 15 -386 17 -70 1 -116 -2 -125 -9
-8 -6 -59 -14 -114 -18 -186 -12 -236 -20 -251 -41 -8 -10 -14 -24 -15 -29 -1
-21 -7 -42 -23 -79 -9 -20 -17 -59 -18 -85 -2 -45 -13 -66 -30 -56 -4 3 -8 14
-8 25 0 11 -7 22 -15 25 -8 4 -15 13 -15 20 0 8 -7 17 -15 20 -8 4 -15 10 -15
15 0 28 -142 199 -165 199 -5 0 -23 12 -42 26 -19 14 -69 39 -111 54 -42 16
-90 35 -107 44 -20 10 -75 17 -165 20 -74 4 -152 9 -172 12 -20 3 -61 1 -91
-6 -29 -6 -85 -11 -123 -11 -73 -1 -184 -17 -184 -28 0 -7 -39 -29 -120 -65
-166 -75 -280 -159 -280 -207 0 -10 -5 -21 -11 -24 -5 -4 -21 -31 -34 -60 -23
-49 -24 -59 -15 -128 5 -41 12 -110 16 -153 3 -44 11 -88 18 -99 41 -72 73
-115 89 -120 22 -8 12 -25 -14 -25 -11 0 -22 -7 -26 -15 -3 -9 -22 -24 -42
-34 -20 -11 -47 -31 -60 -45 -31 -32 -39 -32 -108 1 l-55 27 6 196 c4 107 10
258 14 335 8 167 7 477 -3 595 -8 85 -8 108 -3 145 3 19 -28 40 -87 61 -21 7
-28 8 -335 19 -107 5 -208 9 -225 10 -16 2 -99 4 -183 4 -168 2 -175 0 -218
-63 -26 -39 -32 -102 -20 -226 4 -36 8 -89 11 -118 l4 -53 -77 6 c-86 7 -166
-6 -197 -34 -11 -10 -29 -18 -40 -18 -32 -2 -177 -62 -212 -89 -17 -13 -36
-24 -42 -24 -8 0 -151 -141 -206 -203 -18 -21 -78 -146 -94 -199 -9 -26 -9
-70 -1 -164 5 -70 10 -130 10 -135 0 -4 -16 -2 -35 4 -19 6 -35 15 -35 21 0
61 -11 266 -15 308 -8 71 -30 157 -59 233 -8 22 -15 45 -16 52 0 6 -16 35 -35
64 -19 30 -35 61 -35 70 0 24 -86 98 -151 132 -54 28 -80 32 -248 43 -59 3
-95 1 -120 -9 -20 -8 -41 -12 -47 -10 -6 2 -31 -1 -55 -7 -24 -6 -53 -13 -64
-15 -11 -3 -26 -14 -34 -25 -21 -32 -36 -24 -33 17 1 21 4 73 6 115 3 43 7 81
10 86 11 18 5 191 -7 199 -47 30 -117 42 -352 58 -212 14 -313 16 -319 6 -4
-7 -52 -8 -139 -4 l-133 6 -45 -29 c-54 -36 -70 -54 -63 -74 4 -8 9 -26 12
-40 8 -36 11 -290 3 -290 -4 0 -11 4 -16 8 -22 18 -116 44 -128 35 -6 -5 -41
-7 -77 -4 l-65 6 -1 45 c-1 25 -3 47 -4 50 -1 3 -3 25 -5 50 -5 71 -24 161
-37 179 -50 62 -48 61 -158 76 -90 13 -208 15 -235 5 -17 -6 -55 -13 -85 -16
-30 -2 -71 -10 -90 -18 -19 -8 -47 -17 -62 -20 -19 -4 -28 -13 -28 -26 0 -10
-8 -23 -17 -29 -15 -8 -16 -13 -5 -28 23 -34 23 -41 -1 -92 -14 -28 -23 -59
-20 -69 5 -22 -81 -104 -132 -127 -87 -39 -105 -45 -127 -45 -13 0 -31 -9 -41
-20 -23 -28 -32 -25 -57 15 -24 38 -38 48 -118 81 -92 38 -145 47 -203 35 -77
-17 -245 -91 -278 -123 -29 -28 -41 -28 -41 3 0 27 -21 67 -38 74 -8 3 -21 0
-28 -6 -8 -6 -28 -8 -51 -4 -60 10 -143 16 -213 16 -90 0 -280 -10 -309 -17
-13 -3 -54 -7 -90 -8 -71 -4 -121 -21 -121 -43 0 -8 -11 -13 -27 -13 -28 0
-93 -50 -93 -72 0 -6 11 -21 24 -33 34 -31 46 -81 52 -220 7 -137 16 -182 43
-214 15 -17 17 -28 11 -52 -6 -20 -5 -37 2 -49 11 -17 26 -18 114 -6 19 2 22
-3 26 -50 8 -92 2 -108 -48 -129 -24 -10 -44 -21 -44 -25 0 -4 -22 -10 -50
-14 -27 -4 -52 -11 -55 -16 -11 -17 -37 -11 -42 10 -3 11 -9 20 -13 20 -5 0
-20 31 -35 69 -23 60 -27 90 -32 218 -3 81 -6 173 -7 203 -2 30 -4 122 -4 203
-2 140 -3 149 -22 154 -11 3 -20 9 -20 14 0 4 -19 12 -42 16 -44 9 -51 23 -33
68 4 11 13 34 20 50 12 31 13 131 1 199 -9 51 -54 134 -84 155 -13 9 -43 30
-67 48 -30 22 -72 39 -128 53 -47 11 -89 19 -93 19 -5 -1 -18 -3 -29 -6z m5
-67 c0 -3 -4 -8 -10 -11 -5 -3 -10 -1 -10 4 0 6 5 11 10 11 6 0 10 -2 10 -4z
m163 -104 c43 -19 97 -76 97 -102 0 -8 5 -27 11 -44 9 -25 7 -41 -10 -87 -27
-72 -70 -115 -134 -134 -127 -38 -246 -4 -289 83 -40 82 -32 185 21 246 55 63
204 82 304 38z m-2743 -6 c0 -3 -4 -8 -10 -11 -5 -3 -10 -1 -10 4 0 6 5 11 10
11 6 0 10 -2 10 -4z m335 -20 c88 -4 204 -9 257 -11 54 -3 144 -4 200 -3 275
4 539 0 593 -10 33 -5 107 -17 165 -26 183 -28 228 -46 298 -117 35 -35 48
-59 57 -107 20 -107 27 -178 23 -253 -6 -105 -26 -141 -127 -227 -51 -45 -80
-62 -113 -68 -23 -4 -46 -7 -51 -6 -11 3 -97 -39 -97 -48 0 -8 50 -20 87 -20
25 0 165 -67 215 -104 34 -24 63 -98 89 -221 22 -103 24 -172 8 -262 -15 -85
-40 -114 -126 -142 -37 -12 -72 -26 -78 -30 -29 -23 -193 -64 -300 -75 -22 -2
-89 -9 -150 -16 -123 -13 -372 -14 -575 -1 -131 8 -340 6 -390 -4 -26 -5 -191
-20 -225 -20 -19 0 -20 8 -22 115 -1 63 -3 162 -5 219 l-3 104 45 16 c49 17
61 29 103 104 53 93 69 161 67 277 -4 166 -19 311 -39 363 -6 16 -11 44 -11
63 0 48 -26 70 -94 78 -41 6 -59 13 -67 28 -12 21 -19 382 -7 393 6 7 99 23
108 19 3 -1 77 -5 165 -8z m5308 -110 c3 -17 13 -67 22 -111 30 -148 34 -170
34 -222 1 -77 16 -87 110 -78 100 10 173 7 182 -6 4 -6 10 -41 14 -78 4 -36 8
-73 10 -81 1 -8 5 -55 9 -104 3 -49 8 -92 11 -96 8 -13 -62 -20 -205 -19 -74
0 -140 0 -147 0 -6 -1 -16 -32 -23 -70 -9 -56 -9 -78 4 -127 8 -32 18 -75 21
-94 3 -19 8 -42 10 -50 2 -8 7 -44 10 -80 9 -105 32 -166 75 -200 42 -33 71
-38 90 -15 6 8 21 17 32 21 28 9 52 34 68 74 7 19 18 41 23 48 6 7 13 54 16
105 6 90 6 92 30 89 14 -1 27 -4 29 -6 7 -7 -18 -229 -33 -294 -22 -96 -52
-150 -114 -212 -151 -150 -384 -202 -586 -131 -170 61 -188 77 -227 196 -14
46 -17 69 -23 235 -3 85 -8 180 -10 210 -3 30 -7 79 -10 108 -3 30 -7 57 -10
62 -3 5 -7 32 -10 62 -6 60 -22 78 -70 78 l-31 0 -30 143 c-16 78 -29 146 -29
150 0 5 27 18 60 29 33 11 67 26 75 33 8 6 22 14 30 17 8 3 47 31 86 61 72 56
102 102 144 215 13 34 7 137 -9 156 -7 8 47 11 179 12 l188 0 5 -30z m917 9
c58 -3 181 -5 274 -5 l168 0 -4 -310 c-3 -286 -2 -310 13 -310 10 0 24 -3 33
-6 10 -4 16 -1 16 9 0 8 11 18 25 21 14 4 34 14 43 24 192 184 455 210 617 61
57 -53 109 -131 146 -221 42 -101 41 -100 53 -389 3 -70 10 -138 15 -151 9
-25 37 -40 100 -55 l34 -9 -2 -85 c-1 -46 -4 -94 -6 -104 -2 -11 -4 -62 -4
-113 l-1 -92 -347 6 c-192 4 -351 10 -355 13 -11 10 -12 245 -2 376 13 185 8
357 -12 396 -80 158 -267 142 -351 -29 -23 -48 -26 -65 -25 -150 3 -173 24
-203 150 -216 24 -3 45 -6 47 -8 2 -2 5 -77 6 -167 l2 -163 -239 -4 c-131 -2
-309 -5 -394 -7 -85 -2 -166 -1 -180 3 -27 7 -30 14 -55 160 -9 52 -21 108
-27 123 -9 24 -8 30 9 42 11 7 41 39 67 70 62 72 74 122 82 345 6 168 -8 385
-26 408 -2 1 -3 5 -5 10 -1 4 -7 20 -13 35 -7 16 -12 32 -12 37 0 5 -19 14
-42 20 -63 16 -70 19 -64 28 11 19 6 186 -9 292 -18 122 -18 118 2 123 10 3
52 3 93 1 41 -2 122 -6 180 -9z m2960 -19 c96 -4 217 -8 268 -10 51 -2 97 -7
102 -12 21 -23 29 -176 24 -494 -3 -184 -7 -357 -9 -385 -2 -27 -5 -125 -6
-218 l-3 -167 39 -34 c24 -21 54 -37 78 -42 l39 -6 -6 -87 c-3 -47 -8 -131
-12 -187 l-6 -101 -125 -7 c-68 -3 -128 -4 -132 -1 -5 2 -98 7 -207 10 l-199
5 -12 81 c-6 45 -14 83 -16 85 -2 3 -16 -1 -31 -7 -17 -8 -26 -20 -26 -35 0
-25 -105 -128 -142 -140 -13 -3 -35 -15 -50 -25 -43 -31 -167 -51 -276 -46
-140 7 -201 23 -302 82 -40 23 -116 103 -136 143 -10 20 -27 49 -37 65 -10 15
-16 27 -12 27 3 0 3 6 -2 13 -4 6 -8 14 -8 17 -1 3 -11 32 -24 65 -19 50 -24
85 -28 205 -6 200 21 383 67 450 9 14 23 42 29 62 12 35 129 158 151 158 5 0
31 12 57 28 47 27 100 48 145 58 69 15 91 17 173 17 95 -1 136 -6 182 -24 45
-17 113 -63 118 -79 3 -9 19 -21 36 -27 43 -17 69 -2 69 38 0 17 5 39 11 51
24 46 -33 114 -121 143 -28 9 -54 25 -60 34 -10 20 -13 193 -4 258 6 41 7 42
48 45 49 4 123 2 356 -6z m4864 -105 c94 -41 127 -124 121 -296 -3 -97 -58
-579 -70 -613 -3 -8 -8 -44 -11 -80 -4 -37 -10 -71 -14 -76 -5 -4 -48 -3 -97
4 -139 18 -128 9 -147 110 -32 164 -122 507 -152 578 -8 18 -14 60 -14 94 0
50 4 64 23 82 12 11 22 26 22 33 0 13 37 62 86 113 42 43 132 81 178 75 19 -3
53 -14 75 -24z m-9937 -137 c-3 -3 -12 -4 -19 -1 -8 3 -5 6 6 6 11 1 17 -2 13
-5z m163 -125 c36 -27 76 -65 90 -85 57 -85 28 -265 -57 -363 -71 -81 -129
-121 -175 -121 -50 0 -189 70 -208 105 -14 27 -17 122 -6 177 7 31 5 37 -13
43 -28 8 -67 -23 -106 -83 -28 -45 -29 -52 -29 -157 0 -134 30 -408 50 -452
14 -33 14 -33 83 -33 58 0 71 -3 75 -17 3 -10 8 -80 11 -156 l5 -138 -53 5
c-105 12 -227 16 -432 16 -243 -1 -291 -4 -477 -36 -21 -4 -38 -3 -38 2 -2 47
-12 154 -17 174 -3 14 -7 36 -8 50 -2 27 -23 133 -32 165 -4 16 -3 18 8 8 25
-25 177 -7 211 24 10 9 29 39 42 66 24 50 26 89 13 182 -3 22 -9 65 -12 96 -8
72 -23 86 -104 96 -59 7 -64 10 -66 33 -1 14 -5 48 -8 75 -4 28 -9 88 -12 135
-3 47 -9 101 -14 122 -8 32 -6 37 13 42 104 29 564 33 591 5 17 -17 65 -178
70 -236 4 -53 10 -63 40 -63 19 0 26 7 31 28 15 73 38 112 112 189 81 87 123
115 212 144 82 28 130 18 210 -42z m6700 -24 c184 -47 255 -79 306 -139 105
-122 161 -245 171 -376 5 -66 -6 -198 -23 -270 -10 -43 -12 -334 -3 -367 18
-62 110 -52 161 17 28 38 29 46 32 155 l2 90 29 0 c25 0 30 -5 37 -35 12 -53
11 -242 -1 -287 -23 -85 -92 -149 -209 -194 -55 -21 -62 -21 -202 -10 -111 9
-166 19 -232 41 -93 31 -188 75 -188 88 -1 4 -12 20 -25 37 -24 29 -25 29 -40
10 -9 -12 -12 -31 -9 -47 4 -21 -1 -31 -25 -49 -17 -13 -31 -30 -31 -40 0 -39
-126 -95 -283 -125 -100 -20 -251 -14 -317 12 -25 10 -76 38 -114 62 -60 39
-72 53 -97 106 -53 115 -48 160 33 281 82 124 148 173 301 221 31 10 57 21 57
26 0 4 7 8 15 8 9 0 28 9 43 19 15 11 71 31 126 46 108 29 122 35 183 83 40
31 103 135 103 170 0 69 -61 155 -140 196 -96 50 -306 30 -298 -29 3 -18 10
-20 68 -20 36 0 74 -4 86 -8 39 -14 58 -125 33 -195 -17 -50 -173 -161 -247
-177 -83 -17 -232 81 -249 163 -19 97 5 268 42 306 8 8 15 19 15 25 0 17 106
98 165 125 61 30 130 49 290 81 133 27 330 27 435 0z m-8455 6 l70 -6 12 -125
c6 -69 14 -165 18 -215 3 -49 8 -99 10 -110 3 -11 9 -83 14 -160 12 -175 32
-223 104 -262 16 -8 18 -29 21 -191 l4 -182 -41 -1 c-23 0 -58 -2 -77 -4 -61
-7 -781 -12 -784 -6 -2 3 -7 84 -10 180 -4 96 -9 178 -12 183 -3 4 1 9 8 10
93 10 137 40 170 116 15 32 20 64 19 111 -4 162 -28 217 -112 253 l-49 22 3
95 c2 53 1 138 -2 189 -6 87 -5 92 14 93 63 3 129 10 133 13 6 7 408 4 487 -3z
m3310 -38 c-4 -61 20 -91 85 -105 l55 -11 3 -111 c6 -209 6 -281 -1 -326 -4
-25 -8 -52 -8 -60 -2 -31 -86 -190 -101 -190 -2 0 -2 42 0 93 4 114 -6 171
-33 176 -11 2 -26 8 -34 15 -8 6 -22 10 -32 8 -14 -2 -17 2 -14 20 3 13 9 24
14 26 6 2 7 10 4 18 -3 8 3 24 14 34 18 16 21 33 22 115 1 53 6 120 11 147 7
36 7 69 -2 108 -11 57 -6 96 11 86 5 -3 8 -23 6 -43z m-2035 -13 c0 -5 -2 -10
-4 -10 -3 0 -8 5 -11 10 -3 6 -1 10 4 10 6 0 11 -4 11 -10z m-2063 -240 c-1
-151 1 -213 11 -236 l13 -31 67 5 c66 4 68 4 80 -22 17 -39 15 -52 -19 -120
-36 -71 -44 -78 -81 -72 -33 6 -36 -2 -22 -59 4 -18 3 -27 -2 -22 -5 5 -9 12
-9 15 0 4 -4 13 -8 20 -5 7 -13 41 -18 77 -13 90 -36 157 -114 320 -52 109
-52 107 -2 151 58 52 91 107 83 140 -4 14 -4 35 0 46 16 51 23 -19 21 -212z
m11470 214 c-3 -3 -12 -4 -19 -1 -8 3 -5 6 6 6 11 1 17 -2 13 -5z m-137 -58
c30 -3 84 -8 120 -11 127 -10 210 -18 211 -19 0 -1 2 -39 5 -86 6 -115 22
-255 33 -283 9 -22 6 -24 -57 -35 -75 -12 -88 -24 -129 -112 -48 -105 -153
-396 -153 -425 0 -6 -9 -27 -20 -48 -11 -20 -20 -43 -20 -49 0 -7 -15 -45 -34
-84 -19 -39 -38 -84 -42 -100 -13 -53 -148 -305 -213 -399 -19 -27 -48 -70
-65 -95 -78 -117 -194 -199 -351 -247 -102 -32 -262 -33 -347 -4 -122 42 -216
114 -258 197 -22 45 -24 60 -23 166 2 101 5 124 27 171 31 68 76 112 141 136
83 31 155 15 241 -55 71 -57 82 -153 29 -262 -13 -28 -29 -53 -34 -57 -14 -8
-2 -36 23 -57 26 -22 116 -24 154 -4 15 8 47 35 71 60 46 47 56 75 67 196 5
52 2 61 -59 180 -159 310 -207 401 -257 480 -29 47 -55 92 -59 100 -25 60
-160 275 -180 288 -15 9 -32 24 -39 34 -7 9 -28 20 -48 24 l-35 6 4 179 c2 98
6 181 10 185 5 6 402 16 607 16 112 0 284 -12 297 -20 9 -6 18 -62 38 -252 3
-25 7 -61 10 -81 6 -44 -6 -56 -72 -72 -54 -14 -63 -33 -44 -96 6 -20 23 -76
37 -126 15 -49 35 -102 45 -117 11 -14 19 -29 19 -33 0 -12 28 -35 43 -35 27
0 109 129 121 190 2 8 6 24 10 35 56 149 53 179 -14 188 -23 3 -43 7 -46 9 -2
2 -6 98 -9 214 l-6 209 53 5 c61 6 120 5 198 -4z m-6160 -372 c0 -2 -7 -4 -15
-4 -8 0 -15 4 -15 10 0 5 7 7 15 4 8 -4 15 -8 15 -10z m-2600 -34 c0 -5 -5
-10 -11 -10 -5 0 -7 5 -4 10 3 6 8 10 11 10 2 0 4 -4 4 -10z m7325 -55 c-2
-25 1 -45 6 -45 5 0 9 -5 9 -11 0 -22 35 -38 81 -39 38 0 50 -5 73 -31 15 -17
37 -47 49 -67 11 -21 28 -46 38 -57 22 -25 93 -155 85 -155 -3 0 2 -8 12 -19
14 -15 50 -73 87 -143 5 -10 13 -18 17 -18 5 0 8 -6 8 -13 0 -15 47 -106 66
-128 24 -27 16 -29 -31 -8 -46 21 -60 22 -160 20 -67 -2 -161 -27 -188 -49
-26 -23 -28 -12 -5 33 10 22 26 76 35 120 8 44 18 83 22 88 10 10 2 254 -10
300 -8 32 -14 38 -30 34 -11 -3 -33 2 -51 10 -17 9 -62 21 -99 27 l-69 10 7
36 c4 19 7 56 8 82 0 32 4 48 13 48 6 0 12 5 12 10 0 6 4 10 8 10 5 0 8 -20 7
-45z m-1415 -171 c0 -2 -9 -4 -20 -4 -11 0 -20 4 -20 9 0 5 9 7 20 4 11 -3 20
-7 20 -9z m-7112 -38 c-7 -8 -15 -12 -17 -11 -5 6 10 25 20 25 5 0 4 -6 -3
-14z m2739 -148 c-3 -8 -6 -5 -6 6 -1 11 2 17 5 13 3 -3 4 -12 1 -19z m8108
-33 c48 -4 97 -15 123 -27 94 -44 153 -170 127 -270 -13 -52 -55 -119 -93
-149 -62 -48 -177 -49 -263 -3 -165 90 -197 290 -66 416 35 35 55 47 71 43 11
-2 57 -7 101 -10z m-4053 -17 c-7 -7 -12 -8 -12 -2 0 14 12 26 19 19 2 -3 -1
-11 -7 -17z m-7077 -288 c3 -5 2 -10 -4 -10 -5 0 -13 5 -16 10 -3 6 -2 10 4
10 5 0 13 -4 16 -10z m-1000 -80 c3 -5 2 -10 -4 -10 -5 0 -13 5 -16 10 -3 6
-2 10 4 10 5 0 13 -4 16 -10z m7910 -60 c3 -5 -1 -10 -10 -10 -9 0 -13 5 -10
10 3 6 8 10 10 10 2 0 7 -4 10 -10z m1065 -4 c0 -3 -4 -8 -10 -11 -5 -3 -10
-1 -10 4 0 6 5 11 10 11 6 0 10 -2 10 -4z m-2195 -76 c3 -5 -1 -10 -9 -10 -9
0 -16 5 -16 10 0 6 4 10 9 10 6 0 13 -4 16 -10z"/>
<path d="M12705 3001 c-3 -6 -19 -11 -35 -11 -45 0 -52 -24 -40 -132 5 -51 12
-116 14 -144 2 -30 12 -61 23 -74 23 -27 62 -43 77 -31 6 4 36 11 66 13 30 3
56 11 58 17 2 6 10 11 19 11 35 0 50 34 68 149 11 79 11 87 -7 118 -19 32 -62
51 -180 77 -14 3 -33 8 -41 12 -8 3 -18 1 -22 -5z"/>
<path d="M12602 2426 c-23 -23 -24 -38 -7 -145 7 -43 8 -126 1 -151 -10 -38
22 -51 149 -63 106 -10 114 -9 157 11 30 15 50 33 61 57 35 72 14 188 -44 250
-36 39 -130 65 -226 64 -57 0 -72 -4 -91 -23z"/>
<path d="M20745 2496 c-107 -37 -148 -94 -166 -228 -13 -93 -1 -189 33 -271
46 -108 175 -170 274 -132 26 10 54 26 62 36 9 11 21 19 27 19 12 0 46 78 66
150 17 62 18 272 2 277 -7 3 -13 17 -13 31 0 15 -10 46 -22 70 -25 46 -46 56
-143 66 -37 4 -68 0 -120 -18z m145 -545 c0 -12 -20 -25 -27 -18 -7 7 6 27 18
27 5 0 9 -4 9 -9z"/>
<path d="M22717 2076 c-101 -42 -156 -102 -172 -186 -9 -51 38 -94 119 -109
86 -16 130 0 168 59 27 41 29 51 26 120 -3 61 -8 81 -27 108 -29 38 -38 39
-114 8z"/>
<path d="M5660 3213 c-19 -1 -57 -7 -85 -13 -27 -6 -106 -12 -175 -15 -147 -5
-168 -8 -197 -23 -12 -7 -35 -12 -50 -12 -32 0 -53 -16 -53 -40 0 -10 -7 -31
-15 -47 -11 -23 -14 -49 -10 -99 3 -45 1 -70 -6 -75 -18 -11 3 -281 25 -313 9
-14 16 -34 16 -44 0 -31 33 -52 79 -52 37 0 43 -3 38 -19 -2 -10 0 -25 4 -34
5 -9 12 -35 14 -59 3 -24 9 -66 13 -93 5 -28 7 -118 5 -200 -3 -129 -5 -187
-12 -335 -2 -38 -14 -51 -57 -56 -60 -7 -105 -24 -129 -49 -18 -20 -20 -32
-15 -87 6 -74 5 -214 -4 -350 l-6 -96 38 -29 c20 -16 53 -35 72 -42 19 -7 47
-19 63 -27 15 -9 32 -12 39 -8 7 4 51 11 98 15 47 5 132 12 190 18 102 9 290
6 320 -6 27 -10 207 -3 270 12 14 3 52 11 85 18 33 6 60 14 59 17 -1 3 2 30 6
60 4 30 4 62 -1 70 -6 14 -13 112 -22 315 l-2 50 60 -2 c33 0 105 -3 160 -4
95 -4 229 6 260 17 8 3 20 19 27 35 7 16 18 29 23 29 16 0 145 108 145 121 0
6 13 28 28 48 15 20 33 48 40 64 7 15 16 37 22 50 5 12 37 105 71 207 56 171
61 192 60 273 0 48 3 87 7 88 4 0 28 2 54 4 l47 4 17 -51 c15 -45 29 -215 25
-293 -1 -16 -2 -123 -1 -236 0 -263 -4 -277 -106 -320 -38 -16 -74 -29 -80
-29 -6 0 -16 -6 -22 -13 -14 -17 -25 -114 -15 -130 4 -6 9 -70 9 -142 2 -180
2 -183 15 -208 34 -63 140 -100 221 -78 24 6 77 11 118 10 208 -4 476 7 499
19 17 11 48 12 126 7 100 -7 103 -7 110 14 4 14 18 24 36 28 26 5 35 19 30 47
-3 15 -1 429 2 432 1 2 19 -1 39 -5 20 -5 40 -5 45 -1 4 5 54 3 110 -4 99 -12
103 -12 130 10 15 12 54 27 86 33 31 7 57 15 57 19 0 4 18 16 40 26 21 10 49
29 61 42 13 13 27 24 33 24 7 0 43 33 82 72 74 78 146 195 159 263 5 22 9 42
9 45 7 34 31 108 38 117 5 6 12 61 15 122 3 61 10 111 14 111 5 0 9 -7 9 -15
0 -8 16 -39 35 -69 19 -30 35 -57 35 -60 0 -9 49 -78 64 -90 7 -6 39 -49 71
-96 32 -47 64 -90 71 -96 18 -15 104 -155 104 -170 0 -7 15 -42 34 -78 20 -41
29 -66 21 -66 -7 0 -18 6 -25 14 -6 8 -41 25 -78 37 -60 20 -73 21 -152 11
-74 -9 -96 -17 -165 -57 -44 -26 -87 -57 -95 -68 -37 -50 -89 -155 -95 -192
-4 -22 -12 -46 -18 -54 -13 -16 -17 -69 -6 -91 7 -13 20 -46 24 -60 9 -30 42
-91 70 -130 19 -26 35 -55 35 -63 0 -9 12 -28 28 -42 32 -30 147 -100 180
-110 12 -4 19 -11 16 -17 -4 -7 -2 -8 4 -4 7 4 28 2 48 -3 21 -6 42 -7 47 -4
6 3 51 8 101 10 159 5 220 9 261 17 95 17 141 29 154 40 8 6 24 16 37 21 13 6
54 40 91 76 38 36 75 70 83 75 8 5 42 45 75 89 33 44 63 82 68 83 4 2 7 10 7
18 0 8 4 14 9 14 5 0 15 17 22 38 7 20 25 61 40 90 16 28 26 52 22 52 -4 0 2
9 14 19 11 11 37 54 57 98 67 140 86 189 86 217 0 12 11 37 24 55 14 19 28 47
32 65 4 17 12 40 19 51 7 11 23 49 36 85 12 36 35 79 50 97 23 27 68 113 98
188 5 11 14 33 20 48 6 15 15 26 19 23 5 -3 21 2 36 10 16 7 35 14 42 14 8 0
14 7 14 16 0 12 6 15 25 10 18 -5 25 -2 25 9 0 8 5 15 11 15 8 0 8 4 0 14 -9
10 -8 15 2 19 29 11 26 482 -3 511 -5 5 -10 20 -10 32 0 14 -9 25 -27 32 -31
12 -104 26 -116 23 -5 -1 -99 7 -210 18 -202 20 -460 23 -489 5 -7 -5 -170 -7
-363 -4 -558 6 -605 5 -703 -16 -33 -7 -60 -38 -43 -49 5 -3 -1 -16 -15 -30
-27 -28 -30 -43 -10 -59 8 -6 18 -33 22 -59 l6 -48 -79 78 c-44 43 -105 98
-136 121 -46 36 -61 43 -85 37 -20 -4 -33 -1 -41 9 -15 18 -103 45 -186 57
-73 10 -240 -6 -269 -27 -11 -8 -29 -14 -39 -14 -42 0 -174 -91 -161 -111 3
-5 1 -9 -4 -9 -5 0 -12 12 -15 28 -26 126 -23 124 -215 135 -86 4 -213 5 -282
2 -69 -4 -183 -9 -254 -11 -74 -2 -135 -9 -143 -15 -7 -6 -13 -8 -13 -5 0 17
-42 -19 -70 -58 -27 -41 -32 -76 -9 -76 5 0 8 -10 8 -22 0 -13 2 -56 5 -95 4
-47 3 -73 -4 -73 -5 0 -10 4 -10 10 0 14 -104 137 -159 188 -70 65 -136 98
-251 126 -148 37 -303 37 -412 0 -43 -14 -93 -36 -113 -50 -20 -13 -38 -24
-40 -24 -3 0 -5 13 -5 30 0 23 -8 35 -39 55 -53 35 -214 52 -361 38z m875
-163 c231 -56 304 -110 398 -297 42 -83 61 -159 78 -308 17 -158 7 -275 -32
-375 -65 -169 -154 -287 -255 -338 -145 -72 -305 -92 -434 -54 -36 11 -87 25
-115 32 -27 6 -72 26 -99 45 -81 54 -104 29 -105 -116 -1 -78 12 -92 93 -97
l66 -4 0 -132 c0 -72 2 -159 4 -194 3 -52 1 -64 -12 -69 -10 -4 -19 -10 -22
-14 -3 -5 -80 -3 -170 3 -144 9 -360 7 -667 -6 l-83 -4 -1 87 c-2 149 1 314 6
321 3 4 22 11 42 14 73 14 97 27 114 65 25 54 38 127 38 211 0 41 3 111 6 155
9 143 5 428 -7 490 -6 33 -19 79 -29 103 l-18 42 -55 0 c-42 0 -57 4 -65 18
-5 9 -9 67 -10 127 -1 61 -4 147 -7 192 -8 99 -22 92 196 97 85 2 241 7 346
11 l192 8 11 -69 c7 -38 13 -80 13 -94 3 -53 44 -67 83 -27 73 73 117 109 170
138 33 17 69 38 80 46 29 19 156 16 250 -7z m1347 -8 c6 -6 20 -88 35 -207 12
-94 63 -87 134 18 47 69 140 142 222 172 66 24 84 26 149 21 41 -3 97 -13 124
-21 27 -8 58 -15 69 -15 22 0 106 -33 171 -68 108 -56 211 -259 239 -471 8
-61 8 -183 1 -221 -3 -14 -9 -41 -12 -60 -4 -19 -17 -42 -28 -51 -13 -10 -23
-30 -24 -49 -4 -53 -104 -222 -175 -297 -41 -43 -139 -89 -245 -115 -78 -20
-93 -20 -167 -9 -44 7 -110 16 -147 21 -37 5 -95 21 -129 35 -34 14 -75 25
-89 25 -24 0 -28 -5 -33 -41 -3 -22 -3 -66 0 -97 8 -76 30 -96 96 -88 l47 5 1
-47 c2 -67 0 -144 -7 -244 l-6 -86 -241 -2 c-133 0 -258 -3 -277 -5 -19 -2
-105 -7 -191 -11 -175 -8 -171 -9 -165 64 2 18 -2 60 -8 95 -10 59 -12 93 -8
163 2 33 27 49 52 34 21 -13 59 14 79 55 31 62 34 75 37 150 1 39 7 115 13
170 12 121 7 337 -15 570 -7 73 -31 160 -47 173 -7 5 -37 13 -68 16 -55 7 -57
9 -63 40 -6 33 1 281 9 322 5 24 15 26 355 57 127 12 299 11 312 -1z m2618
-32 c36 -6 92 -12 125 -14 214 -16 225 -18 230 -40 4 -19 25 -325 25 -367 0
-16 -57 -39 -97 -39 -11 0 -26 -7 -33 -15 -7 -8 -19 -14 -26 -13 -9 2 -34 -41
-69 -117 -30 -65 -55 -123 -55 -127 0 -4 -36 -81 -79 -170 -95 -195 -104 -218
-142 -330 -30 -92 -59 -166 -88 -232 -10 -23 -31 -70 -47 -106 -82 -191 -259
-360 -424 -409 -107 -31 -244 -54 -330 -54 -109 -1 -147 13 -215 80 -111 108
-156 196 -157 307 -1 71 18 156 34 156 4 0 8 6 8 14 0 20 56 65 108 88 30 14
68 20 122 21 67 0 83 -3 125 -27 26 -16 55 -36 65 -46 32 -32 71 -128 73 -176
2 -41 -2 -49 -33 -75 -19 -16 -44 -29 -56 -29 -57 0 -69 -30 -36 -94 27 -53
68 -55 161 -9 81 41 80 41 130 102 69 84 59 153 -52 376 -25 50 -68 137 -96
195 -29 58 -73 146 -99 195 -27 50 -76 144 -111 210 -34 66 -73 134 -85 150
-12 17 -35 56 -51 88 -26 53 -55 84 -68 71 -3 -3 -21 -2 -40 1 -45 9 -47 13
-52 235 -3 98 -6 185 -7 192 -2 7 4 11 12 10 8 -2 168 -5 355 -7 383 -3 492
-8 505 -21 9 -9 25 -129 36 -275 4 -45 7 -88 8 -97 0 -8 -25 -31 -59 -52 -59
-37 -60 -38 -58 -81 2 -50 72 -226 109 -276 50 -66 84 -66 126 -1 39 64 88
157 88 169 0 6 8 23 18 37 24 36 46 111 57 200 4 34 2 40 -19 50 -17 7 -35 8
-58 1 -50 -14 -63 -11 -64 14 -1 12 -4 58 -7 102 -4 44 -8 116 -9 160 l-3 80
35 7 c41 7 177 1 270 -12z m-15 -1159 c3 -5 1 -12 -5 -16 -5 -3 -10 1 -10 9 0
18 6 21 15 7z m-3318 -733 c-3 -7 -5 -2 -5 12 0 14 2 19 5 13 2 -7 2 -19 0
-25z"/>
<path d="M6218 2720 c-49 -9 -70 -18 -137 -63 -80 -53 -116 -174 -108 -368 5
-128 17 -163 69 -202 56 -40 111 -53 176 -39 30 6 58 15 61 19 3 5 15 13 26
18 27 15 92 148 94 193 0 20 3 49 5 64 6 47 -13 229 -30 277 -18 53 -36 75
-77 96 -17 8 -31 14 -31 14 -1 -1 -22 -5 -48 -9z"/>
<path d="M8092 2628 c-40 -51 -89 -187 -98 -269 -3 -35 -12 -71 -18 -79 -16
-20 -15 -25 17 -100 47 -111 61 -132 106 -164 52 -37 110 -40 182 -8 41 18 50
28 78 86 17 37 33 74 35 84 1 9 7 25 11 35 4 10 5 62 2 115 -8 115 -11 137
-28 177 -6 17 -13 35 -14 40 -2 16 -15 47 -35 85 l-19 35 -94 2 -94 2 -31 -41z"/>
</g>
</svg>
