<?xml version="1.0" standalone="no"?>
<!DOCTYPE svg PUBLIC "-//W3C//DTD SVG 20010904//EN"
 "http://www.w3.org/TR/2001/REC-SVG-20010904/DTD/svg10.dtd">
<svg version="1.0" xmlns="http://www.w3.org/2000/svg"
 width="1369.000000pt" height="775.000000pt" viewBox="0 0 1369.000000 775.000000"
 preserveAspectRatio="xMidYMid meet">

<g transform="translate(0.000000,775.000000) scale(0.100000,-0.100000)"
fill="#000000" stroke="none">
<path d="M1456 7113 c-2 -2 -18 -5 -36 -5 -17 -1 -34 -7 -37 -15 -3 -7 -13
-13 -23 -13 -9 0 -34 -21 -54 -47 -43 -55 -48 -108 -15 -162 22 -37 20 -47 -8
-33 -10 5 -23 7 -30 5 -20 -7 -54 -70 -47 -87 3 -9 1 -16 -5 -16 -6 0 -11 7
-11 15 0 8 -9 30 -19 49 -17 30 -19 47 -14 124 4 64 2 91 -6 96 -7 5 -40 9
-74 11 -34 2 -62 4 -62 5 0 3 -40 11 -106 20 -37 5 -188 11 -337 14 -149 3
-274 6 -279 7 -45 8 -74 -29 -50 -64 12 -18 25 -21 113 -24 97 -3 140 -5 430
-17 78 -3 148 -8 157 -12 9 -3 20 -3 25 0 11 7 67 -16 96 -38 26 -21 31 -113
8 -140 -9 -10 -16 -20 -14 -22 7 -12 -1 -22 -25 -33 -26 -12 -42 -3 -43 22 0
4 -7 7 -15 7 -8 0 -15 4 -15 9 0 11 -28 21 -68 26 -33 4 -112 -14 -112 -25 0
-5 -14 -22 -31 -40 -24 -24 -32 -41 -34 -75 -3 -42 -1 -47 40 -81 25 -20 49
-33 56 -29 6 4 15 1 20 -6 6 -11 11 -11 21 -1 6 6 22 12 35 12 13 0 23 5 23
12 0 26 15 -6 17 -36 2 -32 1 -33 -43 -32 -30 0 -44 4 -44 13 0 8 -12 13 -31
13 -36 0 -84 -43 -75 -66 3 -8 2 -14 -2 -14 -6 0 -8 -35 -3 -72 1 -7 13 -26
27 -42 20 -23 34 -28 72 -30 l47 -1 3 -91 c2 -84 1 -92 -17 -97 -11 -3 -21 -1
-23 4 -2 5 -18 4 -38 -2 -47 -15 -101 -19 -251 -20 -190 -1 -231 28 -233 164
l-1 62 47 3 c35 2 50 9 61 25 15 23 13 62 -3 83 -7 8 -7 28 0 60 10 44 7 113
-7 169 -3 11 -6 61 -7 112 0 50 -4 94 -7 97 -11 11 -48 15 -54 6 -12 -20 -34
4 -45 51 -7 27 -17 52 -22 55 -16 10 -29 -18 -25 -51 3 -16 -2 -46 -10 -67 -8
-20 -13 -51 -11 -70 3 -32 4 -33 45 -32 47 2 46 4 62 -91 20 -115 19 -157 -8
-226 -22 -53 -32 -67 -63 -82 -29 -14 -38 -25 -39 -45 0 -15 -2 -37 -5 -49 -2
-13 0 -23 4 -23 5 0 15 -24 22 -52 14 -52 15 -67 10 -98 -4 -22 20 -81 31 -74
5 3 9 1 9 -4 0 -5 28 -9 62 -9 115 1 328 -9 334 -16 4 -4 12 -3 18 2 6 5 49
12 96 16 96 7 134 29 124 71 -4 16 0 25 16 34 19 10 21 17 15 48 -10 58 -10
125 -1 147 5 11 10 35 11 54 1 26 -3 35 -17 39 -18 4 -18 6 -2 23 9 10 20 16
24 14 18 -11 33 30 34 91 2 65 16 92 41 76 33 -21 118 2 112 31 -1 6 4 11 11
9 11 -2 17 30 13 66 -1 6 3 12 9 12 10 0 14 -19 12 -50 -1 -15 -4 -35 -17
-125 -6 -45 -4 -52 19 -74 14 -13 32 -21 40 -18 9 4 16 -3 21 -20 8 -32 3 -37
-39 -35 -67 3 -73 -22 -64 -235 4 -93 7 -104 29 -123 18 -15 38 -20 79 -19 53
0 350 -10 360 -12 3 -1 16 -3 30 -4 14 -1 50 -6 82 -10 56 -7 56 -7 72 23 13
24 14 36 5 55 -9 21 -8 28 8 44 20 20 20 20 39 -9 10 -16 34 -38 52 -49 17
-11 32 -25 32 -30 0 -5 9 -9 20 -9 10 0 35 -11 54 -24 46 -31 132 -46 236 -41
85 3 101 7 198 43 28 11 52 18 52 15 0 -16 84 65 100 97 31 60 45 127 30 145
-11 13 -16 12 -39 -5 -15 -10 -33 -37 -41 -59 -9 -27 -21 -43 -39 -50 -14 -6
-33 -15 -41 -20 -8 -6 -34 -19 -57 -30 -35 -15 -43 -16 -43 -5 0 8 -4 14 -10
14 -5 0 -10 -6 -10 -14 0 -8 -23 -20 -56 -29 -49 -14 -64 -14 -132 -2 -42 8
-95 21 -117 29 -59 21 -125 67 -125 87 0 9 -6 19 -13 22 -8 3 -20 27 -26 54
-7 26 -15 55 -18 63 -3 8 -8 43 -10 76 -3 47 0 65 12 77 9 9 15 20 15 24 -1 9
71 94 119 139 30 28 96 56 141 60 8 0 22 3 30 6 29 12 80 17 80 10 0 -5 10 -8
23 -9 32 -1 67 -11 81 -21 6 -5 24 -12 40 -16 16 -4 46 -24 67 -44 21 -20 49
-46 63 -56 14 -10 26 -27 26 -37 0 -11 4 -19 8 -19 10 0 32 -59 32 -86 0 -18
-9 -19 -142 -21 -203 -2 -270 -8 -295 -24 -27 -17 -28 -20 -7 -79 25 -69 35
-88 53 -94 9 -3 23 -10 31 -15 31 -20 84 -30 105 -21 3 1 13 4 23 5 43 7 59
20 86 71 26 49 31 54 62 54 19 0 34 -4 34 -9 0 -11 99 -11 121 0 8 4 21 26 29
48 11 34 11 50 0 96 -7 30 -17 52 -21 49 -5 -3 -6 1 -3 9 3 8 -4 30 -15 48
-12 19 -25 44 -31 57 -5 13 -14 20 -20 17 -6 -4 -9 4 -7 17 1 14 -3 22 -10 21
-7 -2 -17 6 -23 17 -6 11 -15 20 -20 20 -13 0 -112 69 -126 88 -10 14 -82 24
-174 24 -62 0 -101 -6 -127 -20 -12 -7 -35 -12 -52 -12 -23 0 -50 -17 -112
-71 -45 -39 -94 -83 -109 -97 -27 -28 -70 -118 -70 -148 0 -12 -3 -15 -10 -8
-5 5 -13 64 -16 129 -7 134 -7 128 2 171 9 45 -11 77 -43 71 -21 -4 -24 -2
-19 17 20 76 28 127 23 148 -6 24 -58 88 -71 88 -4 0 -20 10 -36 21 -16 13
-47 23 -72 25 -24 1 -43 3 -43 4 0 4 -45 6 -49 3z m91 -103 c1 0 8 -6 15 -12
8 -7 31 -22 53 -33 44 -23 52 -47 28 -91 -22 -43 -58 -60 -120 -58 -67 1 -122
28 -136 65 -6 16 -14 29 -17 29 -10 0 -4 70 7 81 7 7 26 14 44 16 17 1 38 7
47 12 9 5 28 5 46 0 17 -5 32 -9 33 -9z m-88 -280 c27 -14 120 -21 140 -10 10
5 28 3 47 -5 27 -11 32 -20 41 -66 11 -57 7 -137 -8 -155 -5 -6 -10 -27 -11
-46 -2 -25 -7 -34 -17 -30 -10 4 -9 -2 4 -21 15 -24 15 -27 2 -27 -10 0 -15
-8 -14 -20 1 -11 5 -20 9 -20 4 0 8 -7 8 -15 0 -8 5 -15 10 -15 6 0 10 -6 10
-14 0 -16 41 -29 64 -20 13 5 16 -3 17 -42 1 -27 0 -59 -1 -72 -1 -13 7 -30
17 -37 10 -7 14 -17 10 -21 -4 -5 -12 -2 -16 5 -5 7 -11 9 -14 4 -3 -5 -21 -8
-39 -7 -18 2 -114 5 -213 8 -99 2 -188 8 -197 11 -29 11 -40 64 -27 126 6 30
18 58 26 62 8 5 27 35 43 68 21 44 26 69 23 101 -6 61 -22 88 -51 88 -15 0
-26 7 -29 20 -3 11 -8 20 -12 20 -8 0 -5 106 4 120 18 30 127 36 174 10z m961
-424 c0 -2 -7 -7 -16 -10 -8 -3 -12 -2 -9 4 6 10 25 14 25 6z"/>
<path d="M4747 7002 c-20 -22 -22 -63 -5 -80 10 -10 10 -15 -2 -22 -11 -7 -14
-30 -12 -104 1 -53 -3 -107 -8 -121 -11 -30 0 -60 32 -86 11 -9 22 -29 24 -45
9 -60 11 -163 5 -229 -5 -60 -9 -70 -27 -75 -22 -5 -83 -70 -66 -70 5 0 7 -11
4 -25 -2 -14 1 -45 7 -68 6 -23 13 -74 15 -113 1 -39 6 -76 10 -83 14 -21 56
-32 71 -19 42 38 43 38 156 33 61 -3 135 -1 163 4 28 6 76 13 106 16 30 3 80
8 110 12 30 3 62 7 70 8 9 0 20 4 25 7 6 3 29 6 52 6 24 1 48 4 54 7 6 4 32 9
57 12 69 6 125 37 197 109 68 66 82 92 111 212 16 63 16 83 6 154 -6 44 -18
90 -25 102 -7 12 -19 41 -27 66 -16 50 -76 149 -113 186 -14 13 -40 34 -58 47
-47 31 -187 98 -202 96 -7 -2 -23 2 -37 8 -63 26 -106 34 -213 37 -64 2 -120
7 -125 10 -6 3 -23 1 -38 -4 -15 -6 -73 -11 -129 -11 -85 0 -108 3 -137 21
-34 19 -35 20 -51 2z m263 -112 c175 -2 218 -2 265 1 23 2 145 -29 160 -41 6
-4 25 -11 44 -15 31 -7 70 -25 141 -66 14 -8 27 -16 30 -19 3 -3 26 -22 53
-43 26 -21 47 -44 47 -51 0 -6 9 -29 20 -51 29 -57 54 -170 52 -240 -1 -78 -2
-80 -15 -145 -6 -30 -10 -58 -9 -63 1 -4 -14 -15 -33 -24 -19 -9 -35 -20 -35
-24 0 -5 -17 -11 -37 -15 -21 -4 -47 -11 -58 -17 -11 -6 -38 -14 -60 -19 -22
-5 -49 -11 -60 -14 -129 -30 -206 -41 -346 -48 -37 -2 -71 -6 -76 -9 -4 -3
-31 -6 -58 -8 -28 -1 -58 -6 -68 -11 -9 -5 -23 -5 -30 -1 -6 4 -21 8 -32 9
-104 4 -101 3 -115 32 -7 15 -14 51 -16 80 -3 50 -1 53 24 62 52 19 57 25 58
76 1 27 2 65 3 84 2 19 -1 71 -5 115 -10 100 -9 131 3 175 13 47 2 75 -35 88
-38 13 -43 42 -26 134 7 39 11 76 7 82 -5 8 -3 8 8 0 9 -7 81 -12 199 -14z"/>
<path d="M5203 6674 c-14 -22 -15 -34 -6 -75 10 -53 9 -273 -2 -302 -4 -9 -4
-29 1 -45 4 -15 6 -32 5 -38 -4 -28 86 -31 137 -4 89 47 108 84 111 218 2 84
-1 107 -18 140 -20 39 -62 77 -92 84 -8 2 -16 5 -19 8 -11 11 -73 40 -86 40
-7 0 -21 -12 -31 -26z m137 -394 c0 -5 -4 -10 -10 -10 -5 0 -10 5 -10 10 0 6
5 10 10 10 6 0 10 -4 10 -10z"/>
<path d="M2785 6982 c-55 -19 -74 -48 -69 -107 1 -22 3 -73 4 -112 1 -72 14
-103 43 -103 7 0 20 -23 30 -50 16 -43 16 -58 6 -113 -6 -34 -11 -86 -11 -115
1 -40 -3 -57 -18 -72 -11 -11 -20 -24 -20 -29 0 -5 -11 -12 -24 -15 -32 -8
-38 -28 -22 -73 7 -21 14 -71 15 -111 2 -57 7 -78 22 -96 18 -20 25 -23 53
-15 17 5 62 7 99 5 37 -2 91 -1 120 3 29 4 68 3 87 -1 19 -4 69 -9 111 -11 62
-4 79 -1 98 14 12 10 22 26 21 36 0 19 0 48 1 86 0 12 -3 36 -7 52 l-7 30 32
-39 c17 -21 31 -43 31 -48 0 -5 4 -7 8 -4 5 3 19 -14 31 -38 23 -47 93 -115
120 -117 68 -6 119 -3 143 9 16 7 45 16 65 18 21 3 40 8 43 13 3 5 15 12 28
15 20 7 25 2 40 -34 19 -45 9 -44 126 -20 55 11 108 10 217 -5 43 -6 48 -5 90
35 l44 41 0 117 c1 130 -8 156 -54 165 -41 9 -52 50 -51 198 0 68 -2 151 -5
184 -2 33 -7 104 -11 157 l-7 97 -30 7 c-35 7 -96 12 -252 21 -173 9 -173 9
-200 -17 -24 -22 -26 -29 -20 -86 6 -76 -6 -115 -33 -107 -11 2 -23 0 -26 -6
-4 -5 -13 -8 -21 -4 -8 3 -15 0 -15 -6 0 -6 -3 -10 -7 -9 -16 4 -73 -14 -73
-23 0 -5 -8 -9 -18 -9 -10 0 -39 -13 -65 -30 -26 -16 -51 -30 -55 -30 -11 0
-75 -69 -95 -102 -9 -14 -18 -38 -21 -52 -3 -14 -7 -30 -10 -35 -4 -5 -2 -12
3 -15 12 -8 13 -116 1 -116 -17 0 -43 49 -37 70 3 11 2 20 -2 20 -4 0 -8 33
-9 73 -2 39 -5 101 -9 137 -3 36 -5 85 -4 108 1 24 -3 49 -8 56 -6 7 -12 46
-14 87 -2 41 -9 84 -16 96 -14 28 -56 40 -77 23 -8 -7 -32 -12 -52 -11 -20 1
-73 3 -117 5 -44 2 -89 6 -100 9 -11 3 -29 2 -40 -1z m229 -102 c38 -1 58 -7
78 -23 25 -20 28 -31 33 -102 3 -44 8 -93 11 -110 3 -16 7 -100 8 -187 3 -143
5 -159 26 -188 13 -18 28 -29 36 -26 10 4 14 -2 14 -19 0 -13 5 -27 10 -30 6
-4 10 -32 9 -64 l-2 -57 -51 -1 c-147 -4 -241 -1 -241 8 0 1 -12 2 -27 3 -16
1 -28 -1 -28 -6 0 -4 -20 -7 -44 -6 -41 0 -44 2 -55 38 -6 20 -11 55 -11 76 0
33 5 42 29 56 33 18 59 54 66 89 23 116 -12 391 -54 430 -10 10 -22 15 -25 12
-3 -4 -7 7 -8 23 -2 36 1 66 7 72 8 8 111 20 139 16 16 -2 52 -4 80 -4z m981
-14 c46 -4 79 -13 97 -26 15 -11 32 -20 38 -20 9 0 14 -14 11 -34 -1 -4 3 -14
10 -22 23 -28 14 -408 -12 -456 -17 -31 -10 -68 18 -94 15 -14 32 -23 39 -20
20 8 33 -16 35 -67 2 -31 -2 -53 -12 -62 -17 -18 -115 -30 -124 -15 -4 6 -14
5 -28 -4 -53 -32 -155 -8 -144 34 8 31 -9 43 -59 42 -35 0 -53 -6 -64 -20 -9
-11 -27 -23 -41 -27 -13 -4 -33 -13 -44 -20 -28 -17 -123 -25 -135 -11 -5 7
-25 18 -45 26 -19 7 -35 18 -35 22 0 5 -10 19 -22 32 -13 13 -24 29 -26 35 -1
7 -14 30 -27 52 -60 95 -81 196 -50 249 8 14 18 32 22 40 17 36 79 78 146 100
20 6 37 15 37 19 0 11 116 34 138 27 11 -4 37 -18 57 -31 30 -21 40 -23 57
-14 47 25 57 42 52 88 -4 48 -21 67 -71 77 -18 3 -32 9 -31 13 1 3 -2 13 -6
22 -11 25 10 67 36 71 29 4 92 2 183 -6z"/>
<path d="M3696 6523 c-36 -19 -46 -43 -52 -129 -5 -67 -2 -85 22 -150 24 -63
33 -75 59 -83 74 -23 112 5 145 106 29 93 17 185 -32 238 -25 28 -36 33 -73
32 -24 0 -55 -7 -69 -14z"/>
<path d="M8595 6879 c-4 -6 -19 -7 -35 -4 -15 3 -31 2 -34 -4 -4 -5 -21 -7
-39 -4 -40 6 -120 -19 -164 -53 -17 -13 -36 -24 -40 -24 -5 0 -20 -14 -33 -30
-14 -17 -37 -45 -52 -63 -16 -17 -28 -41 -28 -53 0 -11 -5 -35 -11 -53 -20
-56 37 -201 86 -220 37 -15 134 -21 141 -9 3 4 10 6 15 2 6 -3 19 2 30 12 10
9 22 14 26 11 7 -8 -18 -30 -62 -53 -16 -9 -44 -31 -61 -48 -17 -17 -43 -40
-58 -51 -14 -11 -26 -26 -26 -32 0 -7 -6 -13 -14 -13 -7 0 -22 -17 -31 -37
-10 -21 -24 -45 -31 -54 -8 -9 -13 -29 -12 -45 1 -16 -2 -46 -6 -67 -13 -57 9
-126 43 -134 14 -3 37 -11 51 -18 14 -7 41 -15 61 -19 29 -5 41 -2 65 19 16
14 39 25 51 25 12 0 24 4 27 9 14 22 105 31 156 15 51 -16 244 -17 302 -2 47
11 108 58 108 81 0 6 7 15 15 21 9 6 17 27 19 46 2 19 6 43 10 52 4 9 6 21 3
25 -3 4 1 22 7 38 l13 30 8 -55 c4 -30 11 -61 15 -70 39 -82 42 -86 128 -137
48 -28 104 -54 126 -58 67 -11 254 -15 298 -5 120 25 124 27 207 112 32 33 38
35 47 21 9 -14 15 -12 52 21 23 21 42 44 42 51 0 7 4 15 8 17 4 2 18 23 31 47
23 46 56 265 43 286 -4 5 -12 25 -18 43 -19 52 1 37 25 -19 14 -36 25 -50 35
-46 8 3 32 -6 52 -19 21 -14 53 -28 71 -31 41 -7 41 -16 3 -43 -17 -12 -27
-26 -24 -32 4 -6 3 -8 -2 -5 -14 8 -25 -1 -72 -61 -25 -32 -49 -77 -58 -110
-9 -32 -19 -61 -22 -67 -11 -18 -15 -39 -18 -112 -3 -51 0 -76 10 -85 16 -17
191 -18 220 -1 12 6 32 7 60 1 22 -5 84 -16 136 -24 98 -15 105 -14 220 24 8
2 24 6 35 7 85 13 222 132 231 202 3 15 6 39 8 53 3 14 5 30 6 35 2 14 29 -47
30 -67 0 -10 16 -42 35 -72 19 -30 35 -60 35 -66 0 -5 6 -10 13 -10 6 0 35
-18 62 -40 28 -22 57 -40 66 -40 9 0 19 -3 22 -6 12 -12 112 -43 139 -44 15 0
30 -5 33 -10 4 -6 12 -10 18 -9 7 1 23 -1 37 -4 68 -17 121 -14 166 9 26 13
51 27 58 32 6 5 29 15 50 22 22 7 54 27 71 44 18 17 49 44 69 60 20 16 36 35
36 42 0 7 6 19 13 26 37 40 65 132 68 223 2 60 -15 165 -32 197 -5 10 -11 30
-13 45 -5 44 -27 106 -47 132 -11 13 -19 28 -19 33 0 5 -12 23 -27 40 -154
165 -178 177 -393 183 -76 2 -161 -14 -209 -39 -14 -8 -42 -20 -61 -27 -19 -7
-69 -48 -112 -90 -43 -42 -78 -74 -78 -70 0 3 -9 -5 -19 -18 l-18 -23 -31 64
c-17 36 -54 88 -82 116 -42 42 -58 52 -98 57 -26 4 -56 10 -67 13 -11 4 -24 7
-30 8 -5 1 -12 3 -15 4 -24 9 -115 24 -145 24 -32 -1 -193 -15 -210 -19 -5 -1
-21 -7 -35 -12 -14 -6 -28 -9 -31 -7 -3 2 -17 -8 -29 -21 -13 -14 -29 -25 -36
-25 -17 0 -63 -61 -69 -90 -2 -12 -9 -27 -14 -34 -5 -6 -9 -42 -9 -79 0 -75
-7 -95 -18 -51 -4 16 -10 31 -13 34 -4 3 -32 57 -63 120 -51 104 -60 117 -92
128 -20 7 -49 24 -66 38 -16 14 -32 25 -35 25 -3 -1 -6 -1 -7 -1 -90 11 -197
9 -246 -6 -31 -9 -77 -16 -102 -16 -25 0 -52 -6 -60 -13 -8 -7 -41 -20 -73
-29 -49 -14 -63 -24 -89 -61 -18 -25 -35 -45 -39 -45 -3 0 -18 -17 -32 -37
-18 -27 -27 -56 -30 -98 -3 -33 -8 -71 -12 -85 -4 -14 -14 -62 -22 -107 -14
-69 -19 -81 -32 -74 -9 5 -25 5 -36 1 -11 -4 -27 -4 -35 -1 -8 4 -32 7 -52 7
-53 -1 -48 16 17 64 82 60 109 139 91 260 -9 58 -79 170 -107 170 -6 0 -19 9
-31 20 -12 10 -25 17 -30 14 -5 -3 -27 4 -50 16 -22 12 -64 23 -92 25 -28 2
-67 9 -86 15 -42 12 -37 12 -45 -1z m41 -106 c44 4 76 2 79 -3 4 -6 11 -8 16
-4 5 3 16 0 24 -6 8 -7 20 -10 27 -8 6 2 20 -3 30 -11 10 -9 22 -16 26 -16 8
0 54 -32 87 -61 20 -17 25 -32 29 -92 3 -41 1 -72 -5 -72 -5 0 -9 -8 -9 -18 0
-24 -22 -43 -85 -75 -27 -14 -56 -35 -63 -46 -7 -12 -19 -21 -27 -21 -8 0 -15
-5 -15 -11 0 -5 -4 -8 -9 -5 -10 6 -71 -25 -71 -36 0 -3 -8 -4 -18 -1 -10 2
-24 -3 -31 -11 -8 -9 -20 -16 -27 -16 -8 0 -14 -6 -14 -14 0 -8 -7 -17 -16
-20 -15 -6 -15 -4 -3 11 12 14 10 14 -18 -2 -18 -11 -33 -25 -33 -32 0 -7 -7
-13 -17 -13 -20 0 -79 -44 -92 -69 -14 -25 -3 -57 26 -76 23 -16 26 -15 61 11
20 16 44 36 54 46 22 22 83 27 188 14 19 -2 36 -5 38 -5 1 -1 3 0 5 2 2 1 11
-6 21 -15 25 -25 68 -22 95 6 13 14 18 26 12 30 -5 4 1 17 16 32 22 22 29 24
52 14 33 -13 36 -39 11 -94 -10 -22 -21 -50 -24 -61 -9 -30 -56 -54 -136 -69
-71 -14 -90 -12 -160 17 -14 6 -28 10 -32 9 -5 -1 -8 3 -8 8 0 6 -18 8 -47 5
-27 -3 -68 -8 -93 -11 -25 -3 -62 -6 -82 -7 -20 -1 -40 -5 -44 -9 -4 -5 -16
-8 -26 -8 -10 0 -21 -6 -24 -13 -3 -8 -13 -14 -22 -14 -20 0 -43 28 -34 41 3
6 6 28 7 51 1 22 9 54 18 70 18 33 52 75 60 75 3 0 31 25 62 55 30 30 60 55
65 55 6 0 10 4 10 9 0 4 25 19 55 32 30 13 55 27 55 31 0 5 7 8 17 8 16 0 32
12 75 58 12 12 26 22 32 22 6 0 22 20 35 45 22 42 23 46 7 70 -9 14 -14 30
-11 35 9 15 -29 90 -50 97 -26 9 -85 6 -116 -5 -13 -5 -26 -9 -29 -9 -3 0 -15
-5 -27 -12 -16 -8 -29 -9 -42 -1 -14 7 -29 5 -58 -8 -38 -16 -39 -19 -31 -50
5 -18 13 -30 18 -27 5 3 19 -2 30 -13 l20 -19 -20 -46 c-11 -25 -26 -49 -32
-53 -19 -12 -78 -5 -108 13 -47 27 -65 111 -38 173 37 85 138 151 226 148 18
-1 35 2 38 5 4 4 16 1 27 -5 12 -6 48 -8 93 -5z m1133 -14 c11 -12 26 -19 35
-16 9 4 16 -3 20 -18 3 -13 18 -31 34 -40 23 -14 101 -119 110 -150 2 -5 7
-19 12 -30 17 -43 30 -153 24 -205 -4 -30 -8 -66 -9 -80 -1 -14 -4 -27 -5 -30
-1 -3 -3 -10 -4 -15 -3 -28 -72 -155 -83 -155 -7 0 -13 4 -13 9 0 13 -55 -7
-71 -25 -6 -8 -24 -14 -39 -14 -15 0 -44 -7 -63 -15 -20 -8 -47 -15 -61 -15
-13 0 -26 -5 -28 -12 -4 -11 -22 -12 -195 -9 -96 2 -138 25 -196 106 -10 14
-24 25 -32 25 -8 0 -19 18 -26 43 -6 23 -14 51 -18 62 -11 31 -6 228 7 252 7
12 12 30 12 40 0 10 7 31 15 47 8 15 12 33 8 39 -3 6 -1 7 5 3 7 -4 13 10 18
43 10 78 52 109 190 144 116 29 135 31 256 35 67 2 79 0 97 -19z m786 -3 c17
-3 48 -10 70 -15 22 -6 55 -11 73 -11 17 0 32 -4 32 -9 0 -5 19 -18 43 -29 42
-20 104 -79 93 -89 -3 -4 -2 -11 3 -17 13 -16 26 -116 15 -116 -5 0 -10 -14
-11 -31 -4 -57 -40 -104 -98 -128 -29 -12 -56 -21 -61 -20 -22 5 -121 -33
-134 -51 -3 -4 -29 -15 -59 -25 -29 -9 -62 -26 -72 -36 -11 -11 -26 -19 -34
-19 -18 0 -57 -20 -67 -35 -4 -5 -8 -6 -8 -1 0 12 -45 -34 -59 -62 -10 -19
-10 -28 4 -49 14 -21 22 -24 48 -19 18 3 39 15 49 26 9 11 22 20 30 20 7 0 20
6 30 13 10 8 42 12 90 10 96 -3 101 -4 114 -14 14 -11 79 -4 96 10 7 6 27 22
45 36 21 17 30 31 26 42 -4 11 -2 14 8 11 8 -3 24 -1 37 3 17 7 22 5 23 -9 0
-10 3 -12 6 -4 2 6 9 9 15 6 5 -3 2 -14 -8 -25 -9 -10 -12 -19 -6 -19 11 0 -4
-54 -23 -78 -55 -72 -144 -120 -212 -113 -13 1 -28 -1 -35 -5 -21 -14 -150
-15 -166 -2 -29 24 -111 46 -152 41 -22 -3 -40 -9 -40 -13 0 -9 -36 -22 -67
-24 -23 -2 -34 18 -35 64 -1 34 25 102 47 126 6 6 21 26 34 46 14 19 37 44 53
54 15 10 28 24 28 30 0 17 83 70 138 88 27 9 53 24 56 32 3 7 11 14 18 14 24
1 58 38 71 77 12 34 13 50 8 115 0 9 -10 20 -22 23 -11 4 -35 20 -53 35 -36
32 -104 52 -129 39 -8 -5 -35 -10 -59 -11 -39 -1 -73 -20 -73 -39 0 -4 -3 -10
-7 -14 -4 -4 -4 -14 -1 -23 8 -22 53 -63 63 -57 4 2 12 -7 19 -21 9 -21 8 -30
-6 -50 -16 -22 -23 -24 -68 -18 -64 8 -91 25 -110 70 -17 42 -20 100 -5 109 6
4 8 15 5 25 -8 26 44 83 100 109 24 11 67 22 95 24 27 2 53 7 57 11 7 7 75 3
138 -8z m1073 -30 c37 -11 62 -24 62 -32 0 -8 7 -14 15 -14 22 0 145 -131 145
-155 0 -4 6 -21 14 -38 23 -51 34 -96 50 -198 15 -90 14 -101 -2 -153 -10 -31
-24 -64 -32 -74 -30 -36 -60 -81 -60 -89 0 -16 -76 -91 -115 -113 -22 -12 -61
-24 -87 -27 -53 -4 -166 13 -185 29 -7 6 -22 8 -33 5 -11 -3 -20 -1 -20 3 0 7
-45 22 -67 21 -5 0 -15 6 -23 13 -8 6 -28 18 -45 26 -16 8 -34 21 -38 27 -4 7
-13 13 -18 13 -22 0 -68 73 -104 165 -10 26 -28 110 -30 140 0 6 -4 13 -9 17
-12 8 -9 80 6 132 6 22 12 48 13 56 10 70 95 185 160 215 67 31 108 45 116 39
5 -3 16 -1 25 4 27 15 194 7 262 -12z m-673 -348 c-3 -13 -6 -40 -8 -60 -3
-34 -17 -67 -17 -41 0 6 -9 9 -20 6 -23 -6 -27 9 -7 26 8 6 22 29 32 51 20 45
28 51 20 18z m-2145 -148 c0 -13 -38 -18 -49 -7 -15 15 19 39 36 25 7 -6 13
-14 13 -18z"/>
<path d="M9574 6638 c-31 -17 -64 -56 -64 -76 0 -11 -8 -30 -19 -43 -17 -22
-22 -37 -36 -109 -13 -62 -16 -210 -5 -251 24 -91 40 -110 105 -123 11 -2 32
-9 46 -14 29 -12 48 -2 67 32 7 14 7 25 -1 37 -8 12 -6 26 7 54 10 20 20 60
23 88 2 29 8 76 12 104 12 81 14 203 3 203 -5 0 -13 16 -16 35 -6 32 -40 64
-54 51 -3 -3 -15 0 -27 8 -15 10 -26 11 -41 4z m26 -483 c0 -8 -4 -15 -10 -15
-5 0 -10 7 -10 15 0 8 5 15 10 15 6 0 10 -7 10 -15z"/>
<path d="M11420 6566 c-25 -12 -45 -26 -45 -31 -1 -6 -6 -26 -13 -45 -6 -19
-14 -79 -17 -133 -2 -54 -7 -102 -10 -107 -3 -4 -1 -10 4 -12 5 -1 11 -34 14
-73 7 -105 29 -144 87 -158 28 -7 100 11 100 25 0 5 5 6 10 3 6 -3 10 2 10 11
0 10 7 25 16 35 8 9 19 43 24 75 4 33 13 72 19 88 10 23 9 36 -4 63 -13 27
-14 37 -5 49 10 11 10 14 1 14 -7 0 -9 5 -4 13 11 18 12 36 2 43 -5 3 -9 16
-9 30 0 18 -38 81 -74 122 -11 11 -70 5 -106 -12z"/>
<path d="M7680 6725 c-25 -14 -126 -14 -169 0 -12 3 -40 -3 -68 -16 -26 -12
-58 -23 -69 -25 -12 -1 -35 -9 -52 -18 -16 -8 -32 -13 -35 -10 -2 3 -86 7
-186 9 -99 2 -185 6 -190 9 -5 3 -19 -3 -32 -13 -21 -17 -23 -26 -22 -107 1
-48 -1 -92 -5 -98 -21 -34 16 -116 53 -116 8 0 19 -17 26 -42 6 -24 19 -61 29
-83 10 -22 27 -61 39 -86 11 -25 27 -52 36 -59 24 -20 36 -46 29 -64 -7 -18
-34 -22 -34 -6 0 6 -6 10 -12 9 -7 -1 -31 -1 -53 0 l-40 1 -2 118 c0 64 -6
129 -12 145 -11 27 -54 52 -72 41 -5 -3 -9 -1 -9 5 0 13 -31 19 -57 10 -20 -8
-22 -4 -28 49 -16 160 -50 254 -100 278 -16 8 -42 22 -58 30 -15 8 -37 18 -50
20 -52 13 -215 24 -252 18 -22 -4 -51 -8 -64 -10 -13 -1 -28 -7 -34 -13 -6 -6
-21 -11 -33 -11 -13 0 -26 -4 -29 -10 -3 -5 -14 -10 -23 -10 -10 0 -28 -10
-42 -22 -14 -13 -36 -29 -50 -36 -14 -7 -40 -35 -59 -61 -29 -44 -32 -54 -27
-100 7 -62 27 -104 69 -142 l30 -28 -33 -28 c-18 -15 -36 -30 -39 -33 -3 -3
-13 -18 -22 -35 -21 -40 -15 -176 10 -199 69 -64 87 -79 126 -97 62 -29 237
-22 310 12 49 22 115 33 115 18 0 -15 71 -51 108 -55 89 -9 190 -5 198 8 16
26 22 -3 19 -92 -2 -56 1 -100 6 -100 5 0 16 -18 25 -40 9 -22 22 -40 29 -40
7 0 18 -6 24 -14 35 -42 251 -71 307 -41 16 8 33 15 38 15 14 0 116 79 114 88
-1 4 10 26 25 50 15 24 33 55 40 70 6 15 28 48 49 73 21 26 38 52 38 58 0 16
20 49 58 98 17 23 32 46 32 52 0 6 5 11 10 11 6 0 10 8 10 18 0 29 33 104 68
154 17 26 32 53 32 60 0 10 11 12 40 10 71 -7 88 2 96 53 3 25 3 53 -2 62 -4
10 -8 21 -8 25 -1 3 -4 10 -8 14 -11 11 -10 132 1 139 10 5 6 78 -4 95 -4 6
-13 10 -21 10 -8 0 -14 4 -14 10 0 8 -62 30 -85 30 -5 -1 -21 -7 -35 -15z
m-1247 -88 c37 -1 67 -4 67 -8 0 -3 6 -6 13 -6 19 0 108 -64 114 -82 3 -9 12
-23 18 -31 25 -30 36 -179 21 -287 -2 -18 0 -33 6 -33 5 0 6 -6 1 -12 -16 -27
20 -126 57 -155 27 -22 59 -15 71 15 7 15 15 36 20 47 5 11 8 27 7 35 -3 31 2
61 10 56 6 -3 8 -121 2 -121 -1 0 -4 -11 -6 -25 -5 -27 -43 -62 -57 -53 -5 3
-13 0 -17 -7 -12 -19 -201 -11 -208 10 -2 5 -10 10 -17 10 -7 0 -16 10 -20 23
-4 12 -8 25 -10 30 -1 4 -3 11 -4 16 -4 32 -85 10 -119 -33 -23 -30 -105 -57
-167 -57 -106 2 -195 28 -195 57 0 6 -8 14 -18 16 -17 5 -18 12 -12 59 4 30 6
57 4 60 -4 7 18 31 64 71 23 20 43 27 84 30 29 1 72 12 96 25 33 17 42 18 42
7 0 -18 39 -18 63 0 21 17 67 129 67 167 0 27 -56 99 -77 99 -6 0 -13 7 -17
15 -8 21 -48 19 -74 -5 -12 -11 -32 -20 -46 -20 -52 0 -77 -60 -40 -97 11 -12
18 -12 28 -4 8 7 25 9 39 6 23 -6 25 -9 15 -38 -17 -52 -52 -77 -109 -77 -27
0 -49 5 -49 10 0 6 -8 13 -17 17 -67 23 -83 94 -35 156 25 33 44 44 187 108
23 10 88 16 125 11 14 -2 55 -4 93 -5z m1187 -38 c0 -4 12 -10 28 -14 15 -4
27 -6 27 -4 0 1 10 -3 23 -10 16 -8 22 -9 22 -1 0 7 6 10 13 7 6 -2 11 -10 9
-17 -1 -7 3 -18 9 -26 8 -10 8 -14 1 -14 -7 0 -11 -22 -10 -58 2 -65 -5 -82
-32 -82 -10 0 -22 -5 -25 -11 -4 -5 -17 -14 -30 -19 -27 -10 -54 -62 -53 -104
0 -15 -3 -31 -8 -35 -5 -3 -20 -31 -34 -61 -14 -30 -28 -57 -31 -60 -4 -3 -16
-26 -28 -52 -12 -26 -34 -62 -49 -80 -15 -18 -34 -46 -42 -63 -8 -16 -21 -37
-30 -46 -37 -39 -50 -61 -50 -79 0 -11 -4 -20 -10 -20 -5 0 -10 -7 -10 -15 0
-8 -4 -15 -9 -15 -4 0 -22 -13 -39 -30 -18 -16 -40 -30 -51 -30 -10 0 -31 -6
-46 -14 -17 -9 -42 -13 -64 -9 -20 3 -53 6 -74 7 -20 1 -45 8 -55 16 -9 8 -31
27 -49 41 -27 23 -31 31 -28 71 2 43 25 100 49 123 15 15 45 10 107 -16 49
-22 54 -30 49 -84 -1 -11 -7 -24 -13 -30 -22 -18 -19 -60 6 -83 21 -20 24 -20
52 -6 17 8 31 15 33 15 8 -3 51 33 47 39 -3 5 4 12 16 15 12 4 18 13 15 20 -3
8 1 18 8 24 13 11 15 85 3 97 -4 4 -7 15 -7 25 0 10 -9 23 -20 29 -11 6 -20
16 -20 23 -1 17 -36 57 -50 57 -6 0 -10 8 -8 18 2 9 -4 24 -14 32 -17 15 -50
67 -68 108 -5 12 -14 22 -19 22 -8 0 -37 54 -63 120 -6 14 -12 44 -13 66 -3
51 -10 64 -36 64 -16 0 -19 7 -19 53 0 28 4 58 9 66 19 30 379 23 421 -9 24
-18 31 -73 11 -93 -5 -5 -7 -17 -4 -26 4 -9 3 -13 -2 -9 -9 9 -65 -19 -82 -41
-16 -21 -9 -87 12 -108 16 -16 35 -54 41 -81 4 -22 25 -42 44 -42 21 0 34 15
48 58 12 35 34 62 51 62 14 0 51 59 51 82 0 9 -7 23 -15 32 -8 8 -15 19 -15
24 0 5 -9 19 -20 32 -11 13 -20 28 -21 34 0 6 -2 20 -4 31 -7 35 17 75 45 76
14 0 33 4 43 8 23 8 77 8 77 0z m-535 -599 c3 -5 1 -10 -4 -10 -6 0 -11 5 -11
10 0 6 2 10 4 10 3 0 8 -4 11 -10z"/>
<path d="M6339 6263 c-6 -7 -20 -13 -30 -13 -11 0 -19 -4 -19 -8 0 -5 -8 -17
-18 -28 -24 -26 -45 -76 -35 -83 4 -3 14 -18 22 -33 38 -74 137 -31 159 69 10
44 -9 110 -28 98 -5 -3 -10 -2 -10 3 0 13 -29 10 -41 -5z"/>
<path d="M2259 6606 c-33 -15 -55 -43 -69 -88 -6 -21 -16 -38 -23 -38 -6 0 -3
-9 8 -19 21 -21 78 -29 108 -16 9 4 31 5 48 3 22 -4 33 0 40 15 11 20 4 87 -9
87 -4 0 -12 13 -18 29 -13 32 -47 43 -85 27z"/>
<path d="M432 4141 c-14 -40 4 -51 86 -51 33 0 97 -6 143 -14 46 -8 112 -18
146 -22 91 -10 97 -16 97 -110 1 -68 -1 -79 -17 -82 -10 -2 -26 0 -35 4 -9 4
-24 6 -32 5 -34 -6 -41 -60 -9 -68 12 -4 18 -11 15 -20 -3 -7 -2 -21 3 -31 21
-39 64 -188 67 -230 2 -43 15 -62 41 -62 15 0 42 50 36 68 -7 19 17 111 40
151 12 20 36 53 55 74 33 38 36 57 23 125 -1 1 -10 2 -20 2 -11 0 -23 -9 -26
-20 -7 -21 -22 -25 -44 -11 -17 11 -12 178 6 189 15 9 47 7 118 -6 28 -6 75
-13 105 -17 30 -4 66 -12 80 -18 23 -11 25 -18 25 -77 l0 -65 -48 -9 c-53 -9
-63 -21 -71 -86 -5 -40 -27 -109 -56 -177 -6 -13 -14 -33 -19 -45 -5 -13 -23
-53 -40 -91 -17 -37 -31 -69 -31 -71 0 -10 -61 -132 -74 -149 -11 -15 -33 -18
-134 -20 -74 -2 -125 1 -134 7 -22 16 -57 85 -72 141 -16 59 -62 187 -81 230
-25 55 -63 169 -81 238 -17 68 -18 69 -69 71 -21 2 -24 30 -14 136 4 40 2 45
-16 45 -18 0 -21 -8 -25 -87 -5 -76 -8 -90 -28 -104 -40 -28 -21 -53 56 -71
29 -7 37 -17 59 -68 61 -142 196 -544 189 -562 -3 -7 -1 -24 4 -37 11 -29 50
-37 95 -20 30 11 218 11 254 -1 24 -7 38 11 46 60 4 22 16 55 27 74 10 18 30
59 43 91 13 32 40 91 60 132 19 41 35 82 35 91 0 30 53 149 74 166 9 8 16 21
16 31 0 15 5 16 39 7 36 -10 39 -13 29 -31 -30 -55 -5 -204 37 -219 8 -4 15
-13 15 -20 0 -8 10 -22 23 -30 22 -16 22 -16 -14 -16 -48 -1 -92 -50 -116
-129 -23 -78 -23 -79 -7 -110 8 -15 14 -33 14 -39 0 -7 4 -13 10 -13 5 0 16
-16 24 -35 12 -27 21 -35 40 -35 15 0 26 4 26 9 0 10 87 -15 107 -32 24 -18
136 -33 171 -23 17 5 32 13 32 17 0 5 6 9 14 9 7 0 29 11 48 24 l35 23 21 -21
c45 -46 63 -60 77 -62 7 -1 29 -7 48 -13 26 -9 41 -9 63 0 16 7 40 14 54 16
14 2 32 11 41 19 8 8 24 14 35 14 10 0 28 7 38 15 11 8 27 15 37 15 9 0 36 9
60 19 37 16 65 19 168 17 68 -1 148 1 178 4 39 4 56 2 67 -8 12 -12 20 -13 45
-3 16 7 34 10 39 7 5 -3 36 -8 68 -11 57 -6 128 -18 137 -24 1 -1 22 -4 47 -6
44 -4 63 -7 145 -25 23 -5 51 -7 63 -3 19 5 22 12 22 54 0 35 5 51 18 58 15 9
15 13 4 31 -9 15 -11 38 -6 76 7 59 14 64 20 13 5 -40 55 -148 69 -149 6 0 27
-14 48 -31 21 -17 44 -28 52 -25 8 3 35 -5 59 -18 44 -24 75 -25 206 -11 81 9
129 9 136 2 3 -3 14 -2 23 2 9 4 34 17 56 27 22 10 46 25 53 31 7 7 20 13 28
13 8 0 27 21 42 46 l29 45 16 -23 c31 -45 72 -85 95 -92 12 -4 22 -12 22 -18
0 -6 10 -8 22 -5 11 3 33 0 47 -7 40 -20 174 -38 297 -39 54 -1 138 26 151 47
5 6 37 26 73 43 36 18 81 48 102 68 41 40 51 84 48 197 -4 102 -5 99 29 82 24
-12 34 -13 50 -2 11 7 23 10 26 6 3 -3 9 -34 13 -69 7 -56 5 -70 -15 -108 -25
-47 -29 -71 -13 -71 6 0 10 -8 10 -19 0 -17 66 -91 81 -91 4 0 14 -6 21 -12
31 -29 89 -59 123 -63 11 -2 45 -10 75 -18 30 -9 71 -14 90 -13 19 1 52 3 72
4 26 1 45 10 63 29 19 22 25 24 25 11 0 -9 5 -20 11 -24 20 -12 79 -22 79 -13
0 17 52 21 128 9 69 -11 81 -11 110 4 18 9 37 14 43 10 6 -3 22 -1 35 6 20 11
23 19 19 49 -9 69 -7 163 4 174 25 25 5 114 -27 118 -31 3 -48 10 -58 23 -6 9
-13 14 -15 11 -13 -12 0 184 14 216 14 31 15 53 8 102 0 4 -25 7 -53 5 -29 -1
-66 1 -83 5 -16 4 -39 9 -50 11 -11 2 -39 9 -63 15 -23 7 -64 13 -90 15 -26 2
-49 5 -52 6 -3 1 -15 1 -27 1 -11 -1 -24 3 -28 9 -3 5 -11 8 -16 5 -5 -4 -9
-1 -9 4 0 16 -46 13 -60 -4 -16 -20 -40 -19 -70 2 -17 12 -25 13 -28 5 -2 -8
-9 -9 -22 -2 -9 5 -53 12 -96 16 -44 3 -83 9 -89 12 -34 21 -91 24 -109 7 -17
-17 -14 -53 7 -66 5 -4 0 -12 -12 -18 -17 -10 -21 -21 -21 -61 0 -52 -19 -155
-27 -147 -5 6 -11 34 -12 59 -1 9 -12 29 -24 45 -13 15 -27 39 -30 53 -4 15
-20 31 -39 40 -17 8 -36 24 -42 35 -15 28 -95 105 -108 105 -6 0 -19 7 -28 15
-44 40 -274 36 -351 -6 -23 -12 -79 -68 -79 -79 0 -5 -8 -11 -17 -14 -27 -9
-116 -98 -131 -129 -6 -15 -12 -37 -12 -49 0 -27 -8 -19 -14 13 -2 13 -5 25
-7 27 -1 1 -2 6 -3 10 0 5 -10 17 -20 27 -10 11 -25 34 -33 52 -7 18 -20 33
-28 33 -8 0 -15 4 -15 10 0 5 -19 19 -42 30 -33 16 -58 20 -104 18 -37 -2 -67
2 -76 9 -11 9 -30 8 -88 -7 -102 -26 -165 -58 -241 -123 -93 -80 -141 -184
-152 -330 -1 -9 -6 -15 -12 -12 -5 3 -17 8 -26 11 -24 8 -39 91 -39 213 0 109
-11 153 -45 181 -8 7 -15 18 -15 25 0 7 -10 15 -23 19 -13 3 -34 15 -47 26
-13 11 -30 21 -39 21 -24 2 -34 4 -54 13 -9 5 -34 5 -55 2 -20 -3 -44 -6 -52
-7 -37 -3 -100 -22 -100 -31 0 -5 -4 -7 -9 -4 -14 9 -41 -5 -41 -21 0 -7 -15
-20 -32 -28 l-33 -13 -15 46 c-14 43 -17 47 -45 45 -16 -2 -52 -13 -80 -25
-35 -15 -70 -22 -117 -22 -40 -1 -72 -6 -80 -13 -6 -7 -20 -13 -29 -13 -9 0
-24 -11 -33 -25 -13 -20 -14 -30 -5 -46 15 -28 7 -148 -10 -158 -10 -6 -10
-13 -2 -28 5 -11 8 -23 4 -26 -8 -9 20 -34 33 -30 13 4 27 -68 18 -91 -9 -24
-24 -19 -24 7 0 37 -12 45 -75 49 l-60 4 -7 60 c-15 138 -19 156 -38 192 -39
73 -92 117 -190 155 -61 23 -74 24 -200 20 -144 -4 -200 -14 -220 -38 -7 -8
-19 -15 -26 -15 -8 0 -14 -7 -14 -16 0 -16 -28 -45 -65 -66 -17 -9 -18 -9 -9
3 16 20 12 265 -4 281 -9 9 -37 12 -83 10 -39 -1 -89 3 -112 9 -23 7 -55 14
-72 16 -41 4 -88 24 -101 42 -10 13 -15 13 -38 -2 -14 -10 -26 -26 -26 -37 0
-16 -4 -18 -17 -11 -23 12 -289 51 -373 55 -36 2 -77 7 -91 10 -23 7 -28 4
-37 -23z m1433 -311 c6 -4 24 -10 40 -14 44 -11 109 -55 134 -91 28 -42 40
-116 37 -237 -1 -64 1 -98 8 -98 7 0 8 -3 1 -8 -5 -4 -10 -29 -9 -57 1 -99 1
-101 32 -100 54 1 91 51 93 123 l1 37 9 -30 c11 -38 -6 -132 -30 -161 -19 -24
-61 -50 -75 -46 -4 2 -13 -4 -20 -12 -36 -47 -196 3 -196 61 0 31 -27 61 -56
61 -16 0 -39 -14 -62 -37 -76 -77 -126 -90 -232 -60 -38 10 -76 19 -84 19 -8
0 -28 12 -45 27 -40 35 -41 83 -5 156 43 85 45 86 129 81 41 -2 76 0 79 5 4 5
24 12 46 16 42 7 80 43 80 74 0 10 5 22 10 27 6 6 12 30 13 52 1 23 5 42 10
42 5 0 5 15 2 33 -10 41 -60 91 -83 81 -9 -4 -29 -7 -43 -6 -37 1 -73 -39 -65
-73 6 -22 39 -46 69 -49 16 -2 26 -30 16 -48 -5 -10 -6 -18 -2 -18 4 0 -5 -11
-20 -24 -58 -50 -135 -41 -193 21 -33 35 -33 112 -2 156 28 41 42 51 103 81
44 22 62 24 175 24 69 -1 130 -4 135 -8z m1150 -6 c78 -19 134 -89 141 -177 2
-23 7 -71 12 -106 4 -35 5 -87 1 -115 -7 -51 11 -106 35 -106 29 0 44 -61 25
-103 -10 -23 -14 -24 -112 -22 -121 3 -206 13 -227 29 -17 12 -21 100 -6 124
4 7 2 12 -4 12 -7 0 -9 7 -6 16 4 9 1 23 -5 30 -8 10 -9 18 0 27 6 8 9 16 6
19 -3 3 -6 34 -6 71 -1 67 -11 85 -64 115 -42 23 -110 -36 -129 -113 -14 -56
-15 -65 -3 -65 9 0 8 -3 -1 -8 -27 -18 38 -121 77 -122 8 0 11 -7 8 -20 -3
-11 -2 -22 2 -25 6 -3 7 -31 2 -54 -1 -2 -7 2 -14 8 -8 6 -17 8 -20 4 -4 -3
-50 -7 -104 -8 -54 -1 -143 -6 -198 -10 -120 -8 -128 -3 -119 67 6 42 10 48
51 68 l45 23 -7 81 c-16 190 -15 186 -46 186 -16 0 -19 7 -19 44 0 56 8 76 26
69 8 -3 21 0 29 7 9 7 18 10 21 7 3 -2 31 1 62 9 31 7 72 13 89 14 28 0 34 -4
39 -27 12 -56 16 -63 36 -74 14 -8 23 -8 31 0 6 6 18 11 27 11 8 0 33 20 54
45 22 25 46 45 54 45 8 0 28 6 45 14 54 25 102 27 172 10z m1551 -6 c33 -8 66
-18 72 -22 7 -4 31 -8 53 -8 35 0 42 -4 50 -28 8 -22 18 -29 47 -34 82 -13
133 -96 138 -226 3 -72 -12 -200 -25 -210 -3 -3 -11 -14 -17 -24 -5 -11 -20
-20 -33 -21 -13 -1 -26 -6 -29 -12 -14 -21 -98 -55 -161 -65 -74 -12 -80 -12
-136 -3 -22 3 -56 8 -75 10 -72 9 -116 17 -140 27 -132 52 -160 94 -156 231 2
50 8 93 14 99 7 7 12 25 12 40 0 32 49 148 62 148 5 0 20 11 33 24 28 28 103
81 123 87 25 8 106 1 168 -13z m664 -48 c173 -29 219 -46 238 -88 7 -18 10
-69 8 -152 -5 -149 8 -241 35 -258 43 -27 105 22 115 91 19 134 -3 218 -62
237 -40 13 -43 21 -31 89 l9 54 75 -7 c42 -3 85 -12 97 -19 12 -7 56 -22 99
-32 93 -23 103 -35 92 -109 -4 -28 -8 -62 -10 -76 -1 -14 -7 -36 -14 -49 -26
-47 6 -140 44 -128 5 2 15 -2 22 -9 7 -7 17 -14 23 -16 5 -1 12 -40 14 -86 3
-52 1 -80 -5 -76 -6 3 -62 7 -125 9 -71 2 -120 8 -129 15 -8 7 -15 27 -15 45
0 46 -9 65 -30 65 -33 0 -50 -12 -50 -34 0 -24 -63 -90 -95 -100 -56 -15 -85
-14 -190 9 -52 11 -157 69 -179 98 -19 25 -19 29 -5 37 13 8 15 19 9 57 -7 48
-5 109 6 191 8 55 -16 96 -49 86 -12 -4 -25 -12 -29 -18 -4 -6 -10 -8 -13 -4
-8 8 -8 92 1 141 4 25 2 43 -7 54 -13 15 -11 16 11 10 14 -4 77 -16 140 -27z
m-1391 6 c5 -4 12 -2 16 4 4 6 15 4 31 -6 13 -9 24 -12 24 -8 0 5 6 2 13 -7 7
-9 22 -21 35 -28 12 -6 22 -18 22 -26 0 -8 11 -22 24 -30 31 -21 44 -90 31
-161 -8 -43 -53 -53 -101 -23 -19 11 -34 25 -34 30 0 6 -4 8 -9 5 -16 -10 -35
52 -24 77 6 12 7 31 3 43 -9 24 -91 58 -119 49 -30 -9 -80 -62 -87 -92 -3 -16
-10 -42 -15 -60 -6 -17 -7 -51 -4 -75 4 -24 8 -55 10 -70 2 -15 11 -40 19 -57
9 -16 16 -37 16 -45 0 -17 65 -57 83 -51 6 2 28 6 47 9 39 6 76 43 85 87 6 28
37 49 43 30 5 -15 62 -14 62 0 0 6 7 9 15 5 8 -3 19 2 24 12 5 9 12 15 14 12
8 -8 -13 -113 -25 -127 -6 -7 -7 -13 -2 -13 4 0 -1 -6 -11 -14 -11 -8 -23 -12
-26 -10 -4 2 -12 -3 -19 -11 -27 -33 -173 -59 -336 -59 -79 0 -93 3 -114 22
-13 12 -28 22 -33 22 -5 0 -19 10 -31 23 -12 13 -29 26 -38 30 -39 15 -52 55
-53 166 0 94 3 112 26 161 56 118 130 165 277 177 40 3 74 9 76 12 5 8 71 5
85 -3z m278 -168 c-3 -8 -6 -5 -6 6 -1 11 2 17 5 13 3 -3 4 -12 1 -19z"/>
<path d="M1710 3451 c-8 -6 -17 -8 -21 -5 -7 4 -17 -20 -38 -84 -16 -52 7 -90
55 -90 27 0 38 5 41 19 3 10 12 19 19 19 8 0 14 6 14 14 0 8 6 21 13 28 8 7
17 30 21 49 6 35 5 37 -26 42 -18 3 -40 8 -48 11 -8 3 -22 2 -30 -3z"/>
<path d="M4553 3684 c-18 -9 -33 -21 -33 -26 0 -5 -8 -20 -17 -35 -19 -29 -21
-41 -23 -139 -3 -129 65 -247 132 -231 40 10 68 73 69 153 1 146 -27 284 -58
284 -6 0 -17 2 -25 5 -7 2 -28 -3 -45 -11z"/>
<path d="M6081 3842 c-29 -4 -51 -24 -51 -46 0 -8 -5 -18 -10 -21 -8 -5 -7
-11 1 -21 7 -9 11 -39 9 -77 -6 -141 -4 -157 18 -157 33 0 54 -25 83 -101 16
-41 29 -80 29 -87 0 -7 7 -27 16 -43 8 -17 17 -39 19 -50 2 -10 13 -28 24 -41
12 -12 21 -29 21 -38 0 -10 5 -31 11 -48 11 -33 47 -50 104 -50 26 1 148 -14
222 -27 12 -2 31 -8 42 -15 14 -7 21 -7 21 0 0 5 6 10 13 10 23 0 63 53 76
100 7 25 23 68 36 95 13 28 37 90 54 138 38 108 48 127 66 127 15 0 24 -34 29
-110 6 -84 58 -220 102 -268 46 -49 204 -99 339 -107 81 -5 249 43 296 85 19
16 37 30 41 30 4 0 10 10 14 23 4 12 18 39 30 59 13 21 24 53 24 72 0 18 6 39
13 45 23 19 46 -52 53 -166 8 -127 11 -130 102 -114 65 11 281 9 301 -3 5 -4
12 -2 16 4 4 7 45 8 114 5 123 -7 134 -2 146 72 5 34 2 50 -15 77 -18 29 -20
47 -18 112 3 77 3 77 -24 85 -16 4 -28 4 -28 0 0 -4 -16 -8 -35 -9 -22 -1 -35
3 -35 11 0 7 -3 23 -7 36 -4 18 -3 22 8 19 8 -3 13 -11 11 -17 -1 -6 5 -11 13
-11 8 0 15 -4 15 -9 0 -7 50 -8 70 -1 3 1 18 1 33 0 28 -2 67 23 67 42 0 6 10
18 22 28 16 12 22 28 22 56 0 35 -10 141 -15 154 0 3 -1 12 0 20 0 8 -12 30
-27 48 -31 37 -80 53 -169 55 -43 0 -56 -4 -75 -24 -19 -19 -55 -42 -88 -55
-3 -1 -6 17 -7 40 -4 57 -28 76 -85 65 -104 -20 -220 -29 -234 -18 -22 18
-102 -20 -88 -42 3 -5 2 -14 -1 -20 -4 -5 -7 -49 -7 -97 0 -61 -4 -93 -14
-107 -13 -17 -16 -18 -24 -5 -5 8 -13 30 -16 48 -4 19 -13 36 -20 39 -8 3 -14
9 -14 14 0 8 -20 33 -50 62 -44 44 -59 57 -95 79 -48 31 -97 41 -188 40 -48 0
-74 -5 -86 -16 -10 -9 -20 -13 -24 -10 -8 9 -67 -16 -67 -27 0 -5 -11 -9 -24
-9 -13 0 -26 -7 -30 -15 -3 -8 -12 -15 -20 -15 -23 0 -85 -34 -86 -46 0 -6
-13 -17 -30 -24 -16 -7 -35 -18 -41 -26 -6 -8 -18 -14 -25 -14 -11 0 -10 7 3
35 13 27 14 42 7 63 -9 25 -13 27 -62 24 -29 -1 -79 4 -111 13 -49 13 -187 15
-226 4 -18 -5 -128 12 -211 32 -45 11 -112 22 -148 26 -36 3 -66 9 -66 12 0 7
-21 8 -59 3z m184 -102 c22 -6 47 -12 55 -12 25 -1 117 -26 139 -38 12 -6 26
-8 32 -4 13 7 58 -14 76 -36 30 -37 6 -121 -31 -107 -20 8 -66 -38 -66 -66 0
-13 7 -32 15 -43 8 -10 15 -29 15 -41 0 -13 4 -23 9 -23 5 0 7 -22 4 -48 -5
-59 18 -96 55 -86 25 7 52 60 52 101 0 24 27 70 62 105 10 10 18 31 18 48 0
23 -5 31 -24 36 -49 12 -59 120 -15 167 17 19 23 20 87 8 91 -16 114 -29 118
-66 4 -39 -4 -65 -21 -65 -7 0 -23 -8 -35 -18 -18 -14 -23 -30 -25 -78 -2 -59
-31 -144 -66 -194 -9 -14 -24 -42 -32 -63 -31 -73 -66 -88 -198 -83 -82 3
-102 7 -141 30 -31 18 -48 36 -53 54 -3 15 -31 78 -62 140 -53 109 -55 116
-49 172 7 61 4 67 -49 77 -11 2 -22 8 -23 13 -2 6 -8 8 -13 4 -5 -3 -9 19 -9
49 0 50 2 55 28 65 59 23 72 23 147 2z m1837 1 c31 -13 46 -27 55 -50 6 -17 7
-29 2 -25 -12 7 -12 5 7 -50 14 -42 19 -47 43 -45 14 2 31 0 36 -3 14 -9 17
-105 5 -163 -15 -71 -16 -97 -2 -121 16 -30 53 -37 95 -19 44 18 64 12 69 -24
7 -47 -8 -86 -34 -87 -13 -1 -43 -4 -68 -8 -163 -23 -301 -25 -365 -7 l-51 14
-2 51 c-4 73 7 129 23 122 7 -2 25 6 40 19 20 19 25 33 23 60 -1 19 -6 35 -11
35 -5 0 -7 17 -4 38 5 38 -17 111 -30 99 -3 -4 -12 -2 -19 4 -8 7 -14 7 -19
-1 -3 -5 -13 -10 -21 -10 -22 0 -18 86 6 125 22 36 34 43 89 51 20 3 37 7 38
8 10 9 60 2 95 -13z m-682 -3 c23 2 52 -3 71 -12 18 -9 38 -16 44 -16 18 0 70
-50 91 -87 10 -18 22 -33 26 -33 5 0 16 -16 25 -35 9 -19 21 -31 27 -28 6 3 8
3 4 -2 -4 -4 -1 -17 7 -29 16 -21 19 -54 9 -80 -5 -12 -9 -13 -24 -3 -15 9
-30 8 -68 -4 -49 -16 -112 -16 -141 1 -8 4 -22 5 -31 0 -9 -5 -29 -2 -50 7
-69 31 -120 23 -120 -19 0 -8 -5 -19 -12 -26 -9 -9 -8 -15 8 -27 13 -9 14 -14
5 -15 -9 0 -10 -4 -4 -12 6 -7 13 -25 17 -40 3 -15 15 -30 26 -33 11 -4 18
-10 15 -15 -5 -9 38 -32 82 -45 28 -8 70 14 117 61 34 34 42 37 97 38 42 1 56
-2 46 -9 -8 -6 -17 -19 -20 -30 -7 -21 -50 -75 -60 -75 -3 0 -22 -10 -43 -22
-20 -12 -46 -23 -58 -24 -11 -1 -47 -9 -79 -18 -103 -30 -241 -8 -304 48 -13
11 -23 16 -23 12 0 -4 -19 12 -42 36 -44 45 -76 121 -78 183 0 17 -2 41 -4 55
-6 51 15 94 71 147 31 29 60 50 64 47 5 -3 9 0 9 6 0 5 21 20 48 33 26 12 49
24 52 27 3 3 12 6 20 7 27 4 123 32 129 38 3 4 7 2 8 -2 2 -5 21 -7 43 -5z
m1043 -33 c9 -4 17 -10 17 -14 0 -4 9 -17 20 -29 28 -30 36 -55 32 -100 -4
-44 -37 -70 -84 -67 -25 1 -68 40 -68 62 0 4 -5 24 -10 44 -9 31 -16 38 -45
43 -39 8 -43 16 -17 38 49 43 90 50 155 23z m-577 -250 c17 -23 9 -54 -20 -77
-28 -23 -39 -22 -31 2 3 11 2 20 -3 20 -9 0 -22 66 -16 73 10 10 59 -3 70 -18z"/>
<path d="M7363 3632 c-54 -55 -59 -63 -67 -104 -8 -45 -1 -50 78 -53 33 -1 77
-5 96 -9 33 -7 37 -5 50 21 18 38 18 46 0 60 -8 6 -12 15 -8 18 9 9 -14 55
-38 76 -11 9 -31 19 -46 23 -22 5 -34 0 -65 -32z"/>
<path d="M979 2426 c-2 -2 -38 -6 -79 -9 -41 -3 -76 -6 -77 -7 -2 -2 -6 -3
-10 -4 -5 -1 -18 -7 -29 -14 -12 -6 -24 -8 -28 -5 -3 3 -6 2 -6 -3 0 -6 -16
-16 -35 -23 -32 -11 -85 -54 -85 -67 0 -4 -27 -33 -60 -65 -33 -32 -61 -64
-62 -71 -5 -42 -8 -66 -12 -88 -33 -188 -36 -217 -25 -305 10 -93 25 -145 40
-145 5 0 9 -7 9 -15 0 -28 35 -80 95 -143 33 -34 66 -62 73 -62 6 0 12 -4 12
-9 0 -8 24 -19 65 -27 29 -7 75 -28 75 -35 0 -4 15 -9 33 -12 17 -3 48 -9 67
-14 49 -13 205 -7 265 10 68 20 186 77 192 94 3 7 10 10 15 7 26 -17 168 184
160 225 -2 7 1 10 7 7 5 -4 13 -33 17 -66 4 -39 13 -65 25 -76 11 -9 19 -23
19 -30 0 -15 101 -114 117 -114 7 0 16 -6 20 -13 4 -6 30 -23 57 -36 77 -38
170 -32 321 18 133 45 163 63 184 109 8 18 19 32 24 32 18 0 36 35 37 67 0 24
-9 41 -31 63 -18 16 -38 30 -45 30 -8 0 -14 4 -14 9 0 13 -83 6 -107 -10 -13
-7 -23 -21 -23 -29 0 -11 -12 -15 -49 -15 -28 0 -52 3 -54 5 -14 15 -46 91
-52 122 -8 43 9 104 31 112 11 4 14 1 9 -13 -3 -11 -1 -22 5 -26 5 -3 10 -14
10 -23 0 -21 78 -65 146 -82 65 -17 103 -4 156 52 35 36 39 38 54 24 10 -10
24 -14 40 -10 18 5 24 2 24 -10 0 -9 6 -16 13 -16 8 0 7 -4 -3 -10 -13 -8 -13
-12 -1 -32 8 -13 15 -39 16 -58 3 -46 22 -140 35 -165 5 -11 14 -32 19 -47 10
-26 21 -34 111 -79 64 -32 242 -40 287 -12 55 33 94 72 109 108 17 41 31 45
44 11 5 -13 18 -27 30 -31 11 -3 18 -11 15 -16 -4 -5 -1 -10 4 -10 6 -1 15 -2
19 -3 5 0 17 -9 27 -19 10 -10 26 -16 36 -14 11 3 19 1 19 -4 0 -4 19 -14 43
-20 42 -13 54 -14 162 -24 33 -3 80 -9 105 -14 65 -14 122 -3 225 42 49 21 98
41 109 43 10 2 25 13 34 25 24 35 62 109 62 122 0 7 7 26 16 42 27 51 13 234
-26 338 -18 48 -17 54 10 37 10 -6 20 -4 32 7 10 9 18 14 19 12 2 -7 10 -268
12 -377 1 -56 -2 -102 -6 -102 -8 0 -4 -76 6 -125 3 -11 5 -23 6 -27 1 -7 42
-23 53 -20 54 14 226 22 243 11 29 -18 56 -17 69 4 18 29 28 90 20 121 l-6 26
-28 -20 c-16 -11 -43 -23 -62 -26 -18 -4 -39 -11 -45 -16 -7 -6 -36 -7 -65 -4
-86 11 -100 16 -95 37 3 11 2 21 -3 24 -16 10 -22 79 -25 314 -2 134 -7 246
-10 249 -3 3 -21 6 -40 5 l-35 -1 1 56 c0 55 15 155 18 120 2 -25 21 -26 81
-5 46 16 71 18 159 14 131 -8 137 -12 158 -134 15 -85 15 -92 -2 -131 -10 -22
-23 -38 -28 -35 -7 4 -8 -1 -3 -13 4 -10 9 -27 11 -36 2 -10 15 -29 28 -44 30
-32 26 -54 -15 -77 -22 -13 -29 -23 -25 -37 3 -11 1 -20 -3 -20 -10 0 -6 -95
5 -131 4 -13 18 -34 31 -47 20 -21 29 -23 74 -18 82 9 104 28 120 100 7 33 18
68 23 76 11 19 -7 90 -31 120 -20 25 -73 36 -102 20 -29 -16 -36 -6 -12 16 23
22 37 60 33 90 -5 50 160 72 247 32 80 -37 95 -62 131 -220 21 -90 21 -99 7
-161 -14 -59 -47 -117 -67 -117 -4 0 -30 -15 -59 -34 -46 -31 -141 -56 -175
-47 -5 2 -36 7 -68 13 -38 7 -62 17 -70 29 -16 26 -24 24 -30 -8 -9 -47 16
-80 65 -87 24 -4 56 -15 71 -25 46 -30 170 -9 214 35 9 8 22 13 29 10 8 -3 20
3 26 14 7 11 18 20 25 20 6 0 30 21 52 46 23 26 41 40 41 32 0 -52 75 -158
111 -158 10 0 22 -6 26 -14 12 -20 41 -32 108 -46 33 -7 64 -17 70 -22 12 -11
81 -10 103 1 9 5 49 19 87 31 69 22 189 75 212 95 71 59 110 118 118 177 6 44
11 51 40 64 37 15 59 59 43 88 -14 24 -3 31 27 18 21 -10 25 -18 25 -54 0 -60
-18 -91 -59 -99 -47 -10 -63 -28 -55 -67 4 -18 10 -32 15 -32 14 0 38 -54 43
-101 6 -49 29 -73 64 -64 17 4 22 1 22 -14 0 -22 35 -34 61 -20 26 13 121 17
192 7 68 -10 93 -11 152 -5 53 5 74 15 108 45 22 21 27 34 27 72 0 25 -4 50
-9 56 -12 13 -19 84 -11 114 9 36 -20 64 -60 58 -39 -6 -49 7 -57 73 l-5 54
26 -34 c33 -43 74 -71 106 -71 26 0 109 72 132 113 15 29 15 162 0 208 -16 46
-68 95 -112 105 -37 9 -118 6 -135 -4 -5 -4 -19 -8 -29 -9 -11 -2 -28 -11 -38
-20 -17 -15 -18 -15 -18 10 0 28 -19 77 -30 77 -4 0 -33 -9 -66 -19 -94 -30
-165 -42 -210 -35 -37 5 -45 3 -73 -25 -41 -40 -49 -65 -40 -114 4 -22 2 -53
-3 -69 -6 -15 -8 -35 -4 -43 3 -8 1 -17 -5 -21 -6 -3 -8 -12 -5 -20 3 -8 2
-14 -2 -14 -8 0 -25 31 -61 110 -36 77 -75 132 -106 149 -17 9 -46 28 -66 44
-29 21 -50 28 -97 31 -33 2 -64 6 -68 8 -18 9 -150 -1 -184 -14 -67 -27 -167
-94 -156 -105 7 -7 -20 -33 -33 -33 -6 0 -11 -5 -11 -12 0 -6 -9 -21 -20 -33
-12 -12 -34 -48 -49 -80 -30 -62 -32 -61 -46 18 -3 21 -15 53 -26 70 -10 18
-19 39 -19 49 0 20 -53 66 -100 86 -19 8 -37 14 -40 14 -3 0 -10 4 -16 9 -23
19 -137 14 -202 -10 -35 -13 -65 -21 -67 -19 -11 11 -27 160 -22 207 9 88 -12
107 -85 76 -34 -13 -179 -14 -301 -1 -29 4 -42 0 -55 -15 -9 -10 -26 -19 -38
-19 -32 0 -43 -20 -39 -75 3 -42 -17 -163 -32 -188 -4 -7 -61 20 -73 34 -12
15 -103 59 -142 69 -46 13 -196 16 -263 6 -63 -10 -69 -11 -85 -21 -8 -5 -24
-11 -35 -12 -11 -2 -24 -8 -29 -13 -6 -6 -20 -10 -33 -10 -13 0 -23 -5 -23
-11 0 -5 -15 -16 -32 -24 -48 -21 -89 -50 -81 -59 4 -4 -3 -9 -15 -13 -12 -3
-22 -13 -23 -22 0 -9 -6 -3 -14 14 -10 23 -10 42 -2 81 16 79 9 88 -64 80 -46
-6 -66 -4 -84 8 -22 14 -23 21 -20 100 4 99 -6 123 -46 108 -26 -10 -66 -8
-139 7 -113 24 -138 24 -165 -3 -26 -26 -34 -66 -12 -66 9 0 9 -2 0 -8 -6 -4
-11 -21 -11 -37 1 -64 -83 -151 -119 -123 -17 13 -71 -11 -79 -35 -3 -10 -1
-31 4 -45 17 -43 23 -82 14 -82 -5 0 -19 21 -32 48 -30 60 -90 118 -137 132
-21 6 -87 13 -148 16 -60 2 -124 6 -142 9 -21 4 -49 -2 -86 -20 -31 -14 -58
-25 -61 -25 -2 0 -18 -12 -34 -27 -113 -106 -132 -125 -132 -138 0 -26 -18
-16 -23 13 -6 34 -49 149 -67 182 -8 14 -13 28 -12 33 1 4 -2 7 -8 7 -5 0 -23
20 -38 45 -15 24 -52 65 -82 91 -30 25 -65 54 -78 65 -12 10 -27 19 -33 19 -6
0 -30 12 -54 26 -24 14 -52 24 -62 23 -10 -2 -40 2 -68 8 -71 17 -121 24 -126
19z m171 -116 c157 -44 270 -139 340 -285 49 -102 51 -111 51 -189 -1 -46 -8
-75 -32 -124 -17 -35 -28 -73 -26 -84 4 -13 -7 -33 -34 -61 -21 -23 -39 -45
-39 -49 0 -4 -8 -9 -19 -13 -10 -3 -31 -17 -47 -30 -16 -14 -35 -25 -41 -25
-7 0 -13 -4 -13 -8 0 -16 -132 -54 -198 -58 -39 -2 -92 3 -127 12 -33 8 -78
19 -100 25 -22 6 -48 17 -57 26 -10 9 -18 13 -18 8 0 -4 -11 0 -25 9 -13 9
-29 16 -35 16 -14 0 -30 13 -91 75 -40 41 -55 65 -76 130 -23 68 -27 97 -27
195 0 106 3 119 27 164 15 27 27 59 27 72 0 37 19 67 66 104 24 19 47 36 52
36 26 5 52 18 52 25 0 8 38 27 60 31 3 1 21 5 40 10 19 5 46 11 58 13 13 2 26
5 28 8 6 5 151 -17 204 -33z m1679 -83 c62 -14 62 -14 62 -137 0 -85 15 -111
59 -99 42 12 81 10 96 -5 17 -17 17 -20 4 -68 -12 -43 -43 -66 -64 -48 -21 17
-89 4 -108 -21 -26 -31 -27 -71 -4 -207 21 -119 37 -152 75 -152 15 0 36 9 46
20 10 11 23 20 30 20 17 0 13 -43 -6 -57 -9 -7 -22 -26 -29 -43 -19 -45 -83
-59 -215 -45 -16 2 -40 3 -52 4 -53 2 -137 150 -127 225 6 46 7 54 4 129 -3
71 -19 94 -58 83 -29 -8 -74 57 -74 106 1 48 1 49 75 78 63 25 70 34 102 133
11 31 23 57 27 57 4 0 8 6 8 14 0 26 61 31 149 13z m-824 -212 c28 -4 76 -7
107 -7 32 0 60 -4 64 -9 3 -5 13 -9 23 -9 10 0 26 -11 37 -24 10 -14 21 -23
25 -20 14 8 60 -66 61 -99 2 -67 -31 -92 -101 -74 -48 12 -73 44 -67 84 3 18
0 35 -5 39 -5 3 -7 9 -4 14 9 15 -14 21 -35 10 -13 -7 -20 -7 -20 0 0 14 -51
12 -71 -3 -13 -10 -25 -30 -34 -57 -1 -3 -7 -18 -13 -33 -26 -61 -10 -192 35
-294 16 -39 26 -45 69 -49 23 -1 48 8 86 31 33 21 55 30 59 23 4 -6 12 -7 19
-3 16 10 28 -11 23 -39 -5 -25 -45 -48 -103 -61 -19 -4 -39 -11 -45 -15 -5 -4
-29 -14 -53 -24 -141 -54 -266 -11 -358 124 -23 35 -54 155 -54 212 0 75 43
140 154 236 21 17 48 32 59 32 12 0 33 6 47 13 14 8 30 12 35 11 6 -2 33 -6
60 -9z m1630 -19 c17 -2 50 -7 75 -10 25 -3 54 -7 65 -10 32 -7 118 -56 137
-78 25 -28 48 -111 54 -198 4 -41 8 -78 10 -82 2 -4 0 -9 -6 -13 -6 -4 -8 -10
-5 -15 9 -15 -36 -90 -79 -133 -23 -22 -43 -40 -46 -40 -3 0 -16 -4 -30 -9
-14 -5 -25 -8 -26 -6 0 2 -7 -2 -15 -8 -33 -24 -221 -26 -264 -3 -5 3 -46 5
-90 4 -67 -2 -89 2 -134 23 -30 14 -56 34 -59 44 -2 10 -8 18 -13 18 -24 0
-81 167 -72 213 3 14 0 34 -6 44 -9 18 -7 20 16 15 23 -4 25 -2 20 17 -3 11
-1 21 4 21 5 0 9 7 9 16 0 21 19 39 68 64 22 12 46 28 53 36 6 8 18 14 26 14
7 0 16 7 19 15 4 8 12 15 19 15 7 0 18 6 25 14 6 8 17 13 24 10 8 -3 20 2 28
10 22 22 96 26 193 12z m1939 -41 c71 -7 186 -85 186 -124 0 -9 11 -29 25 -45
22 -26 45 -82 45 -112 0 -24 -75 -36 -195 -31 -66 3 -128 8 -137 12 -31 13
-19 27 20 24 48 -4 66 8 81 51 10 29 9 37 -4 46 -8 6 -15 18 -15 27 0 26 -56
49 -104 43 -22 -3 -47 -5 -53 -5 -7 -1 -13 -10 -13 -21 0 -12 -5 -17 -14 -14
-10 4 -16 -5 -21 -27 -5 -22 -4 -34 4 -37 6 -2 9 -8 6 -12 -3 -5 5 -16 17 -25
15 -10 19 -18 12 -23 -35 -23 -45 -106 -18 -163 26 -58 30 -63 60 -80 40 -24
57 -23 86 4 13 12 37 29 52 37 15 8 38 27 51 42 21 25 30 27 84 27 34 -1 61
-3 61 -6 0 -27 -105 -143 -129 -143 -6 0 -11 -4 -11 -10 0 -5 -11 -10 -25 -10
-15 0 -35 -11 -48 -25 -12 -14 -33 -28 -46 -30 -14 -2 -28 -10 -32 -17 -9 -14
-125 -17 -228 -7 -52 6 -58 9 -112 68 -31 34 -60 75 -64 89 -29 121 -7 262 52
327 10 11 28 32 40 48 23 30 109 92 151 109 15 6 43 12 62 15 19 2 36 6 38 8
4 3 41 1 136 -10z m676 0 c10 -12 11 -24 1 -56 -15 -49 -8 -75 23 -81 36 -7
66 9 77 41 7 21 24 37 54 51 62 30 101 32 154 9 42 -18 46 -23 48 -55 1 -20
10 -45 20 -56 13 -15 15 -22 6 -25 -7 -3 -13 -9 -13 -14 0 -22 -54 -89 -71
-89 -31 0 -99 80 -99 116 0 43 -38 64 -75 40 -14 -9 -25 -26 -26 -39 0 -12 -2
-29 -3 -37 -2 -8 0 -46 4 -85 6 -52 4 -81 -8 -118 -15 -46 -14 -49 5 -75 22
-28 24 -29 59 -18 33 10 65 -30 69 -86 4 -66 -3 -72 -61 -60 -27 6 -53 7 -57
3 -5 -5 -22 -5 -40 -2 -27 6 -116 0 -172 -12 -11 -2 -31 1 -45 8 -15 7 -33 9
-45 4 -29 -11 -31 -11 -32 13 -1 11 -6 24 -12 27 -5 3 -12 23 -16 44 -6 33 -4
42 18 65 42 45 50 73 54 178 4 109 -5 134 -48 134 -21 0 -22 1 -23 82 -1 50 2
58 17 58 10 0 27 4 37 10 14 8 119 30 181 39 4 1 12 -6 19 -14z m-3191 -157
c11 4 30 -13 31 -28 0 -3 -29 -5 -65 -4 -46 0 -66 -3 -69 -13 -7 -17 -26 -8
-26 12 0 18 70 44 95 35 11 -4 26 -5 34 -2z m-9 -153 c0 -8 5 -15 12 -15 9 0
9 -3 0 -12 -7 -7 -12 -25 -12 -40 0 -15 -4 -28 -9 -28 -5 0 -9 25 -8 55 1 30
5 55 9 55 4 0 8 -7 8 -15z m-80 -25 c0 -11 -4 -22 -10 -25 -5 -3 -10 0 -10 9
0 8 -3 22 -6 30 -5 12 -2 15 10 10 9 -3 16 -14 16 -24z"/>
<path d="M1001 2135 c-29 -16 -80 -90 -82 -119 -3 -34 -8 -118 -12 -166 -2
-25 2 -51 7 -59 6 -8 11 -33 12 -55 0 -23 5 -40 10 -39 6 1 11 -5 11 -12 0 -8
8 -33 19 -55 17 -36 22 -40 46 -36 15 3 30 1 33 -5 9 -13 44 -1 70 25 110 107
122 339 26 493 -25 41 -28 43 -71 42 -25 -1 -56 -7 -69 -14z"/>
<path d="M3500 1867 c0 -9 -6 -17 -13 -17 -17 0 -42 -45 -33 -59 4 -6 1 -20
-7 -32 -17 -23 -14 -159 4 -169 5 -4 7 -14 3 -24 -7 -19 10 -59 38 -90 36 -40
116 -15 154 48 26 45 44 141 32 182 -5 19 -6 39 -3 44 3 6 1 10 -4 10 -6 0
-11 9 -11 19 0 24 -47 81 -66 81 -8 0 -14 4 -14 9 0 6 -12 6 -29 1 -19 -5 -33
-4 -40 3 -8 8 -11 6 -11 -6z"/>
<path d="M8079 2219 c-24 -8 -78 -21 -119 -28 -116 -19 -139 -33 -230 -140
-52 -62 -69 -102 -77 -190 -5 -50 -3 -66 9 -75 8 -6 17 -28 21 -48 5 -34 13
-46 67 -103 18 -20 18 -20 -6 -48 -13 -15 -24 -24 -25 -20 0 4 -4 -2 -9 -14
-11 -27 -23 -29 -45 -7 -9 9 -18 14 -21 11 -3 -3 -14 2 -24 10 -21 18 -25 88
-24 401 l0 193 -45 -6 c-74 -11 -130 -5 -166 15 -26 15 -41 17 -59 10 -23 -8
-57 -48 -69 -81 -7 -21 -64 -30 -78 -12 -16 19 -63 16 -82 -4 -26 -30 -28 -65
-9 -135 11 -37 15 -65 11 -62 -15 9 -21 -46 -8 -77 12 -30 15 -31 56 -26 57 6
70 -8 72 -76 0 -30 4 -64 9 -76 4 -12 6 -39 4 -60 l-4 -39 -53 5 -53 6 -11
-38 c-8 -29 -6 -53 6 -104 8 -36 16 -97 17 -134 1 -48 6 -71 16 -77 23 -15 38
-12 60 10 11 11 20 17 20 13 0 -3 8 1 18 9 28 25 86 39 154 38 35 0 79 1 98 3
19 2 40 0 45 -4 11 -8 29 -7 55 4 8 4 28 5 44 3 32 -3 67 20 59 39 -2 7 0 16
6 19 6 4 5 19 -5 41 -8 19 -14 42 -14 52 1 16 2 16 16 -2 8 -11 12 -25 10 -32
-3 -7 3 -17 12 -22 9 -6 13 -11 9 -11 -5 0 0 -16 12 -36 12 -19 21 -41 21 -48
0 -14 66 -54 119 -73 36 -13 267 -13 288 0 6 4 13 1 16 -5 3 -10 7 -10 18 -2
8 6 45 20 83 30 54 15 79 28 110 59 42 42 96 105 119 140 17 26 75 194 76 220
6 188 2 233 -24 320 -15 50 -31 94 -36 100 -5 5 -9 17 -9 27 0 10 -3 18 -7 18
-5 0 -19 16 -32 35 -13 19 -31 35 -41 35 -9 0 -20 3 -23 7 -7 6 -42 13 -79 16
-10 1 -18 5 -18 10 0 4 -4 6 -9 3 -5 -3 -26 1 -47 10 -51 22 -141 23 -195 3z
m176 -115 c17 -4 50 -8 75 -9 25 -1 47 -3 50 -4 13 -3 60 -50 60 -59 0 -6 4
-12 8 -14 20 -8 55 -74 68 -127 25 -109 0 -355 -39 -386 -7 -5 -23 -27 -36
-48 -38 -62 -110 -129 -144 -132 -14 -2 -33 -7 -43 -13 -38 -19 -100 -27 -280
-32 -33 -1 -114 29 -114 43 0 4 -4 6 -9 2 -17 -10 -52 53 -58 104 l-6 49 39
18 c22 10 44 24 51 30 9 9 24 9 55 2 55 -14 63 -21 42 -42 -40 -41 -16 -103
41 -107 17 -2 68 12 115 30 72 28 90 40 118 77 17 25 32 51 32 58 0 8 7 21 15
30 21 20 22 93 3 113 -19 19 -54 12 -83 -15 -48 -45 -198 -76 -270 -56 -56 15
-75 24 -113 51 -36 27 -93 119 -85 138 2 7 0 16 -6 20 -6 3 -11 25 -11 49 0
47 18 109 29 102 4 -3 16 9 26 25 11 16 26 29 33 29 7 0 22 9 33 19 11 10 42
22 67 26 26 4 52 11 57 15 10 9 79 20 153 25 24 1 46 5 49 8 3 3 15 2 26 -3
12 -5 36 -12 52 -16z m-734 -45 c5 -8 9 -72 9 -144 0 -71 1 -161 1 -200 0 -38
0 -82 0 -97 0 -16 -1 -35 -1 -43 0 -31 -4 -45 -11 -45 -16 0 -16 -56 -1 -85
12 -21 25 -30 44 -31 15 0 25 4 22 8 -3 4 0 8 5 8 12 0 13 -6 5 -37 -4 -14
-14 -23 -25 -23 -11 0 -19 -4 -19 -8 0 -5 -6 -9 -12 -9 -49 -3 -144 -16 -201
-29 -87 -19 -133 -6 -143 39 -7 35 1 45 25 30 14 -9 25 -8 47 3 16 8 32 21 36
27 11 17 10 77 -1 77 -5 0 -9 10 -10 23 -7 230 -14 333 -24 347 -8 10 -25 16
-50 15 -43 -2 -67 25 -67 74 0 25 4 30 35 35 52 10 171 50 186 63 30 25 135
26 150 2z"/>
<path d="M8036 1961 c-22 -22 -28 -39 -30 -84 -4 -61 12 -123 35 -138 39 -24
126 2 156 47 20 31 10 123 -18 155 -10 12 -19 25 -19 29 0 4 -14 7 -30 8 -17
0 -38 3 -48 6 -12 4 -28 -4 -46 -23z"/>
<path d="M8710 1513 c-25 -10 -57 -38 -54 -48 1 -6 5 -22 8 -36 11 -52 77 -46
99 9 23 59 -2 94 -53 75z"/>
</g>
</svg>
